G04 #@! TF.GenerationSoftware,KiCad,Pcbnew,(5.1.6)-1*
G04 #@! TF.CreationDate,2021-01-09T08:19:16+02:00*
G04 #@! TF.ProjectId,MegaDuino_PM_1_3_Buzz,4d656761-4475-4696-9e6f-5f504d5f315f,rev?*
G04 #@! TF.SameCoordinates,Original*
G04 #@! TF.FileFunction,Copper,L1,Top*
G04 #@! TF.FilePolarity,Positive*
%FSLAX46Y46*%
G04 Gerber Fmt 4.6, Leading zero omitted, Abs format (unit mm)*
G04 Created by KiCad (PCBNEW (5.1.6)-1) date 2021-01-09 08:19:16*
%MOMM*%
%LPD*%
G01*
G04 APERTURE LIST*
G04 #@! TA.AperFunction,ComponentPad*
%ADD10O,3.500000X2.200000*%
G04 #@! TD*
G04 #@! TA.AperFunction,ComponentPad*
%ADD11O,2.500000X1.500000*%
G04 #@! TD*
G04 #@! TA.AperFunction,ComponentPad*
%ADD12R,2.500000X1.500000*%
G04 #@! TD*
G04 #@! TA.AperFunction,ComponentPad*
%ADD13O,1.700000X1.700000*%
G04 #@! TD*
G04 #@! TA.AperFunction,ComponentPad*
%ADD14C,1.700000*%
G04 #@! TD*
G04 #@! TA.AperFunction,ComponentPad*
%ADD15C,1.800000*%
G04 #@! TD*
G04 #@! TA.AperFunction,ComponentPad*
%ADD16R,1.800000X1.800000*%
G04 #@! TD*
G04 #@! TA.AperFunction,ComponentPad*
%ADD17C,2.000000*%
G04 #@! TD*
G04 #@! TA.AperFunction,ComponentPad*
%ADD18C,1.400000*%
G04 #@! TD*
G04 #@! TA.AperFunction,ComponentPad*
%ADD19R,1.400000X1.400000*%
G04 #@! TD*
G04 #@! TA.AperFunction,ComponentPad*
%ADD20O,1.600000X2.500000*%
G04 #@! TD*
G04 #@! TA.AperFunction,ComponentPad*
%ADD21O,2.500000X1.600000*%
G04 #@! TD*
G04 #@! TA.AperFunction,ComponentPad*
%ADD22R,1.700000X1.700000*%
G04 #@! TD*
G04 #@! TA.AperFunction,ComponentPad*
%ADD23R,3.500000X2.500000*%
G04 #@! TD*
G04 #@! TA.AperFunction,ComponentPad*
%ADD24O,1.750000X3.500000*%
G04 #@! TD*
G04 #@! TA.AperFunction,ComponentPad*
%ADD25O,1.600000X1.600000*%
G04 #@! TD*
G04 #@! TA.AperFunction,ComponentPad*
%ADD26R,1.600000X1.600000*%
G04 #@! TD*
G04 #@! TA.AperFunction,ComponentPad*
%ADD27O,2.400000X1.600000*%
G04 #@! TD*
G04 #@! TA.AperFunction,ComponentPad*
%ADD28R,2.400000X1.600000*%
G04 #@! TD*
G04 #@! TA.AperFunction,ComponentPad*
%ADD29C,1.620000*%
G04 #@! TD*
G04 #@! TA.AperFunction,ComponentPad*
%ADD30R,2.000000X2.000000*%
G04 #@! TD*
G04 #@! TA.AperFunction,ComponentPad*
%ADD31C,0.800000*%
G04 #@! TD*
G04 #@! TA.AperFunction,ComponentPad*
%ADD32C,6.400000*%
G04 #@! TD*
G04 #@! TA.AperFunction,ComponentPad*
%ADD33R,3.500000X3.500000*%
G04 #@! TD*
G04 #@! TA.AperFunction,ViaPad*
%ADD34C,0.900000*%
G04 #@! TD*
G04 #@! TA.AperFunction,Conductor*
%ADD35C,0.400000*%
G04 #@! TD*
G04 #@! TA.AperFunction,Conductor*
%ADD36C,0.300000*%
G04 #@! TD*
G04 APERTURE END LIST*
D10*
X223800000Y-135400000D03*
X223800000Y-143600000D03*
D11*
X223800000Y-137500000D03*
X223800000Y-139500000D03*
D12*
X223800000Y-141500000D03*
D10*
X223800000Y-147400000D03*
X223800000Y-155600000D03*
D11*
X223800000Y-149500000D03*
X223800000Y-151500000D03*
D12*
X223800000Y-153500000D03*
D13*
X171475000Y-138155000D03*
X171475000Y-135615000D03*
X171475000Y-133075000D03*
X168935000Y-133075000D03*
X168935000Y-138155000D03*
X168935000Y-135615000D03*
X171500000Y-150880000D03*
X171500000Y-148340000D03*
X171500000Y-145800000D03*
X168960000Y-145800000D03*
X168960000Y-150880000D03*
X168960000Y-148340000D03*
X135940000Y-128045000D03*
X135940000Y-130585000D03*
X138480000Y-130585000D03*
X141020000Y-128045000D03*
X141020000Y-130585000D03*
X143560000Y-128045000D03*
X138480000Y-128045000D03*
X143560000Y-130585000D03*
X133400000Y-130585000D03*
X133400000Y-128045000D03*
X146100000Y-128045000D03*
X146100000Y-130585000D03*
X148640000Y-128045000D03*
X148640000Y-130585000D03*
X151180000Y-128045000D03*
X151180000Y-130585000D03*
X153720000Y-128045000D03*
X153720000Y-130585000D03*
X156260000Y-128045000D03*
X156260000Y-130585000D03*
X158800000Y-128045000D03*
X168960000Y-128045000D03*
X166420000Y-128045000D03*
X168960000Y-130585000D03*
X158800000Y-130585000D03*
X163880000Y-130585000D03*
X171500000Y-130585000D03*
X163880000Y-128045000D03*
X166420000Y-130585000D03*
X161340000Y-128045000D03*
X171500000Y-128045000D03*
X161340000Y-130585000D03*
X125780000Y-163600000D03*
X130860000Y-163600000D03*
X135940000Y-161060000D03*
X146100000Y-163600000D03*
X146100000Y-161060000D03*
X153720000Y-161060000D03*
X156260000Y-163600000D03*
X128320000Y-161060000D03*
X123240000Y-161060000D03*
X128320000Y-163600000D03*
X130860000Y-161060000D03*
X133400000Y-161060000D03*
X138480000Y-163600000D03*
X143560000Y-163600000D03*
X143560000Y-161060000D03*
X148640000Y-163600000D03*
D14*
X120700000Y-163600000D03*
D13*
X148640000Y-161060000D03*
X141020000Y-163600000D03*
X151180000Y-163600000D03*
X151180000Y-161060000D03*
X123240000Y-163600000D03*
X133400000Y-163600000D03*
X141020000Y-161060000D03*
X153720000Y-163600000D03*
X125780000Y-161060000D03*
X135940000Y-163600000D03*
X138480000Y-161060000D03*
X120700000Y-161060000D03*
X168960000Y-161060000D03*
X166420000Y-163600000D03*
X158800000Y-161060000D03*
X171500000Y-163600000D03*
X166420000Y-161060000D03*
X168960000Y-163600000D03*
X156260000Y-161060000D03*
X161340000Y-161060000D03*
X163880000Y-163600000D03*
X171500000Y-161060000D03*
X158800000Y-163600000D03*
X163880000Y-161060000D03*
X161340000Y-163600000D03*
D15*
X158460000Y-123000000D03*
D16*
X161000000Y-123000000D03*
D17*
X138500000Y-171000000D03*
X138500000Y-175500000D03*
X132000000Y-171000000D03*
X132000000Y-175500000D03*
D18*
X225300000Y-126000000D03*
X225300000Y-128500000D03*
X225300000Y-131000000D03*
X222000000Y-126000000D03*
X222000000Y-128500000D03*
D19*
X222000000Y-131000000D03*
D17*
X213500000Y-171000000D03*
X213500000Y-175500000D03*
X207000000Y-171000000D03*
X207000000Y-175500000D03*
X198500000Y-171000000D03*
X198500000Y-175500000D03*
X192000000Y-171000000D03*
X192000000Y-175500000D03*
X183500000Y-171000000D03*
X183500000Y-175500000D03*
X177000000Y-171000000D03*
X177000000Y-175500000D03*
X168500000Y-171000000D03*
X168500000Y-175500000D03*
X162000000Y-171000000D03*
X162000000Y-175500000D03*
X153500000Y-171000000D03*
X153500000Y-175500000D03*
X147000000Y-171000000D03*
X147000000Y-175500000D03*
D20*
X169712000Y-114830000D03*
X174212000Y-114830000D03*
D21*
X171962000Y-116830000D03*
D15*
X165460000Y-123000000D03*
D16*
X168000000Y-123000000D03*
D15*
X151460000Y-123000000D03*
D16*
X154000000Y-123000000D03*
D13*
X196596000Y-140716000D03*
X196596000Y-143256000D03*
X194056000Y-140716000D03*
X194056000Y-143256000D03*
X191516000Y-140716000D03*
X191516000Y-143256000D03*
X188976000Y-140716000D03*
X188976000Y-143256000D03*
X186436000Y-140716000D03*
X186436000Y-143256000D03*
X183896000Y-140716000D03*
X183896000Y-143256000D03*
X181356000Y-140716000D03*
X181356000Y-143256000D03*
X178816000Y-140716000D03*
X178816000Y-143256000D03*
X176276000Y-140716000D03*
D22*
X176276000Y-143256000D03*
D23*
X157950000Y-112398000D03*
D24*
X162950000Y-117404000D03*
X160450000Y-117404000D03*
X152950000Y-117404000D03*
X155450000Y-117404000D03*
D13*
X183756000Y-108756000D03*
D22*
X178676000Y-108756000D03*
D13*
X186296000Y-108756000D03*
X181216000Y-108756000D03*
D23*
X143950000Y-112398000D03*
D24*
X148950000Y-117404000D03*
X146450000Y-117404000D03*
X138950000Y-117404000D03*
X141450000Y-117404000D03*
D25*
X213000000Y-159380000D03*
X220620000Y-167000000D03*
X215540000Y-159380000D03*
X218080000Y-167000000D03*
X218080000Y-159380000D03*
X215540000Y-167000000D03*
X220620000Y-159380000D03*
D26*
X213000000Y-167000000D03*
G04 #@! TA.AperFunction,SMDPad,CuDef*
G36*
G01*
X196003000Y-150688000D02*
X194903000Y-150688000D01*
G75*
G02*
X194653000Y-150438000I0J250000D01*
G01*
X194653000Y-147438000D01*
G75*
G02*
X194903000Y-147188000I250000J0D01*
G01*
X196003000Y-147188000D01*
G75*
G02*
X196253000Y-147438000I0J-250000D01*
G01*
X196253000Y-150438000D01*
G75*
G02*
X196003000Y-150688000I-250000J0D01*
G01*
G37*
G04 #@! TD.AperFunction*
G04 #@! TA.AperFunction,SMDPad,CuDef*
G36*
G01*
X196003000Y-156088000D02*
X194903000Y-156088000D01*
G75*
G02*
X194653000Y-155838000I0J250000D01*
G01*
X194653000Y-152838000D01*
G75*
G02*
X194903000Y-152588000I250000J0D01*
G01*
X196003000Y-152588000D01*
G75*
G02*
X196253000Y-152838000I0J-250000D01*
G01*
X196253000Y-155838000D01*
G75*
G02*
X196003000Y-156088000I-250000J0D01*
G01*
G37*
G04 #@! TD.AperFunction*
G04 #@! TA.AperFunction,SMDPad,CuDef*
G36*
G01*
X203877000Y-150688000D02*
X202777000Y-150688000D01*
G75*
G02*
X202527000Y-150438000I0J250000D01*
G01*
X202527000Y-147438000D01*
G75*
G02*
X202777000Y-147188000I250000J0D01*
G01*
X203877000Y-147188000D01*
G75*
G02*
X204127000Y-147438000I0J-250000D01*
G01*
X204127000Y-150438000D01*
G75*
G02*
X203877000Y-150688000I-250000J0D01*
G01*
G37*
G04 #@! TD.AperFunction*
G04 #@! TA.AperFunction,SMDPad,CuDef*
G36*
G01*
X203877000Y-156088000D02*
X202777000Y-156088000D01*
G75*
G02*
X202527000Y-155838000I0J250000D01*
G01*
X202527000Y-152838000D01*
G75*
G02*
X202777000Y-152588000I250000J0D01*
G01*
X203877000Y-152588000D01*
G75*
G02*
X204127000Y-152838000I0J-250000D01*
G01*
X204127000Y-155838000D01*
G75*
G02*
X203877000Y-156088000I-250000J0D01*
G01*
G37*
G04 #@! TD.AperFunction*
G04 #@! TA.AperFunction,SMDPad,CuDef*
G36*
G01*
X189774000Y-116307800D02*
X189774000Y-114408200D01*
G75*
G02*
X190024200Y-114158000I250200J0D01*
G01*
X191323800Y-114158000D01*
G75*
G02*
X191574000Y-114408200I0J-250200D01*
G01*
X191574000Y-116307800D01*
G75*
G02*
X191323800Y-116558000I-250200J0D01*
G01*
X190024200Y-116558000D01*
G75*
G02*
X189774000Y-116307800I0J250200D01*
G01*
G37*
G04 #@! TD.AperFunction*
G04 #@! TA.AperFunction,SMDPad,CuDef*
G36*
G01*
X217174000Y-115108100D02*
X217174000Y-113207900D01*
G75*
G02*
X217423900Y-112958000I249900J0D01*
G01*
X218624100Y-112958000D01*
G75*
G02*
X218874000Y-113207900I0J-249900D01*
G01*
X218874000Y-115108100D01*
G75*
G02*
X218624100Y-115358000I-249900J0D01*
G01*
X217423900Y-115358000D01*
G75*
G02*
X217174000Y-115108100I0J249900D01*
G01*
G37*
G04 #@! TD.AperFunction*
G04 #@! TA.AperFunction,SMDPad,CuDef*
G36*
G01*
X217664000Y-137308100D02*
X217664000Y-135807900D01*
G75*
G02*
X217913900Y-135558000I249900J0D01*
G01*
X218114100Y-135558000D01*
G75*
G02*
X218364000Y-135807900I0J-249900D01*
G01*
X218364000Y-137308100D01*
G75*
G02*
X218114100Y-137558000I-249900J0D01*
G01*
X217913900Y-137558000D01*
G75*
G02*
X217664000Y-137308100I0J249900D01*
G01*
G37*
G04 #@! TD.AperFunction*
G04 #@! TA.AperFunction,SMDPad,CuDef*
G36*
G01*
X214124000Y-137307600D02*
X214124000Y-135808400D01*
G75*
G02*
X214374400Y-135558000I250400J0D01*
G01*
X214673600Y-135558000D01*
G75*
G02*
X214924000Y-135808400I0J-250400D01*
G01*
X214924000Y-137307600D01*
G75*
G02*
X214673600Y-137558000I-250400J0D01*
G01*
X214374400Y-137558000D01*
G75*
G02*
X214124000Y-137307600I0J250400D01*
G01*
G37*
G04 #@! TD.AperFunction*
G04 #@! TA.AperFunction,SMDPad,CuDef*
G36*
G01*
X212424000Y-137307600D02*
X212424000Y-135808400D01*
G75*
G02*
X212674400Y-135558000I250400J0D01*
G01*
X212973600Y-135558000D01*
G75*
G02*
X213224000Y-135808400I0J-250400D01*
G01*
X213224000Y-137307600D01*
G75*
G02*
X212973600Y-137558000I-250400J0D01*
G01*
X212674400Y-137558000D01*
G75*
G02*
X212424000Y-137307600I0J250400D01*
G01*
G37*
G04 #@! TD.AperFunction*
G04 #@! TA.AperFunction,SMDPad,CuDef*
G36*
G01*
X209994000Y-137307600D02*
X209994000Y-135808400D01*
G75*
G02*
X210244400Y-135558000I250400J0D01*
G01*
X210543600Y-135558000D01*
G75*
G02*
X210794000Y-135808400I0J-250400D01*
G01*
X210794000Y-137307600D01*
G75*
G02*
X210543600Y-137558000I-250400J0D01*
G01*
X210244400Y-137558000D01*
G75*
G02*
X209994000Y-137307600I0J250400D01*
G01*
G37*
G04 #@! TD.AperFunction*
G04 #@! TA.AperFunction,SMDPad,CuDef*
G36*
G01*
X207494000Y-137307600D02*
X207494000Y-135808400D01*
G75*
G02*
X207744400Y-135558000I250400J0D01*
G01*
X208043600Y-135558000D01*
G75*
G02*
X208294000Y-135808400I0J-250400D01*
G01*
X208294000Y-137307600D01*
G75*
G02*
X208043600Y-137558000I-250400J0D01*
G01*
X207744400Y-137558000D01*
G75*
G02*
X207494000Y-137307600I0J250400D01*
G01*
G37*
G04 #@! TD.AperFunction*
G04 #@! TA.AperFunction,SMDPad,CuDef*
G36*
G01*
X204994000Y-137307600D02*
X204994000Y-135808400D01*
G75*
G02*
X205244400Y-135558000I250400J0D01*
G01*
X205543600Y-135558000D01*
G75*
G02*
X205794000Y-135808400I0J-250400D01*
G01*
X205794000Y-137307600D01*
G75*
G02*
X205543600Y-137558000I-250400J0D01*
G01*
X205244400Y-137558000D01*
G75*
G02*
X204994000Y-137307600I0J250400D01*
G01*
G37*
G04 #@! TD.AperFunction*
G04 #@! TA.AperFunction,SMDPad,CuDef*
G36*
G01*
X203294000Y-137307600D02*
X203294000Y-135808400D01*
G75*
G02*
X203544400Y-135558000I250400J0D01*
G01*
X203843600Y-135558000D01*
G75*
G02*
X204094000Y-135808400I0J-250400D01*
G01*
X204094000Y-137307600D01*
G75*
G02*
X203843600Y-137558000I-250400J0D01*
G01*
X203544400Y-137558000D01*
G75*
G02*
X203294000Y-137307600I0J250400D01*
G01*
G37*
G04 #@! TD.AperFunction*
G04 #@! TA.AperFunction,SMDPad,CuDef*
G36*
G01*
X201694000Y-137307600D02*
X201694000Y-135808400D01*
G75*
G02*
X201944400Y-135558000I250400J0D01*
G01*
X202243600Y-135558000D01*
G75*
G02*
X202494000Y-135808400I0J-250400D01*
G01*
X202494000Y-137307600D01*
G75*
G02*
X202243600Y-137558000I-250400J0D01*
G01*
X201944400Y-137558000D01*
G75*
G02*
X201694000Y-137307600I0J250400D01*
G01*
G37*
G04 #@! TD.AperFunction*
G04 #@! TA.AperFunction,SMDPad,CuDef*
G36*
G01*
X199994000Y-137307600D02*
X199994000Y-135808400D01*
G75*
G02*
X200244400Y-135558000I250400J0D01*
G01*
X200543600Y-135558000D01*
G75*
G02*
X200794000Y-135808400I0J-250400D01*
G01*
X200794000Y-137307600D01*
G75*
G02*
X200543600Y-137558000I-250400J0D01*
G01*
X200244400Y-137558000D01*
G75*
G02*
X199994000Y-137307600I0J250400D01*
G01*
G37*
G04 #@! TD.AperFunction*
G04 #@! TA.AperFunction,SMDPad,CuDef*
G36*
G01*
X197494000Y-137307600D02*
X197494000Y-135808400D01*
G75*
G02*
X197744400Y-135558000I250400J0D01*
G01*
X198043600Y-135558000D01*
G75*
G02*
X198294000Y-135808400I0J-250400D01*
G01*
X198294000Y-137307600D01*
G75*
G02*
X198043600Y-137558000I-250400J0D01*
G01*
X197744400Y-137558000D01*
G75*
G02*
X197494000Y-137307600I0J250400D01*
G01*
G37*
G04 #@! TD.AperFunction*
G04 #@! TA.AperFunction,SMDPad,CuDef*
G36*
G01*
X194994000Y-137307600D02*
X194994000Y-135808400D01*
G75*
G02*
X195244400Y-135558000I250400J0D01*
G01*
X195543600Y-135558000D01*
G75*
G02*
X195794000Y-135808400I0J-250400D01*
G01*
X195794000Y-137307600D01*
G75*
G02*
X195543600Y-137558000I-250400J0D01*
G01*
X195244400Y-137558000D01*
G75*
G02*
X194994000Y-137307600I0J250400D01*
G01*
G37*
G04 #@! TD.AperFunction*
D27*
X183120000Y-159500000D03*
X175500000Y-167120000D03*
X183120000Y-162040000D03*
X175500000Y-164580000D03*
X183120000Y-164580000D03*
X175500000Y-162040000D03*
X183120000Y-167120000D03*
D28*
X175500000Y-159500000D03*
D29*
X180340000Y-155702000D03*
X177840000Y-150702000D03*
X175340000Y-155702000D03*
D17*
X209400000Y-145000000D03*
D30*
X217000000Y-145000000D03*
D31*
X224697056Y-108302944D03*
X223000000Y-107600000D03*
X221302944Y-108302944D03*
X220600000Y-110000000D03*
X221302944Y-111697056D03*
X223000000Y-112400000D03*
X224697056Y-111697056D03*
X225400000Y-110000000D03*
D32*
X223000000Y-110000000D03*
D31*
X124197056Y-108302944D03*
X122500000Y-107600000D03*
X120802944Y-108302944D03*
X120100000Y-110000000D03*
X120802944Y-111697056D03*
X122500000Y-112400000D03*
X124197056Y-111697056D03*
X124900000Y-110000000D03*
D32*
X122500000Y-110000000D03*
D31*
X224697056Y-172302944D03*
X223000000Y-171600000D03*
X221302944Y-172302944D03*
X220600000Y-174000000D03*
X221302944Y-175697056D03*
X223000000Y-176400000D03*
X224697056Y-175697056D03*
X225400000Y-174000000D03*
D32*
X223000000Y-174000000D03*
D31*
X124197056Y-172302944D03*
X122500000Y-171600000D03*
X120802944Y-172302944D03*
X120100000Y-174000000D03*
X120802944Y-175697056D03*
X122500000Y-176400000D03*
X124197056Y-175697056D03*
X124900000Y-174000000D03*
D32*
X122500000Y-174000000D03*
D27*
X194120000Y-159500000D03*
X186500000Y-167120000D03*
X194120000Y-162040000D03*
X186500000Y-164580000D03*
X194120000Y-164580000D03*
X186500000Y-162040000D03*
X194120000Y-167120000D03*
D28*
X186500000Y-159500000D03*
D25*
X199500000Y-159380000D03*
X207120000Y-167000000D03*
X202040000Y-159380000D03*
X204580000Y-167000000D03*
X204580000Y-159380000D03*
X202040000Y-167000000D03*
X207120000Y-159380000D03*
D26*
X199500000Y-167000000D03*
D29*
X188722000Y-155702000D03*
X186222000Y-150702000D03*
X183722000Y-155702000D03*
G04 #@! TA.AperFunction,ComponentPad*
G36*
G01*
X125425000Y-115138000D02*
X127175000Y-115138000D01*
G75*
G02*
X128050000Y-116013000I0J-875000D01*
G01*
X128050000Y-117763000D01*
G75*
G02*
X127175000Y-118638000I-875000J0D01*
G01*
X125425000Y-118638000D01*
G75*
G02*
X124550000Y-117763000I0J875000D01*
G01*
X124550000Y-116013000D01*
G75*
G02*
X125425000Y-115138000I875000J0D01*
G01*
G37*
G04 #@! TD.AperFunction*
G04 #@! TA.AperFunction,ComponentPad*
G36*
G01*
X130000000Y-112388000D02*
X132000000Y-112388000D01*
G75*
G02*
X132750000Y-113138000I0J-750000D01*
G01*
X132750000Y-114638000D01*
G75*
G02*
X132000000Y-115388000I-750000J0D01*
G01*
X130000000Y-115388000D01*
G75*
G02*
X129250000Y-114638000I0J750000D01*
G01*
X129250000Y-113138000D01*
G75*
G02*
X130000000Y-112388000I750000J0D01*
G01*
G37*
G04 #@! TD.AperFunction*
D33*
X131000000Y-119888000D03*
D15*
X137460000Y-123000000D03*
D16*
X140000000Y-123000000D03*
D15*
X144460000Y-123000000D03*
D16*
X147000000Y-123000000D03*
D34*
X122288500Y-165828500D03*
X129018300Y-154490000D03*
X190270200Y-152209700D03*
X202893900Y-138135200D03*
X178003300Y-132644500D03*
X132984000Y-132458800D03*
X158612000Y-137387200D03*
X175542700Y-135431800D03*
X173081100Y-137991300D03*
X224010000Y-131699200D03*
X185761800Y-145517200D03*
X207230000Y-152181600D03*
X123052000Y-130470400D03*
X191860600Y-149070300D03*
X131634800Y-127612700D03*
X186502200Y-173456200D03*
D35*
X129018300Y-154490000D02*
X125406000Y-154490000D01*
X125406000Y-154490000D02*
X119383300Y-160512700D01*
X119383300Y-160512700D02*
X119383300Y-164147100D01*
X119383300Y-164147100D02*
X121064700Y-165828500D01*
X121064700Y-165828500D02*
X122288500Y-165828500D01*
X205394000Y-136558000D02*
X205394000Y-136942000D01*
X205394000Y-136942000D02*
X203298300Y-139037700D01*
X203298300Y-139037700D02*
X173883300Y-139037700D01*
X173883300Y-139037700D02*
X158431000Y-154490000D01*
X158431000Y-154490000D02*
X129018300Y-154490000D01*
X183722000Y-155702000D02*
X184749700Y-155702000D01*
X184749700Y-155702000D02*
X188242000Y-152209700D01*
X188242000Y-152209700D02*
X190270200Y-152209700D01*
X202893900Y-138135200D02*
X203694000Y-137335100D01*
X203694000Y-137335100D02*
X203694000Y-136558000D01*
X177000000Y-175500000D02*
X168500000Y-175500000D01*
X183500000Y-175500000D02*
X177000000Y-175500000D01*
X140000000Y-123000000D02*
X141350400Y-124350400D01*
X141350400Y-124350400D02*
X145649600Y-124350400D01*
X145649600Y-124350400D02*
X147000000Y-123000000D01*
X161000000Y-123000000D02*
X159649600Y-124350400D01*
X159649600Y-124350400D02*
X155350400Y-124350400D01*
X155350400Y-124350400D02*
X154000000Y-123000000D01*
X181463000Y-160770000D02*
X185230000Y-160770000D01*
X185230000Y-160770000D02*
X186500000Y-162040000D01*
X175500000Y-162040000D02*
X180193000Y-162040000D01*
X180193000Y-162040000D02*
X181463000Y-160770000D01*
X183722000Y-155702000D02*
X181463000Y-157961000D01*
X181463000Y-157961000D02*
X181463000Y-160770000D01*
X209400000Y-145000000D02*
X210394000Y-144006000D01*
X210394000Y-144006000D02*
X210394000Y-136558000D01*
X192000000Y-175500000D02*
X198500000Y-175500000D01*
X183500000Y-175500000D02*
X192000000Y-175500000D01*
X123240000Y-163600000D02*
X123240000Y-166740000D01*
X123240000Y-166740000D02*
X132000000Y-175500000D01*
X138500000Y-175500000D02*
X147000000Y-175500000D01*
X132000000Y-175500000D02*
X138500000Y-175500000D01*
X207000000Y-175500000D02*
X213500000Y-175500000D01*
X162000000Y-175500000D02*
X168500000Y-175500000D01*
X153500000Y-175500000D02*
X162000000Y-175500000D01*
X147000000Y-175500000D02*
X153500000Y-175500000D01*
D36*
X222000000Y-131000000D02*
X179647800Y-131000000D01*
X179647800Y-131000000D02*
X178003300Y-132644500D01*
X194120000Y-167120000D02*
X200770000Y-160470000D01*
X200770000Y-160470000D02*
X200770000Y-156895000D01*
X200770000Y-156895000D02*
X203327000Y-154338000D01*
D35*
X199500000Y-167000000D02*
X198117500Y-168382500D01*
X198117500Y-168382500D02*
X181552700Y-168382500D01*
X181552700Y-168382500D02*
X176480200Y-163310000D01*
X176480200Y-163310000D02*
X174593800Y-163310000D01*
X174593800Y-163310000D02*
X173555000Y-162271200D01*
X173555000Y-162271200D02*
X173555000Y-161250900D01*
X173555000Y-161250900D02*
X172061100Y-159757000D01*
X172061100Y-159757000D02*
X127083000Y-159757000D01*
X127083000Y-159757000D02*
X125780000Y-161060000D01*
D36*
X218080000Y-159380000D02*
X215540000Y-159380000D01*
X220620000Y-159380000D02*
X219418500Y-160581500D01*
X219418500Y-160581500D02*
X214201500Y-160581500D01*
X214201500Y-160581500D02*
X213000000Y-159380000D01*
X169712000Y-114830000D02*
X174212000Y-114830000D01*
X152950000Y-115241600D02*
X153361600Y-114830000D01*
X153361600Y-114830000D02*
X169712000Y-114830000D01*
X152950000Y-115241600D02*
X138425100Y-115241600D01*
X138425100Y-115241600D02*
X136497800Y-117168900D01*
X136497800Y-117168900D02*
X136497800Y-120403900D01*
X136497800Y-120403900D02*
X130784500Y-126117200D01*
X130784500Y-126117200D02*
X130784500Y-130259300D01*
X130784500Y-130259300D02*
X132984000Y-132458800D01*
X152950000Y-117404000D02*
X152950000Y-115241600D01*
X158612000Y-137387200D02*
X159114200Y-136885000D01*
X159114200Y-136885000D02*
X172853300Y-136885000D01*
X172853300Y-136885000D02*
X175156900Y-134581400D01*
X175156900Y-134581400D02*
X205917400Y-134581400D01*
X205917400Y-134581400D02*
X207894000Y-136558000D01*
X200394000Y-136558000D02*
X198977400Y-135141400D01*
X198977400Y-135141400D02*
X175833100Y-135141400D01*
X175833100Y-135141400D02*
X175542700Y-135431800D01*
X197894000Y-136558000D02*
X196460700Y-137991300D01*
X196460700Y-137991300D02*
X173081100Y-137991300D01*
X147000000Y-171000000D02*
X153500000Y-171000000D01*
X162000000Y-171000000D02*
X168500000Y-171000000D01*
X177000000Y-171000000D02*
X183500000Y-171000000D01*
X192000000Y-171000000D02*
X198500000Y-171000000D01*
X130860000Y-163600000D02*
X135849500Y-168589500D01*
X135849500Y-168589500D02*
X155108700Y-168589500D01*
X155108700Y-168589500D02*
X158919600Y-172400400D01*
X158919600Y-172400400D02*
X208973300Y-172400400D01*
X208973300Y-172400400D02*
X212106100Y-169267600D01*
X212106100Y-169267600D02*
X214972200Y-169267600D01*
X214972200Y-169267600D02*
X216810000Y-167429800D01*
X216810000Y-167429800D02*
X216810000Y-165591700D01*
X216810000Y-165591700D02*
X221827400Y-160574300D01*
X221827400Y-160574300D02*
X221827400Y-158407000D01*
X221827400Y-158407000D02*
X221602000Y-158181600D01*
X221602000Y-158181600D02*
X221602000Y-155026100D01*
X221602000Y-155026100D02*
X223128100Y-153500000D01*
X223128100Y-153500000D02*
X223800000Y-153500000D01*
X138480000Y-130585000D02*
X139750000Y-129315000D01*
X139750000Y-129315000D02*
X221164800Y-129315000D01*
X221164800Y-129315000D02*
X221749400Y-129899600D01*
X221749400Y-129899600D02*
X222931500Y-129899600D01*
X222931500Y-129899600D02*
X224010000Y-130978100D01*
X224010000Y-130978100D02*
X224010000Y-131699200D01*
X215540000Y-167000000D02*
X214338600Y-165798600D01*
X214338600Y-165798600D02*
X211996300Y-165798600D01*
X211996300Y-165798600D02*
X208778700Y-169016200D01*
X208778700Y-169016200D02*
X180690900Y-169016200D01*
X180690900Y-169016200D02*
X177524700Y-165850000D01*
X177524700Y-165850000D02*
X174645400Y-165850000D01*
X174645400Y-165850000D02*
X173388600Y-164593200D01*
X173388600Y-164593200D02*
X173388600Y-163687500D01*
X173388600Y-163687500D02*
X172031100Y-162330000D01*
X172031100Y-162330000D02*
X160070000Y-162330000D01*
X160070000Y-162330000D02*
X158800000Y-161060000D01*
X158800000Y-163600000D02*
X164766600Y-169566600D01*
X164766600Y-169566600D02*
X210433400Y-169566600D01*
X210433400Y-169566600D02*
X213000000Y-167000000D01*
X185761800Y-145517200D02*
X178537200Y-145517200D01*
X178537200Y-145517200D02*
X176276000Y-143256000D01*
X186436000Y-143256000D02*
X187206100Y-143256000D01*
X187206100Y-143256000D02*
X188456500Y-142005600D01*
X188456500Y-142005600D02*
X190265600Y-142005600D01*
X190265600Y-142005600D02*
X191516000Y-143256000D01*
X212824000Y-136558000D02*
X210297000Y-134031000D01*
X210297000Y-134031000D02*
X173059000Y-134031000D01*
X173059000Y-134031000D02*
X171475000Y-135615000D01*
X178816000Y-140716000D02*
X180066400Y-141966400D01*
X180066400Y-141966400D02*
X182645600Y-141966400D01*
X182645600Y-141966400D02*
X183896000Y-140716000D01*
X188976000Y-140716000D02*
X188967900Y-140716000D01*
X188967900Y-140716000D02*
X187697900Y-141986000D01*
X187697900Y-141986000D02*
X185166000Y-141986000D01*
X185166000Y-141986000D02*
X183896000Y-140716000D01*
X178816000Y-143256000D02*
X181356000Y-143256000D01*
X217000000Y-145000000D02*
X210910700Y-151089300D01*
X210910700Y-151089300D02*
X197604300Y-151089300D01*
X197604300Y-151089300D02*
X195453000Y-148938000D01*
X183120000Y-167120000D02*
X181506700Y-165506700D01*
X181506700Y-165506700D02*
X181506700Y-164079900D01*
X181506700Y-164079900D02*
X182276600Y-163310000D01*
X182276600Y-163310000D02*
X187327500Y-163310000D01*
X187327500Y-163310000D02*
X195453000Y-155184500D01*
X195453000Y-155184500D02*
X195453000Y-154338000D01*
X195453000Y-154338000D02*
X197609400Y-152181600D01*
X197609400Y-152181600D02*
X207230000Y-152181600D01*
X138950000Y-117404000D02*
X138950000Y-117604900D01*
X138950000Y-117604900D02*
X140919400Y-119574300D01*
X140919400Y-119574300D02*
X180713500Y-119574300D01*
X180713500Y-119574300D02*
X188389200Y-127250000D01*
X188389200Y-127250000D02*
X224050000Y-127250000D01*
X224050000Y-127250000D02*
X225300000Y-128500000D01*
X222000000Y-126000000D02*
X225300000Y-126000000D01*
X123052000Y-130470400D02*
X124544900Y-130470400D01*
X124544900Y-130470400D02*
X133617100Y-121398200D01*
X133617100Y-121398200D02*
X133617100Y-119271400D01*
X133617100Y-119271400D02*
X138655200Y-114233300D01*
X138655200Y-114233300D02*
X164149100Y-114233300D01*
X164149100Y-114233300D02*
X165205300Y-113177100D01*
X165205300Y-113177100D02*
X182501000Y-113177100D01*
X182501000Y-113177100D02*
X195323900Y-126000000D01*
X195323900Y-126000000D02*
X222000000Y-126000000D01*
X175500000Y-159500000D02*
X175500000Y-158827700D01*
X175500000Y-158827700D02*
X189242000Y-145085700D01*
X189242000Y-145085700D02*
X194766300Y-145085700D01*
X194766300Y-145085700D02*
X196596000Y-143256000D01*
X183120000Y-159500000D02*
X189270500Y-153349500D01*
X189270500Y-153349500D02*
X190332900Y-153349500D01*
X190332900Y-153349500D02*
X191860600Y-151821800D01*
X191860600Y-151821800D02*
X191860600Y-149070300D01*
X180340000Y-155702000D02*
X182763400Y-153278600D01*
X182763400Y-153278600D02*
X185360600Y-153278600D01*
X185360600Y-153278600D02*
X191852500Y-146786700D01*
X191852500Y-146786700D02*
X211221600Y-146786700D01*
X211221600Y-146786700D02*
X216508300Y-141500000D01*
X216508300Y-141500000D02*
X223800000Y-141500000D01*
X203327000Y-148938000D02*
X209860300Y-148938000D01*
X209860300Y-148938000D02*
X215249900Y-143548400D01*
X215249900Y-143548400D02*
X218831900Y-143548400D01*
X218831900Y-143548400D02*
X220405100Y-145121600D01*
X220405100Y-145121600D02*
X225117800Y-145121600D01*
X225117800Y-145121600D02*
X225996800Y-144242600D01*
X225996800Y-144242600D02*
X225996800Y-131696800D01*
X225996800Y-131696800D02*
X225300000Y-131000000D01*
X158460000Y-123000000D02*
X157091000Y-121631000D01*
X157091000Y-121631000D02*
X136990200Y-121631000D01*
X136990200Y-121631000D02*
X131634800Y-126986400D01*
X131634800Y-126986400D02*
X131634800Y-127612700D01*
D35*
X194120000Y-164580000D02*
X192850000Y-165850000D01*
X192850000Y-165850000D02*
X184390000Y-165850000D01*
X184390000Y-165850000D02*
X183120000Y-164580000D01*
X125780000Y-163600000D02*
X131729600Y-169549600D01*
X131729600Y-169549600D02*
X141597200Y-169549600D01*
X141597200Y-169549600D02*
X145503800Y-173456200D01*
X145503800Y-173456200D02*
X186502200Y-173456200D01*
M02*
