M48
METRIC,TZ
T1C0.500
T2C0.800
T3C0.900
T4C1.000
T5C1.100
T6C1.200
T7C1.500
T8C3.200
%
G90
G05
T1
X122289Y-165829
X123052Y-130470
X129018Y-154490
X131635Y-127613
X132984Y-132459
X158612Y-137387
X173081Y-137991
X175543Y-135432
X178003Y-132645
X185762Y-145517
X186502Y-173456
X190270Y-152210
X191861Y-149070
X202894Y-138135
X207230Y-152182
X224010Y-131699
X220600Y-174000
X221303Y-172303
X221303Y-175697
X223000Y-171600
X223000Y-176400
X224697Y-172303
X224697Y-175697
X225400Y-174000
X120100Y-174000
X120803Y-172303
X120803Y-175697
X122500Y-171600
X122500Y-176400
X124197Y-172303
X124197Y-175697
X124900Y-174000
X220600Y-110000
X221303Y-108303
X221303Y-111697
X223000Y-107600
X223000Y-112400
X224697Y-108303
X224697Y-111697
X225400Y-110000
X120100Y-110000
X120803Y-108303
X120803Y-111697
X122500Y-107600
X122500Y-112400
X124197Y-108303
X124197Y-111697
X124900Y-110000
T2
X175500Y-159500
X175500Y-162040
X175500Y-164580
X175500Y-167120
X183120Y-159500
X183120Y-162040
X183120Y-164580
X183120Y-167120
X199500Y-159380
X199500Y-167000
X202040Y-159380
X202040Y-167000
X204580Y-159380
X204580Y-167000
X207120Y-159380
X207120Y-167000
X186500Y-159500
X186500Y-162040
X186500Y-164580
X186500Y-167120
X194120Y-159500
X194120Y-162040
X194120Y-164580
X194120Y-167120
X213000Y-159380
X213000Y-167000
X215540Y-159380
X215540Y-167000
X218080Y-159380
X218080Y-167000
X220620Y-159380
X220620Y-167000
T3
X222000Y-126000
X222000Y-128500
X222000Y-131000
X225300Y-126000
X225300Y-128500
X225300Y-131000
X175340Y-155702
X177840Y-150702
X180340Y-155702
X137460Y-123000
X140000Y-123000
X183722Y-155702
X186222Y-150702
X188722Y-155702
X158460Y-123000
X161000Y-123000
X223800Y-149500
X223800Y-151500
X223800Y-153500
X151460Y-123000
X154000Y-123000
X144460Y-123000
X147000Y-123000
X165460Y-123000
X168000Y-123000
X223800Y-137500
X223800Y-139500
X223800Y-141500
T4
X209400Y-145000
X217000Y-145000
X176276Y-140716
X176276Y-143256
X178816Y-140716
X178816Y-143256
X181356Y-140716
X181356Y-143256
X183896Y-140716
X183896Y-143256
X186436Y-140716
X186436Y-143256
X188976Y-140716
X188976Y-143256
X191516Y-140716
X191516Y-143256
X194056Y-140716
X194056Y-143256
X196596Y-140716
X196596Y-143256
X120700Y-161060
X120700Y-163600
X123240Y-161060
X123240Y-163600
X125780Y-161060
X125780Y-163600
X128320Y-161060
X128320Y-163600
X130860Y-161060
X130860Y-163600
X133400Y-128045
X133400Y-130585
X133400Y-161060
X133400Y-163600
X135940Y-128045
X135940Y-130585
X135940Y-161060
X135940Y-163600
X138480Y-128045
X138480Y-130585
X138480Y-161060
X138480Y-163600
X141020Y-128045
X141020Y-130585
X141020Y-161060
X141020Y-163600
X143560Y-128045
X143560Y-130585
X143560Y-161060
X143560Y-163600
X146100Y-128045
X146100Y-130585
X146100Y-161060
X146100Y-163600
X148640Y-128045
X148640Y-130585
X148640Y-161060
X148640Y-163600
X151180Y-128045
X151180Y-130585
X151180Y-161060
X151180Y-163600
X153720Y-128045
X153720Y-130585
X153720Y-161060
X153720Y-163600
X156260Y-128045
X156260Y-130585
X156260Y-161060
X156260Y-163600
X158800Y-128045
X158800Y-130585
X158800Y-161060
X158800Y-163600
X161340Y-128045
X161340Y-130585
X161340Y-161060
X161340Y-163600
X163880Y-128045
X163880Y-130585
X163880Y-161060
X163880Y-163600
X166420Y-128045
X166420Y-130585
X166420Y-161060
X166420Y-163600
X168935Y-133075
X168935Y-135615
X168935Y-138155
X168960Y-128045
X168960Y-130585
X168960Y-145800
X168960Y-148340
X168960Y-150880
X168960Y-161060
X168960Y-163600
X171475Y-133075
X171475Y-135615
X171475Y-138155
X171500Y-128045
X171500Y-130585
X171500Y-145800
X171500Y-148340
X171500Y-150880
X171500Y-161060
X171500Y-163600
X178676Y-108756
X181216Y-108756
X183756Y-108756
X186296Y-108756
T5
X177000Y-171000
X177000Y-175500
X183500Y-171000
X183500Y-175500
X192000Y-171000
X192000Y-175500
X198500Y-171000
X198500Y-175500
X147000Y-171000
X147000Y-175500
X153500Y-171000
X153500Y-175500
X207000Y-171000
X207000Y-175500
X213500Y-171000
X213500Y-175500
X132000Y-171000
X132000Y-175500
X138500Y-171000
X138500Y-175500
X162000Y-171000
X162000Y-175500
X168500Y-171000
X168500Y-175500
T6
X152950Y-117404
X155450Y-117404
X157950Y-112398
X160450Y-117404
X162950Y-117404
X138950Y-117404
X141450Y-117404
X143950Y-112398
X146450Y-117404
X148950Y-117404
T7
X223800Y-147400
X223800Y-155600
X223800Y-135400
X223800Y-143600
T8
X223000Y-174000
X122500Y-174000
X223000Y-110000
X122500Y-110000
T2
G00X169712Y-114430
M15
G01X169712Y-115230
M16
G05
G00X171562Y-116830
M15
G01X172362Y-116830
M16
G05
G00X174212Y-114430
M15
G01X174212Y-115230
M16
G05
T4
G00X126300Y-115888
M15
G01X126300Y-117888
M16
G05
G00X132000Y-113888
M15
G01X130000Y-113888
M16
G05
G00X132000Y-119888
M15
G01X130000Y-119888
M16
G05
T0
M30
