G04 #@! TF.GenerationSoftware,KiCad,Pcbnew,(5.1.6)-1*
G04 #@! TF.CreationDate,2021-01-09T08:19:16+02:00*
G04 #@! TF.ProjectId,MegaDuino_PM_1_3_Buzz,4d656761-4475-4696-9e6f-5f504d5f315f,rev?*
G04 #@! TF.SameCoordinates,Original*
G04 #@! TF.FileFunction,Soldermask,Top*
G04 #@! TF.FilePolarity,Negative*
%FSLAX46Y46*%
G04 Gerber Fmt 4.6, Leading zero omitted, Abs format (unit mm)*
G04 Created by KiCad (PCBNEW (5.1.6)-1) date 2021-01-09 08:19:16*
%MOMM*%
%LPD*%
G01*
G04 APERTURE LIST*
%ADD10O,3.500000X2.200000*%
%ADD11O,2.500000X1.500000*%
%ADD12R,2.500000X1.500000*%
%ADD13O,1.700000X1.700000*%
%ADD14C,1.700000*%
%ADD15C,1.800000*%
%ADD16R,1.800000X1.800000*%
%ADD17C,2.000000*%
%ADD18C,1.400000*%
%ADD19R,1.400000X1.400000*%
%ADD20O,1.600000X2.500000*%
%ADD21O,2.500000X1.600000*%
%ADD22R,1.700000X1.700000*%
%ADD23R,3.500000X2.500000*%
%ADD24O,1.750000X3.500000*%
%ADD25O,1.600000X1.600000*%
%ADD26R,1.600000X1.600000*%
%ADD27C,1.500000*%
%ADD28O,2.400000X1.600000*%
%ADD29R,2.400000X1.600000*%
%ADD30C,1.620000*%
%ADD31R,2.000000X2.000000*%
%ADD32C,0.800000*%
%ADD33C,6.400000*%
%ADD34R,3.500000X3.500000*%
G04 APERTURE END LIST*
D10*
X223800000Y-135400000D03*
X223800000Y-143600000D03*
D11*
X223800000Y-137500000D03*
X223800000Y-139500000D03*
D12*
X223800000Y-141500000D03*
D10*
X223800000Y-147400000D03*
X223800000Y-155600000D03*
D11*
X223800000Y-149500000D03*
X223800000Y-151500000D03*
D12*
X223800000Y-153500000D03*
D13*
X171475000Y-138155000D03*
X171475000Y-135615000D03*
X171475000Y-133075000D03*
X168935000Y-133075000D03*
X168935000Y-138155000D03*
X168935000Y-135615000D03*
X171500000Y-150880000D03*
X171500000Y-148340000D03*
X171500000Y-145800000D03*
X168960000Y-145800000D03*
X168960000Y-150880000D03*
X168960000Y-148340000D03*
X135940000Y-128045000D03*
X135940000Y-130585000D03*
X138480000Y-130585000D03*
X141020000Y-128045000D03*
X141020000Y-130585000D03*
X143560000Y-128045000D03*
X138480000Y-128045000D03*
X143560000Y-130585000D03*
X133400000Y-130585000D03*
X133400000Y-128045000D03*
X146100000Y-128045000D03*
X146100000Y-130585000D03*
X148640000Y-128045000D03*
X148640000Y-130585000D03*
X151180000Y-128045000D03*
X151180000Y-130585000D03*
X153720000Y-128045000D03*
X153720000Y-130585000D03*
X156260000Y-128045000D03*
X156260000Y-130585000D03*
X158800000Y-128045000D03*
X168960000Y-128045000D03*
X166420000Y-128045000D03*
X168960000Y-130585000D03*
X158800000Y-130585000D03*
X163880000Y-130585000D03*
X171500000Y-130585000D03*
X163880000Y-128045000D03*
X166420000Y-130585000D03*
X161340000Y-128045000D03*
X171500000Y-128045000D03*
X161340000Y-130585000D03*
X125780000Y-163600000D03*
X130860000Y-163600000D03*
X135940000Y-161060000D03*
X146100000Y-163600000D03*
X146100000Y-161060000D03*
X153720000Y-161060000D03*
X156260000Y-163600000D03*
X128320000Y-161060000D03*
X123240000Y-161060000D03*
X128320000Y-163600000D03*
X130860000Y-161060000D03*
X133400000Y-161060000D03*
X138480000Y-163600000D03*
X143560000Y-163600000D03*
X143560000Y-161060000D03*
X148640000Y-163600000D03*
D14*
X120700000Y-163600000D03*
D13*
X148640000Y-161060000D03*
X141020000Y-163600000D03*
X151180000Y-163600000D03*
X151180000Y-161060000D03*
X123240000Y-163600000D03*
X133400000Y-163600000D03*
X141020000Y-161060000D03*
X153720000Y-163600000D03*
X125780000Y-161060000D03*
X135940000Y-163600000D03*
X138480000Y-161060000D03*
X120700000Y-161060000D03*
X168960000Y-161060000D03*
X166420000Y-163600000D03*
X158800000Y-161060000D03*
X171500000Y-163600000D03*
X166420000Y-161060000D03*
X168960000Y-163600000D03*
X156260000Y-161060000D03*
X161340000Y-161060000D03*
X163880000Y-163600000D03*
X171500000Y-161060000D03*
X158800000Y-163600000D03*
X163880000Y-161060000D03*
X161340000Y-163600000D03*
D15*
X158460000Y-123000000D03*
D16*
X161000000Y-123000000D03*
D17*
X138500000Y-171000000D03*
X138500000Y-175500000D03*
X132000000Y-171000000D03*
X132000000Y-175500000D03*
D18*
X225300000Y-126000000D03*
X225300000Y-128500000D03*
X225300000Y-131000000D03*
X222000000Y-126000000D03*
X222000000Y-128500000D03*
D19*
X222000000Y-131000000D03*
D17*
X213500000Y-171000000D03*
X213500000Y-175500000D03*
X207000000Y-171000000D03*
X207000000Y-175500000D03*
X198500000Y-171000000D03*
X198500000Y-175500000D03*
X192000000Y-171000000D03*
X192000000Y-175500000D03*
X183500000Y-171000000D03*
X183500000Y-175500000D03*
X177000000Y-171000000D03*
X177000000Y-175500000D03*
X168500000Y-171000000D03*
X168500000Y-175500000D03*
X162000000Y-171000000D03*
X162000000Y-175500000D03*
X153500000Y-171000000D03*
X153500000Y-175500000D03*
X147000000Y-171000000D03*
X147000000Y-175500000D03*
D20*
X169712000Y-114830000D03*
X174212000Y-114830000D03*
D21*
X171962000Y-116830000D03*
D15*
X165460000Y-123000000D03*
D16*
X168000000Y-123000000D03*
D15*
X151460000Y-123000000D03*
D16*
X154000000Y-123000000D03*
D13*
X196596000Y-140716000D03*
X196596000Y-143256000D03*
X194056000Y-140716000D03*
X194056000Y-143256000D03*
X191516000Y-140716000D03*
X191516000Y-143256000D03*
X188976000Y-140716000D03*
X188976000Y-143256000D03*
X186436000Y-140716000D03*
X186436000Y-143256000D03*
X183896000Y-140716000D03*
X183896000Y-143256000D03*
X181356000Y-140716000D03*
X181356000Y-143256000D03*
X178816000Y-140716000D03*
X178816000Y-143256000D03*
X176276000Y-140716000D03*
D22*
X176276000Y-143256000D03*
D23*
X157950000Y-112398000D03*
D24*
X162950000Y-117404000D03*
X160450000Y-117404000D03*
X152950000Y-117404000D03*
X155450000Y-117404000D03*
D13*
X183756000Y-108756000D03*
D22*
X178676000Y-108756000D03*
D13*
X186296000Y-108756000D03*
X181216000Y-108756000D03*
D23*
X143950000Y-112398000D03*
D24*
X148950000Y-117404000D03*
X146450000Y-117404000D03*
X138950000Y-117404000D03*
X141450000Y-117404000D03*
D25*
X213000000Y-159380000D03*
X220620000Y-167000000D03*
X215540000Y-159380000D03*
X218080000Y-167000000D03*
X218080000Y-159380000D03*
X215540000Y-167000000D03*
X220620000Y-159380000D03*
D26*
X213000000Y-167000000D03*
G36*
G01*
X196003000Y-150688000D02*
X194903000Y-150688000D01*
G75*
G02*
X194653000Y-150438000I0J250000D01*
G01*
X194653000Y-147438000D01*
G75*
G02*
X194903000Y-147188000I250000J0D01*
G01*
X196003000Y-147188000D01*
G75*
G02*
X196253000Y-147438000I0J-250000D01*
G01*
X196253000Y-150438000D01*
G75*
G02*
X196003000Y-150688000I-250000J0D01*
G01*
G37*
G36*
G01*
X196003000Y-156088000D02*
X194903000Y-156088000D01*
G75*
G02*
X194653000Y-155838000I0J250000D01*
G01*
X194653000Y-152838000D01*
G75*
G02*
X194903000Y-152588000I250000J0D01*
G01*
X196003000Y-152588000D01*
G75*
G02*
X196253000Y-152838000I0J-250000D01*
G01*
X196253000Y-155838000D01*
G75*
G02*
X196003000Y-156088000I-250000J0D01*
G01*
G37*
G36*
G01*
X203877000Y-150688000D02*
X202777000Y-150688000D01*
G75*
G02*
X202527000Y-150438000I0J250000D01*
G01*
X202527000Y-147438000D01*
G75*
G02*
X202777000Y-147188000I250000J0D01*
G01*
X203877000Y-147188000D01*
G75*
G02*
X204127000Y-147438000I0J-250000D01*
G01*
X204127000Y-150438000D01*
G75*
G02*
X203877000Y-150688000I-250000J0D01*
G01*
G37*
G36*
G01*
X203877000Y-156088000D02*
X202777000Y-156088000D01*
G75*
G02*
X202527000Y-155838000I0J250000D01*
G01*
X202527000Y-152838000D01*
G75*
G02*
X202777000Y-152588000I250000J0D01*
G01*
X203877000Y-152588000D01*
G75*
G02*
X204127000Y-152838000I0J-250000D01*
G01*
X204127000Y-155838000D01*
G75*
G02*
X203877000Y-156088000I-250000J0D01*
G01*
G37*
G36*
G01*
X189774000Y-116307800D02*
X189774000Y-114408200D01*
G75*
G02*
X190024200Y-114158000I250200J0D01*
G01*
X191323800Y-114158000D01*
G75*
G02*
X191574000Y-114408200I0J-250200D01*
G01*
X191574000Y-116307800D01*
G75*
G02*
X191323800Y-116558000I-250200J0D01*
G01*
X190024200Y-116558000D01*
G75*
G02*
X189774000Y-116307800I0J250200D01*
G01*
G37*
G36*
G01*
X217174000Y-115108100D02*
X217174000Y-113207900D01*
G75*
G02*
X217423900Y-112958000I249900J0D01*
G01*
X218624100Y-112958000D01*
G75*
G02*
X218874000Y-113207900I0J-249900D01*
G01*
X218874000Y-115108100D01*
G75*
G02*
X218624100Y-115358000I-249900J0D01*
G01*
X217423900Y-115358000D01*
G75*
G02*
X217174000Y-115108100I0J249900D01*
G01*
G37*
D27*
X192674000Y-112058000D03*
X216874000Y-112058000D03*
G36*
G01*
X217664000Y-137308100D02*
X217664000Y-135807900D01*
G75*
G02*
X217913900Y-135558000I249900J0D01*
G01*
X218114100Y-135558000D01*
G75*
G02*
X218364000Y-135807900I0J-249900D01*
G01*
X218364000Y-137308100D01*
G75*
G02*
X218114100Y-137558000I-249900J0D01*
G01*
X217913900Y-137558000D01*
G75*
G02*
X217664000Y-137308100I0J249900D01*
G01*
G37*
G36*
G01*
X214124000Y-137307600D02*
X214124000Y-135808400D01*
G75*
G02*
X214374400Y-135558000I250400J0D01*
G01*
X214673600Y-135558000D01*
G75*
G02*
X214924000Y-135808400I0J-250400D01*
G01*
X214924000Y-137307600D01*
G75*
G02*
X214673600Y-137558000I-250400J0D01*
G01*
X214374400Y-137558000D01*
G75*
G02*
X214124000Y-137307600I0J250400D01*
G01*
G37*
G36*
G01*
X212424000Y-137307600D02*
X212424000Y-135808400D01*
G75*
G02*
X212674400Y-135558000I250400J0D01*
G01*
X212973600Y-135558000D01*
G75*
G02*
X213224000Y-135808400I0J-250400D01*
G01*
X213224000Y-137307600D01*
G75*
G02*
X212973600Y-137558000I-250400J0D01*
G01*
X212674400Y-137558000D01*
G75*
G02*
X212424000Y-137307600I0J250400D01*
G01*
G37*
G36*
G01*
X209994000Y-137307600D02*
X209994000Y-135808400D01*
G75*
G02*
X210244400Y-135558000I250400J0D01*
G01*
X210543600Y-135558000D01*
G75*
G02*
X210794000Y-135808400I0J-250400D01*
G01*
X210794000Y-137307600D01*
G75*
G02*
X210543600Y-137558000I-250400J0D01*
G01*
X210244400Y-137558000D01*
G75*
G02*
X209994000Y-137307600I0J250400D01*
G01*
G37*
G36*
G01*
X207494000Y-137307600D02*
X207494000Y-135808400D01*
G75*
G02*
X207744400Y-135558000I250400J0D01*
G01*
X208043600Y-135558000D01*
G75*
G02*
X208294000Y-135808400I0J-250400D01*
G01*
X208294000Y-137307600D01*
G75*
G02*
X208043600Y-137558000I-250400J0D01*
G01*
X207744400Y-137558000D01*
G75*
G02*
X207494000Y-137307600I0J250400D01*
G01*
G37*
G36*
G01*
X204994000Y-137307600D02*
X204994000Y-135808400D01*
G75*
G02*
X205244400Y-135558000I250400J0D01*
G01*
X205543600Y-135558000D01*
G75*
G02*
X205794000Y-135808400I0J-250400D01*
G01*
X205794000Y-137307600D01*
G75*
G02*
X205543600Y-137558000I-250400J0D01*
G01*
X205244400Y-137558000D01*
G75*
G02*
X204994000Y-137307600I0J250400D01*
G01*
G37*
G36*
G01*
X203294000Y-137307600D02*
X203294000Y-135808400D01*
G75*
G02*
X203544400Y-135558000I250400J0D01*
G01*
X203843600Y-135558000D01*
G75*
G02*
X204094000Y-135808400I0J-250400D01*
G01*
X204094000Y-137307600D01*
G75*
G02*
X203843600Y-137558000I-250400J0D01*
G01*
X203544400Y-137558000D01*
G75*
G02*
X203294000Y-137307600I0J250400D01*
G01*
G37*
G36*
G01*
X201694000Y-137307600D02*
X201694000Y-135808400D01*
G75*
G02*
X201944400Y-135558000I250400J0D01*
G01*
X202243600Y-135558000D01*
G75*
G02*
X202494000Y-135808400I0J-250400D01*
G01*
X202494000Y-137307600D01*
G75*
G02*
X202243600Y-137558000I-250400J0D01*
G01*
X201944400Y-137558000D01*
G75*
G02*
X201694000Y-137307600I0J250400D01*
G01*
G37*
G36*
G01*
X199994000Y-137307600D02*
X199994000Y-135808400D01*
G75*
G02*
X200244400Y-135558000I250400J0D01*
G01*
X200543600Y-135558000D01*
G75*
G02*
X200794000Y-135808400I0J-250400D01*
G01*
X200794000Y-137307600D01*
G75*
G02*
X200543600Y-137558000I-250400J0D01*
G01*
X200244400Y-137558000D01*
G75*
G02*
X199994000Y-137307600I0J250400D01*
G01*
G37*
G36*
G01*
X197494000Y-137307600D02*
X197494000Y-135808400D01*
G75*
G02*
X197744400Y-135558000I250400J0D01*
G01*
X198043600Y-135558000D01*
G75*
G02*
X198294000Y-135808400I0J-250400D01*
G01*
X198294000Y-137307600D01*
G75*
G02*
X198043600Y-137558000I-250400J0D01*
G01*
X197744400Y-137558000D01*
G75*
G02*
X197494000Y-137307600I0J250400D01*
G01*
G37*
G36*
G01*
X194994000Y-137307600D02*
X194994000Y-135808400D01*
G75*
G02*
X195244400Y-135558000I250400J0D01*
G01*
X195543600Y-135558000D01*
G75*
G02*
X195794000Y-135808400I0J-250400D01*
G01*
X195794000Y-137307600D01*
G75*
G02*
X195543600Y-137558000I-250400J0D01*
G01*
X195244400Y-137558000D01*
G75*
G02*
X194994000Y-137307600I0J250400D01*
G01*
G37*
D28*
X183120000Y-159500000D03*
X175500000Y-167120000D03*
X183120000Y-162040000D03*
X175500000Y-164580000D03*
X183120000Y-164580000D03*
X175500000Y-162040000D03*
X183120000Y-167120000D03*
D29*
X175500000Y-159500000D03*
D30*
X180340000Y-155702000D03*
X177840000Y-150702000D03*
X175340000Y-155702000D03*
D17*
X209400000Y-145000000D03*
D31*
X217000000Y-145000000D03*
D32*
X224697056Y-108302944D03*
X223000000Y-107600000D03*
X221302944Y-108302944D03*
X220600000Y-110000000D03*
X221302944Y-111697056D03*
X223000000Y-112400000D03*
X224697056Y-111697056D03*
X225400000Y-110000000D03*
D33*
X223000000Y-110000000D03*
D32*
X124197056Y-108302944D03*
X122500000Y-107600000D03*
X120802944Y-108302944D03*
X120100000Y-110000000D03*
X120802944Y-111697056D03*
X122500000Y-112400000D03*
X124197056Y-111697056D03*
X124900000Y-110000000D03*
D33*
X122500000Y-110000000D03*
D32*
X224697056Y-172302944D03*
X223000000Y-171600000D03*
X221302944Y-172302944D03*
X220600000Y-174000000D03*
X221302944Y-175697056D03*
X223000000Y-176400000D03*
X224697056Y-175697056D03*
X225400000Y-174000000D03*
D33*
X223000000Y-174000000D03*
D32*
X124197056Y-172302944D03*
X122500000Y-171600000D03*
X120802944Y-172302944D03*
X120100000Y-174000000D03*
X120802944Y-175697056D03*
X122500000Y-176400000D03*
X124197056Y-175697056D03*
X124900000Y-174000000D03*
D33*
X122500000Y-174000000D03*
D28*
X194120000Y-159500000D03*
X186500000Y-167120000D03*
X194120000Y-162040000D03*
X186500000Y-164580000D03*
X194120000Y-164580000D03*
X186500000Y-162040000D03*
X194120000Y-167120000D03*
D29*
X186500000Y-159500000D03*
D25*
X199500000Y-159380000D03*
X207120000Y-167000000D03*
X202040000Y-159380000D03*
X204580000Y-167000000D03*
X204580000Y-159380000D03*
X202040000Y-167000000D03*
X207120000Y-159380000D03*
D26*
X199500000Y-167000000D03*
D30*
X188722000Y-155702000D03*
X186222000Y-150702000D03*
X183722000Y-155702000D03*
G36*
G01*
X125425000Y-115138000D02*
X127175000Y-115138000D01*
G75*
G02*
X128050000Y-116013000I0J-875000D01*
G01*
X128050000Y-117763000D01*
G75*
G02*
X127175000Y-118638000I-875000J0D01*
G01*
X125425000Y-118638000D01*
G75*
G02*
X124550000Y-117763000I0J875000D01*
G01*
X124550000Y-116013000D01*
G75*
G02*
X125425000Y-115138000I875000J0D01*
G01*
G37*
G36*
G01*
X130000000Y-112388000D02*
X132000000Y-112388000D01*
G75*
G02*
X132750000Y-113138000I0J-750000D01*
G01*
X132750000Y-114638000D01*
G75*
G02*
X132000000Y-115388000I-750000J0D01*
G01*
X130000000Y-115388000D01*
G75*
G02*
X129250000Y-114638000I0J750000D01*
G01*
X129250000Y-113138000D01*
G75*
G02*
X130000000Y-112388000I750000J0D01*
G01*
G37*
D34*
X131000000Y-119888000D03*
D15*
X137460000Y-123000000D03*
D16*
X140000000Y-123000000D03*
D15*
X144460000Y-123000000D03*
D16*
X147000000Y-123000000D03*
M02*
