G04 #@! TF.GenerationSoftware,KiCad,Pcbnew,(5.1.6)-1*
G04 #@! TF.CreationDate,2021-01-09T08:19:16+02:00*
G04 #@! TF.ProjectId,MegaDuino_PM_1_3_Buzz,4d656761-4475-4696-9e6f-5f504d5f315f,rev?*
G04 #@! TF.SameCoordinates,Original*
G04 #@! TF.FileFunction,Legend,Top*
G04 #@! TF.FilePolarity,Positive*
%FSLAX46Y46*%
G04 Gerber Fmt 4.6, Leading zero omitted, Abs format (unit mm)*
G04 Created by KiCad (PCBNEW (5.1.6)-1) date 2021-01-09 08:19:16*
%MOMM*%
%LPD*%
G01*
G04 APERTURE LIST*
%ADD10C,0.150000*%
%ADD11C,0.200000*%
%ADD12C,0.120000*%
G04 APERTURE END LIST*
D10*
X193865523Y-146248380D02*
X193294095Y-146248380D01*
X193579809Y-146248380D02*
X193579809Y-145248380D01*
X193484571Y-145391238D01*
X193389333Y-145486476D01*
X193294095Y-145534095D01*
X194770285Y-145248380D02*
X194294095Y-145248380D01*
X194246476Y-145724571D01*
X194294095Y-145676952D01*
X194389333Y-145629333D01*
X194627428Y-145629333D01*
X194722666Y-145676952D01*
X194770285Y-145724571D01*
X194817904Y-145819809D01*
X194817904Y-146057904D01*
X194770285Y-146153142D01*
X194722666Y-146200761D01*
X194627428Y-146248380D01*
X194389333Y-146248380D01*
X194294095Y-146200761D01*
X194246476Y-146153142D01*
X196405523Y-146248380D02*
X195834095Y-146248380D01*
X196119809Y-146248380D02*
X196119809Y-145248380D01*
X196024571Y-145391238D01*
X195929333Y-145486476D01*
X195834095Y-145534095D01*
X196738857Y-145248380D02*
X197405523Y-145248380D01*
X196976952Y-146248380D01*
X185570761Y-119562190D02*
X185618380Y-119419333D01*
X185618380Y-119181238D01*
X185570761Y-119086000D01*
X185523142Y-119038380D01*
X185427904Y-118990761D01*
X185332666Y-118990761D01*
X185237428Y-119038380D01*
X185189809Y-119086000D01*
X185142190Y-119181238D01*
X185094571Y-119371714D01*
X185046952Y-119466952D01*
X184999333Y-119514571D01*
X184904095Y-119562190D01*
X184808857Y-119562190D01*
X184713619Y-119514571D01*
X184666000Y-119466952D01*
X184618380Y-119371714D01*
X184618380Y-119133619D01*
X184666000Y-118990761D01*
X185618380Y-118562190D02*
X184618380Y-118562190D01*
X184618380Y-118324095D01*
X184666000Y-118181238D01*
X184761238Y-118086000D01*
X184856476Y-118038380D01*
X185046952Y-117990761D01*
X185189809Y-117990761D01*
X185380285Y-118038380D01*
X185475523Y-118086000D01*
X185570761Y-118181238D01*
X185618380Y-118324095D01*
X185618380Y-118562190D01*
X185332666Y-117609809D02*
X185332666Y-117133619D01*
X185618380Y-117705047D02*
X184618380Y-117371714D01*
X185618380Y-117038380D01*
X185713619Y-116943142D02*
X185713619Y-116181238D01*
X185570761Y-115990761D02*
X185618380Y-115847904D01*
X185618380Y-115609809D01*
X185570761Y-115514571D01*
X185523142Y-115466952D01*
X185427904Y-115419333D01*
X185332666Y-115419333D01*
X185237428Y-115466952D01*
X185189809Y-115514571D01*
X185142190Y-115609809D01*
X185094571Y-115800285D01*
X185046952Y-115895523D01*
X184999333Y-115943142D01*
X184904095Y-115990761D01*
X184808857Y-115990761D01*
X184713619Y-115943142D01*
X184666000Y-115895523D01*
X184618380Y-115800285D01*
X184618380Y-115562190D01*
X184666000Y-115419333D01*
X185523142Y-114419333D02*
X185570761Y-114466952D01*
X185618380Y-114609809D01*
X185618380Y-114705047D01*
X185570761Y-114847904D01*
X185475523Y-114943142D01*
X185380285Y-114990761D01*
X185189809Y-115038380D01*
X185046952Y-115038380D01*
X184856476Y-114990761D01*
X184761238Y-114943142D01*
X184666000Y-114847904D01*
X184618380Y-114705047D01*
X184618380Y-114609809D01*
X184666000Y-114466952D01*
X184713619Y-114419333D01*
X185618380Y-113514571D02*
X185618380Y-113990761D01*
X184618380Y-113990761D01*
X183030761Y-119562190D02*
X183078380Y-119419333D01*
X183078380Y-119181238D01*
X183030761Y-119086000D01*
X182983142Y-119038380D01*
X182887904Y-118990761D01*
X182792666Y-118990761D01*
X182697428Y-119038380D01*
X182649809Y-119086000D01*
X182602190Y-119181238D01*
X182554571Y-119371714D01*
X182506952Y-119466952D01*
X182459333Y-119514571D01*
X182364095Y-119562190D01*
X182268857Y-119562190D01*
X182173619Y-119514571D01*
X182126000Y-119466952D01*
X182078380Y-119371714D01*
X182078380Y-119133619D01*
X182126000Y-118990761D01*
X182983142Y-117990761D02*
X183030761Y-118038380D01*
X183078380Y-118181238D01*
X183078380Y-118276476D01*
X183030761Y-118419333D01*
X182935523Y-118514571D01*
X182840285Y-118562190D01*
X182649809Y-118609809D01*
X182506952Y-118609809D01*
X182316476Y-118562190D01*
X182221238Y-118514571D01*
X182126000Y-118419333D01*
X182078380Y-118276476D01*
X182078380Y-118181238D01*
X182126000Y-118038380D01*
X182173619Y-117990761D01*
X183078380Y-117086000D02*
X183078380Y-117562190D01*
X182078380Y-117562190D01*
X183173619Y-116990761D02*
X183173619Y-116228857D01*
X183030761Y-116038380D02*
X183078380Y-115895523D01*
X183078380Y-115657428D01*
X183030761Y-115562190D01*
X182983142Y-115514571D01*
X182887904Y-115466952D01*
X182792666Y-115466952D01*
X182697428Y-115514571D01*
X182649809Y-115562190D01*
X182602190Y-115657428D01*
X182554571Y-115847904D01*
X182506952Y-115943142D01*
X182459333Y-115990761D01*
X182364095Y-116038380D01*
X182268857Y-116038380D01*
X182173619Y-115990761D01*
X182126000Y-115943142D01*
X182078380Y-115847904D01*
X182078380Y-115609809D01*
X182126000Y-115466952D01*
X183078380Y-115038380D02*
X182078380Y-115038380D01*
X182078380Y-114800285D01*
X182126000Y-114657428D01*
X182221238Y-114562190D01*
X182316476Y-114514571D01*
X182506952Y-114466952D01*
X182649809Y-114466952D01*
X182840285Y-114514571D01*
X182935523Y-114562190D01*
X183030761Y-114657428D01*
X183078380Y-114800285D01*
X183078380Y-115038380D01*
X182792666Y-114086000D02*
X182792666Y-113609809D01*
X183078380Y-114181238D02*
X182078380Y-113847904D01*
X183078380Y-113514571D01*
X179586000Y-118125619D02*
X179538380Y-118220857D01*
X179538380Y-118363714D01*
X179586000Y-118506571D01*
X179681238Y-118601809D01*
X179776476Y-118649428D01*
X179966952Y-118697047D01*
X180109809Y-118697047D01*
X180300285Y-118649428D01*
X180395523Y-118601809D01*
X180490761Y-118506571D01*
X180538380Y-118363714D01*
X180538380Y-118268476D01*
X180490761Y-118125619D01*
X180443142Y-118078000D01*
X180109809Y-118078000D01*
X180109809Y-118268476D01*
X180538380Y-117649428D02*
X179538380Y-117649428D01*
X180538380Y-117078000D01*
X179538380Y-117078000D01*
X180538380Y-116601809D02*
X179538380Y-116601809D01*
X179538380Y-116363714D01*
X179586000Y-116220857D01*
X179681238Y-116125619D01*
X179776476Y-116078000D01*
X179966952Y-116030380D01*
X180109809Y-116030380D01*
X180300285Y-116078000D01*
X180395523Y-116125619D01*
X180490761Y-116220857D01*
X180538380Y-116363714D01*
X180538380Y-116601809D01*
X180633619Y-115839904D02*
X180633619Y-115078000D01*
X179538380Y-114363714D02*
X179538380Y-114839904D01*
X180014571Y-114887523D01*
X179966952Y-114839904D01*
X179919333Y-114744666D01*
X179919333Y-114506571D01*
X179966952Y-114411333D01*
X180014571Y-114363714D01*
X180109809Y-114316095D01*
X180347904Y-114316095D01*
X180443142Y-114363714D01*
X180490761Y-114411333D01*
X180538380Y-114506571D01*
X180538380Y-114744666D01*
X180490761Y-114839904D01*
X180443142Y-114887523D01*
X179538380Y-114030380D02*
X180538380Y-113697047D01*
X179538380Y-113363714D01*
X176998380Y-118665333D02*
X176998380Y-119141523D01*
X177474571Y-119189142D01*
X177426952Y-119141523D01*
X177379333Y-119046285D01*
X177379333Y-118808190D01*
X177426952Y-118712952D01*
X177474571Y-118665333D01*
X177569809Y-118617714D01*
X177807904Y-118617714D01*
X177903142Y-118665333D01*
X177950761Y-118712952D01*
X177998380Y-118808190D01*
X177998380Y-119046285D01*
X177950761Y-119141523D01*
X177903142Y-119189142D01*
X176998380Y-118332000D02*
X177998380Y-117998666D01*
X176998380Y-117665333D01*
X177617428Y-117332000D02*
X177617428Y-116570095D01*
X177046000Y-115570095D02*
X176998380Y-115665333D01*
X176998380Y-115808190D01*
X177046000Y-115951047D01*
X177141238Y-116046285D01*
X177236476Y-116093904D01*
X177426952Y-116141523D01*
X177569809Y-116141523D01*
X177760285Y-116093904D01*
X177855523Y-116046285D01*
X177950761Y-115951047D01*
X177998380Y-115808190D01*
X177998380Y-115712952D01*
X177950761Y-115570095D01*
X177903142Y-115522476D01*
X177569809Y-115522476D01*
X177569809Y-115712952D01*
X177998380Y-115093904D02*
X176998380Y-115093904D01*
X177998380Y-114522476D01*
X176998380Y-114522476D01*
X177998380Y-114046285D02*
X176998380Y-114046285D01*
X176998380Y-113808190D01*
X177046000Y-113665333D01*
X177141238Y-113570095D01*
X177236476Y-113522476D01*
X177426952Y-113474857D01*
X177569809Y-113474857D01*
X177760285Y-113522476D01*
X177855523Y-113570095D01*
X177950761Y-113665333D01*
X177998380Y-113808190D01*
X177998380Y-114046285D01*
X186372476Y-106465714D02*
X186372476Y-107132380D01*
X186134380Y-106084761D02*
X185896285Y-106799047D01*
X186515333Y-106799047D01*
X183308666Y-106132380D02*
X183927714Y-106132380D01*
X183594380Y-106513333D01*
X183737238Y-106513333D01*
X183832476Y-106560952D01*
X183880095Y-106608571D01*
X183927714Y-106703809D01*
X183927714Y-106941904D01*
X183880095Y-107037142D01*
X183832476Y-107084761D01*
X183737238Y-107132380D01*
X183451523Y-107132380D01*
X183356285Y-107084761D01*
X183308666Y-107037142D01*
X180816285Y-106227619D02*
X180863904Y-106180000D01*
X180959142Y-106132380D01*
X181197238Y-106132380D01*
X181292476Y-106180000D01*
X181340095Y-106227619D01*
X181387714Y-106322857D01*
X181387714Y-106418095D01*
X181340095Y-106560952D01*
X180768666Y-107132380D01*
X181387714Y-107132380D01*
X178847714Y-107132380D02*
X178276285Y-107132380D01*
X178562000Y-107132380D02*
X178562000Y-106132380D01*
X178466761Y-106275238D01*
X178371523Y-106370476D01*
X178276285Y-106418095D01*
X191325523Y-146248380D02*
X190754095Y-146248380D01*
X191039809Y-146248380D02*
X191039809Y-145248380D01*
X190944571Y-145391238D01*
X190849333Y-145486476D01*
X190754095Y-145534095D01*
X191658857Y-145248380D02*
X192277904Y-145248380D01*
X191944571Y-145629333D01*
X192087428Y-145629333D01*
X192182666Y-145676952D01*
X192230285Y-145724571D01*
X192277904Y-145819809D01*
X192277904Y-146057904D01*
X192230285Y-146153142D01*
X192182666Y-146200761D01*
X192087428Y-146248380D01*
X191801714Y-146248380D01*
X191706476Y-146200761D01*
X191658857Y-146153142D01*
X188785523Y-146248380D02*
X188214095Y-146248380D01*
X188499809Y-146248380D02*
X188499809Y-145248380D01*
X188404571Y-145391238D01*
X188309333Y-145486476D01*
X188214095Y-145534095D01*
X189737904Y-146248380D02*
X189166476Y-146248380D01*
X189452190Y-146248380D02*
X189452190Y-145248380D01*
X189356952Y-145391238D01*
X189261714Y-145486476D01*
X189166476Y-145534095D01*
X186245523Y-146248380D02*
X186436000Y-146248380D01*
X186531238Y-146200761D01*
X186578857Y-146153142D01*
X186674095Y-146010285D01*
X186721714Y-145819809D01*
X186721714Y-145438857D01*
X186674095Y-145343619D01*
X186626476Y-145296000D01*
X186531238Y-145248380D01*
X186340761Y-145248380D01*
X186245523Y-145296000D01*
X186197904Y-145343619D01*
X186150285Y-145438857D01*
X186150285Y-145676952D01*
X186197904Y-145772190D01*
X186245523Y-145819809D01*
X186340761Y-145867428D01*
X186531238Y-145867428D01*
X186626476Y-145819809D01*
X186674095Y-145772190D01*
X186721714Y-145676952D01*
X183562666Y-145248380D02*
X184229333Y-145248380D01*
X183800761Y-146248380D01*
X181594095Y-145248380D02*
X181117904Y-145248380D01*
X181070285Y-145724571D01*
X181117904Y-145676952D01*
X181213142Y-145629333D01*
X181451238Y-145629333D01*
X181546476Y-145676952D01*
X181594095Y-145724571D01*
X181641714Y-145819809D01*
X181641714Y-146057904D01*
X181594095Y-146153142D01*
X181546476Y-146200761D01*
X181451238Y-146248380D01*
X181213142Y-146248380D01*
X181117904Y-146200761D01*
X181070285Y-146153142D01*
X178482666Y-145248380D02*
X179101714Y-145248380D01*
X178768380Y-145629333D01*
X178911238Y-145629333D01*
X179006476Y-145676952D01*
X179054095Y-145724571D01*
X179101714Y-145819809D01*
X179101714Y-146057904D01*
X179054095Y-146153142D01*
X179006476Y-146200761D01*
X178911238Y-146248380D01*
X178625523Y-146248380D01*
X178530285Y-146200761D01*
X178482666Y-146153142D01*
X176561714Y-146248380D02*
X175990285Y-146248380D01*
X176276000Y-146248380D02*
X176276000Y-145248380D01*
X176180761Y-145391238D01*
X176085523Y-145486476D01*
X175990285Y-145534095D01*
X226100000Y-137500000D02*
X226100000Y-135200000D01*
X226100000Y-143800000D02*
X226100000Y-141600000D01*
X221500000Y-143800000D02*
X221500000Y-135200000D01*
X226100000Y-149500000D02*
X226100000Y-147200000D01*
X226100000Y-155800000D02*
X226100000Y-153600000D01*
X221500000Y-155800000D02*
X221500000Y-147200000D01*
D11*
X172950000Y-165000000D02*
X119200000Y-165000000D01*
X119200000Y-165000000D02*
X119200000Y-126650000D01*
X172950000Y-165000000D02*
X172950000Y-126650000D01*
X172950000Y-126650000D02*
X119200000Y-126650000D01*
D12*
X161290000Y-121920000D02*
X161290000Y-121764000D01*
X161290000Y-124236000D02*
X161290000Y-124080000D01*
X158688870Y-121920163D02*
G75*
G02*
X160770961Y-121920000I1041130J-1079837D01*
G01*
X158688870Y-124079837D02*
G75*
G03*
X160770961Y-124080000I1041130J1079837D01*
G01*
X158057665Y-121921392D02*
G75*
G02*
X161290000Y-121764484I1672335J-1078608D01*
G01*
X158057665Y-124078608D02*
G75*
G03*
X161290000Y-124235516I1672335J1078608D01*
G01*
X138750000Y-174000000D02*
X138750000Y-172500000D01*
X137500000Y-170000000D02*
X133000000Y-170000000D01*
X131750000Y-172500000D02*
X131750000Y-174000000D01*
X133000000Y-176500000D02*
X137500000Y-176500000D01*
X221550000Y-131900000D02*
X221550000Y-133100000D01*
X221550000Y-133100000D02*
X225750000Y-133100000D01*
X225750000Y-133100000D02*
X225750000Y-131900000D01*
X221550000Y-125100000D02*
X221550000Y-123900000D01*
X221550000Y-123900000D02*
X225750000Y-123900000D01*
X225750000Y-123900000D02*
X225750000Y-125100000D01*
X221250000Y-132200000D02*
X221250000Y-133400000D01*
X221250000Y-133400000D02*
X222450000Y-133400000D01*
X213750000Y-174000000D02*
X213750000Y-172500000D01*
X212500000Y-170000000D02*
X208000000Y-170000000D01*
X206750000Y-172500000D02*
X206750000Y-174000000D01*
X208000000Y-176500000D02*
X212500000Y-176500000D01*
X198750000Y-174000000D02*
X198750000Y-172500000D01*
X197500000Y-170000000D02*
X193000000Y-170000000D01*
X191750000Y-172500000D02*
X191750000Y-174000000D01*
X193000000Y-176500000D02*
X197500000Y-176500000D01*
X183750000Y-174000000D02*
X183750000Y-172500000D01*
X182500000Y-170000000D02*
X178000000Y-170000000D01*
X176750000Y-172500000D02*
X176750000Y-174000000D01*
X178000000Y-176500000D02*
X182500000Y-176500000D01*
X168750000Y-174000000D02*
X168750000Y-172500000D01*
X167500000Y-170000000D02*
X163000000Y-170000000D01*
X161750000Y-172500000D02*
X161750000Y-174000000D01*
X163000000Y-176500000D02*
X167500000Y-176500000D01*
X153750000Y-174000000D02*
X153750000Y-172500000D01*
X152500000Y-170000000D02*
X148000000Y-170000000D01*
X146750000Y-172500000D02*
X146750000Y-174000000D01*
X148000000Y-176500000D02*
X152500000Y-176500000D01*
X169712000Y-116830000D02*
X169712000Y-108330000D01*
X169712000Y-108330000D02*
X174262000Y-108330000D01*
X174262000Y-108330000D02*
X174212000Y-116830000D01*
X174212000Y-116830000D02*
X169712000Y-116830000D01*
X170212000Y-108330000D02*
X170212000Y-105830000D01*
X170212000Y-105830000D02*
X173712000Y-105830000D01*
X173712000Y-105830000D02*
X173712000Y-108330000D01*
X168290000Y-121920000D02*
X168290000Y-121764000D01*
X168290000Y-124236000D02*
X168290000Y-124080000D01*
X165688870Y-121920163D02*
G75*
G02*
X167770961Y-121920000I1041130J-1079837D01*
G01*
X165688870Y-124079837D02*
G75*
G03*
X167770961Y-124080000I1041130J1079837D01*
G01*
X165057665Y-121921392D02*
G75*
G02*
X168290000Y-121764484I1672335J-1078608D01*
G01*
X165057665Y-124078608D02*
G75*
G03*
X168290000Y-124235516I1672335J1078608D01*
G01*
X154290000Y-121920000D02*
X154290000Y-121764000D01*
X154290000Y-124236000D02*
X154290000Y-124080000D01*
X151688870Y-121920163D02*
G75*
G02*
X153770961Y-121920000I1041130J-1079837D01*
G01*
X151688870Y-124079837D02*
G75*
G03*
X153770961Y-124080000I1041130J1079837D01*
G01*
X151057665Y-121921392D02*
G75*
G02*
X154290000Y-121764484I1672335J-1078608D01*
G01*
X151057665Y-124078608D02*
G75*
G03*
X154290000Y-124235516I1672335J1078608D01*
G01*
X174946000Y-144586000D02*
X174946000Y-143256000D01*
X176276000Y-144586000D02*
X174946000Y-144586000D01*
X174946000Y-141986000D02*
X174946000Y-139386000D01*
X177546000Y-141986000D02*
X174946000Y-141986000D01*
X177546000Y-144586000D02*
X177546000Y-141986000D01*
X174946000Y-139386000D02*
X197926000Y-139386000D01*
X177546000Y-144586000D02*
X197926000Y-144586000D01*
X197926000Y-144586000D02*
X197926000Y-139386000D01*
D10*
X152870000Y-107898000D02*
X151854000Y-107898000D01*
X152870000Y-107390000D02*
X163030000Y-107390000D01*
X151854000Y-120090000D02*
X151854000Y-107898000D01*
X161760000Y-108914000D02*
X161760000Y-112470000D01*
X156172000Y-112470000D02*
X154140000Y-112470000D01*
X160490000Y-107390000D02*
X160490000Y-105866000D01*
X155410000Y-105866000D02*
X155410000Y-107390000D01*
X164046000Y-107898000D02*
X163030000Y-107898000D01*
X155410000Y-106628000D02*
X160490000Y-106628000D01*
X164046000Y-120090000D02*
X151854000Y-120090000D01*
X163030000Y-107390000D02*
X163030000Y-107898000D01*
X154140000Y-112470000D02*
X154140000Y-108914000D01*
X161760000Y-112470000D02*
X159728000Y-112470000D01*
X152870000Y-107644000D02*
X152870000Y-107390000D01*
X164046000Y-107898000D02*
X164046000Y-120090000D01*
X154140000Y-108914000D02*
X161760000Y-108914000D01*
X155410000Y-105866000D02*
X160490000Y-105866000D01*
X152870000Y-107898000D02*
X152870000Y-107644000D01*
D12*
X184136000Y-118856000D02*
X184136000Y-112856000D01*
X181596000Y-109798929D02*
X181596000Y-110196000D01*
X181596000Y-118856000D02*
X181596000Y-112856000D01*
X180836000Y-118856000D02*
X181596000Y-118856000D01*
X180836000Y-112856000D02*
X180836000Y-118856000D01*
X186676000Y-109798929D02*
X186676000Y-110196000D01*
X182486000Y-110196000D02*
X182486000Y-112856000D01*
X179946000Y-110196000D02*
X179946000Y-112856000D01*
X179056000Y-109866000D02*
X179056000Y-110196000D01*
X183376000Y-109798929D02*
X183376000Y-110196000D01*
X178956000Y-112856000D02*
X178956000Y-118856000D01*
X180836000Y-109798929D02*
X180836000Y-110196000D01*
X185916000Y-109798929D02*
X185916000Y-110196000D01*
X178296000Y-109866000D02*
X178296000Y-110196000D01*
X178836000Y-112856000D02*
X178836000Y-118856000D01*
X178716000Y-112856000D02*
X178716000Y-118856000D01*
X178596000Y-112856000D02*
X178596000Y-118856000D01*
X178476000Y-112856000D02*
X178476000Y-118856000D01*
X178356000Y-112856000D02*
X178356000Y-118856000D01*
X178676000Y-107486000D02*
X177406000Y-107486000D01*
X177406000Y-107486000D02*
X177406000Y-108756000D01*
X186676000Y-118856000D02*
X186676000Y-112856000D01*
X185916000Y-118856000D02*
X186676000Y-118856000D01*
X185916000Y-112856000D02*
X185916000Y-118856000D01*
X185026000Y-110196000D02*
X185026000Y-112856000D01*
X184136000Y-109798929D02*
X184136000Y-110196000D01*
X183376000Y-118856000D02*
X184136000Y-118856000D01*
X183376000Y-112856000D02*
X183376000Y-118856000D01*
X187626000Y-112856000D02*
X177346000Y-112856000D01*
X187626000Y-110196000D02*
X187626000Y-112856000D01*
X178296000Y-112856000D02*
X178296000Y-118856000D01*
X178296000Y-118856000D02*
X179056000Y-118856000D01*
X177346000Y-112856000D02*
X177346000Y-110196000D01*
X177346000Y-110196000D02*
X187626000Y-110196000D01*
X179056000Y-118856000D02*
X179056000Y-112856000D01*
D10*
X138870000Y-107898000D02*
X137854000Y-107898000D01*
X138870000Y-107390000D02*
X149030000Y-107390000D01*
X137854000Y-120090000D02*
X137854000Y-107898000D01*
X147760000Y-108914000D02*
X147760000Y-112470000D01*
X142172000Y-112470000D02*
X140140000Y-112470000D01*
X146490000Y-107390000D02*
X146490000Y-105866000D01*
X141410000Y-105866000D02*
X141410000Y-107390000D01*
X150046000Y-107898000D02*
X149030000Y-107898000D01*
X141410000Y-106628000D02*
X146490000Y-106628000D01*
X150046000Y-120090000D02*
X137854000Y-120090000D01*
X149030000Y-107390000D02*
X149030000Y-107898000D01*
X140140000Y-112470000D02*
X140140000Y-108914000D01*
X147760000Y-112470000D02*
X145728000Y-112470000D01*
X138870000Y-107644000D02*
X138870000Y-107390000D01*
X150046000Y-107898000D02*
X150046000Y-120090000D01*
X140140000Y-108914000D02*
X147760000Y-108914000D01*
X141410000Y-105866000D02*
X146490000Y-105866000D01*
X138870000Y-107898000D02*
X138870000Y-107644000D01*
D12*
X219985000Y-163866667D02*
X221255000Y-163866667D01*
X221185000Y-165220000D02*
X221185000Y-163866667D01*
X221065000Y-165220000D02*
X221065000Y-163866667D01*
X220945000Y-165220000D02*
X220945000Y-163866667D01*
X220825000Y-165220000D02*
X220825000Y-163866667D01*
X220705000Y-165220000D02*
X220705000Y-163866667D01*
X220585000Y-165220000D02*
X220585000Y-163866667D01*
X220465000Y-165220000D02*
X220465000Y-163866667D01*
X220345000Y-165220000D02*
X220345000Y-163866667D01*
X220225000Y-165220000D02*
X220225000Y-163866667D01*
X220105000Y-165220000D02*
X220105000Y-163866667D01*
X219985000Y-161160000D02*
X219985000Y-165220000D01*
X221255000Y-161160000D02*
X219985000Y-161160000D01*
X221255000Y-165220000D02*
X221255000Y-161160000D01*
X219985000Y-165220000D02*
X221255000Y-165220000D01*
X217445000Y-163866667D02*
X218715000Y-163866667D01*
X218645000Y-165220000D02*
X218645000Y-163866667D01*
X218525000Y-165220000D02*
X218525000Y-163866667D01*
X218405000Y-165220000D02*
X218405000Y-163866667D01*
X218285000Y-165220000D02*
X218285000Y-163866667D01*
X218165000Y-165220000D02*
X218165000Y-163866667D01*
X218045000Y-165220000D02*
X218045000Y-163866667D01*
X217925000Y-165220000D02*
X217925000Y-163866667D01*
X217805000Y-165220000D02*
X217805000Y-163866667D01*
X217685000Y-165220000D02*
X217685000Y-163866667D01*
X217565000Y-165220000D02*
X217565000Y-163866667D01*
X217445000Y-161160000D02*
X217445000Y-165220000D01*
X218715000Y-161160000D02*
X217445000Y-161160000D01*
X218715000Y-165220000D02*
X218715000Y-161160000D01*
X217445000Y-165220000D02*
X218715000Y-165220000D01*
X214905000Y-163866667D02*
X216175000Y-163866667D01*
X216105000Y-165220000D02*
X216105000Y-163866667D01*
X215985000Y-165220000D02*
X215985000Y-163866667D01*
X215865000Y-165220000D02*
X215865000Y-163866667D01*
X215745000Y-165220000D02*
X215745000Y-163866667D01*
X215625000Y-165220000D02*
X215625000Y-163866667D01*
X215505000Y-165220000D02*
X215505000Y-163866667D01*
X215385000Y-165220000D02*
X215385000Y-163866667D01*
X215265000Y-165220000D02*
X215265000Y-163866667D01*
X215145000Y-165220000D02*
X215145000Y-163866667D01*
X215025000Y-165220000D02*
X215025000Y-163866667D01*
X214905000Y-161160000D02*
X214905000Y-165220000D01*
X216175000Y-161160000D02*
X214905000Y-161160000D01*
X216175000Y-165220000D02*
X216175000Y-161160000D01*
X214905000Y-165220000D02*
X216175000Y-165220000D01*
X212365000Y-163866667D02*
X213635000Y-163866667D01*
X213565000Y-165220000D02*
X213565000Y-163866667D01*
X213445000Y-165220000D02*
X213445000Y-163866667D01*
X213325000Y-165220000D02*
X213325000Y-163866667D01*
X213205000Y-165220000D02*
X213205000Y-163866667D01*
X213085000Y-165220000D02*
X213085000Y-163866667D01*
X212965000Y-165220000D02*
X212965000Y-163866667D01*
X212845000Y-165220000D02*
X212845000Y-163866667D01*
X212725000Y-165220000D02*
X212725000Y-163866667D01*
X212605000Y-165220000D02*
X212605000Y-163866667D01*
X212485000Y-165220000D02*
X212485000Y-163866667D01*
X212365000Y-161160000D02*
X212365000Y-165220000D01*
X213635000Y-161160000D02*
X212365000Y-161160000D01*
X213635000Y-165220000D02*
X213635000Y-161160000D01*
X212365000Y-165220000D02*
X213635000Y-165220000D01*
X210340000Y-168380000D02*
X211723000Y-168380000D01*
X210340000Y-168380000D02*
X210340000Y-166996000D01*
X210580000Y-158240000D02*
X223040000Y-158240000D01*
X210580000Y-168140000D02*
X223040000Y-168140000D01*
X223040000Y-168140000D02*
X223040000Y-158240000D01*
X210580000Y-168140000D02*
X210580000Y-158240000D01*
X193211750Y-155681750D02*
X193999250Y-155681750D01*
X193605500Y-156075500D02*
X193605500Y-155288000D01*
X197798563Y-155048000D02*
X198863000Y-153983563D01*
X193107437Y-155048000D02*
X192043000Y-153983563D01*
X193107437Y-155048000D02*
X194393000Y-155048000D01*
X197798563Y-155048000D02*
X196513000Y-155048000D01*
X198863000Y-153983563D02*
X198863000Y-148228000D01*
X192043000Y-153983563D02*
X192043000Y-148228000D01*
X192043000Y-148228000D02*
X194393000Y-148228000D01*
X198863000Y-148228000D02*
X196513000Y-148228000D01*
X201085750Y-155681750D02*
X201873250Y-155681750D01*
X201479500Y-156075500D02*
X201479500Y-155288000D01*
X205672563Y-155048000D02*
X206737000Y-153983563D01*
X200981437Y-155048000D02*
X199917000Y-153983563D01*
X200981437Y-155048000D02*
X202267000Y-155048000D01*
X205672563Y-155048000D02*
X204387000Y-155048000D01*
X206737000Y-153983563D02*
X206737000Y-148228000D01*
X199917000Y-153983563D02*
X199917000Y-148228000D01*
X199917000Y-148228000D02*
X202267000Y-148228000D01*
X206737000Y-148228000D02*
X204387000Y-148228000D01*
X189954000Y-126038000D02*
X189754000Y-126038000D01*
X215104000Y-135678000D02*
X217434000Y-135678000D01*
X213404000Y-135678000D02*
X213944000Y-135678000D01*
X210974000Y-135678000D02*
X212244000Y-135678000D01*
X208474000Y-135678000D02*
X209814000Y-135678000D01*
X205974000Y-135678000D02*
X207314000Y-135678000D01*
X204274000Y-135678000D02*
X204814000Y-135678000D01*
X202674000Y-135678000D02*
X203114000Y-135678000D01*
X200974000Y-135678000D02*
X201514000Y-135678000D01*
X198474000Y-135678000D02*
X199814000Y-135678000D01*
X195974000Y-135678000D02*
X197314000Y-135678000D01*
X189754000Y-135678000D02*
X194814000Y-135678000D01*
X218594000Y-135678000D02*
X218694000Y-135678000D01*
X189954000Y-126038000D02*
X189954000Y-116738000D01*
X189754000Y-126038000D02*
X189754000Y-135678000D01*
X196234000Y-120938000D02*
X194294000Y-118998000D01*
X213314000Y-120938000D02*
X215254000Y-118998000D01*
X213314000Y-120938000D02*
X196234000Y-120938000D01*
X189954000Y-113978000D02*
X189954000Y-106438000D01*
X194294000Y-107098000D02*
X194294000Y-118998000D01*
X194294000Y-107098000D02*
X193634000Y-106438000D01*
X189954000Y-106438000D02*
X193634000Y-106438000D01*
X218694000Y-135678000D02*
X218694000Y-115538000D01*
X218694000Y-112778000D02*
X218694000Y-106438000D01*
X215254000Y-107098000D02*
X215254000Y-118998000D01*
X215254000Y-107098000D02*
X215914000Y-106438000D01*
X218694000Y-106438000D02*
X215914000Y-106438000D01*
X181560000Y-158170000D02*
X180310000Y-158170000D01*
X181560000Y-168450000D02*
X181560000Y-158170000D01*
X177060000Y-168450000D02*
X181560000Y-168450000D01*
X177060000Y-158170000D02*
X177060000Y-168450000D01*
X178310000Y-158170000D02*
X177060000Y-158170000D01*
X180310000Y-158170000D02*
G75*
G02*
X178310000Y-158170000I-1000000J0D01*
G01*
X181110075Y-153145137D02*
G75*
G02*
X180754000Y-154687000I-3270075J-56863D01*
G01*
X179325202Y-156115387D02*
G75*
G02*
X176356000Y-156116000I-1485202J2913387D01*
G01*
X174926171Y-154685968D02*
G75*
G02*
X176776000Y-150110000I2913829J1483968D01*
G01*
X178904608Y-150110154D02*
G75*
G02*
X181110000Y-153202000I-1064608J-3091846D01*
G01*
X219300000Y-145000000D02*
G75*
G03*
X219300000Y-145000000I-6100000J0D01*
G01*
X192560000Y-158170000D02*
X191310000Y-158170000D01*
X192560000Y-168450000D02*
X192560000Y-158170000D01*
X188060000Y-168450000D02*
X192560000Y-168450000D01*
X188060000Y-158170000D02*
X188060000Y-168450000D01*
X189310000Y-158170000D02*
X188060000Y-158170000D01*
X191310000Y-158170000D02*
G75*
G02*
X189310000Y-158170000I-1000000J0D01*
G01*
X206485000Y-163866667D02*
X207755000Y-163866667D01*
X207685000Y-165220000D02*
X207685000Y-163866667D01*
X207565000Y-165220000D02*
X207565000Y-163866667D01*
X207445000Y-165220000D02*
X207445000Y-163866667D01*
X207325000Y-165220000D02*
X207325000Y-163866667D01*
X207205000Y-165220000D02*
X207205000Y-163866667D01*
X207085000Y-165220000D02*
X207085000Y-163866667D01*
X206965000Y-165220000D02*
X206965000Y-163866667D01*
X206845000Y-165220000D02*
X206845000Y-163866667D01*
X206725000Y-165220000D02*
X206725000Y-163866667D01*
X206605000Y-165220000D02*
X206605000Y-163866667D01*
X206485000Y-161160000D02*
X206485000Y-165220000D01*
X207755000Y-161160000D02*
X206485000Y-161160000D01*
X207755000Y-165220000D02*
X207755000Y-161160000D01*
X206485000Y-165220000D02*
X207755000Y-165220000D01*
X203945000Y-163866667D02*
X205215000Y-163866667D01*
X205145000Y-165220000D02*
X205145000Y-163866667D01*
X205025000Y-165220000D02*
X205025000Y-163866667D01*
X204905000Y-165220000D02*
X204905000Y-163866667D01*
X204785000Y-165220000D02*
X204785000Y-163866667D01*
X204665000Y-165220000D02*
X204665000Y-163866667D01*
X204545000Y-165220000D02*
X204545000Y-163866667D01*
X204425000Y-165220000D02*
X204425000Y-163866667D01*
X204305000Y-165220000D02*
X204305000Y-163866667D01*
X204185000Y-165220000D02*
X204185000Y-163866667D01*
X204065000Y-165220000D02*
X204065000Y-163866667D01*
X203945000Y-161160000D02*
X203945000Y-165220000D01*
X205215000Y-161160000D02*
X203945000Y-161160000D01*
X205215000Y-165220000D02*
X205215000Y-161160000D01*
X203945000Y-165220000D02*
X205215000Y-165220000D01*
X201405000Y-163866667D02*
X202675000Y-163866667D01*
X202605000Y-165220000D02*
X202605000Y-163866667D01*
X202485000Y-165220000D02*
X202485000Y-163866667D01*
X202365000Y-165220000D02*
X202365000Y-163866667D01*
X202245000Y-165220000D02*
X202245000Y-163866667D01*
X202125000Y-165220000D02*
X202125000Y-163866667D01*
X202005000Y-165220000D02*
X202005000Y-163866667D01*
X201885000Y-165220000D02*
X201885000Y-163866667D01*
X201765000Y-165220000D02*
X201765000Y-163866667D01*
X201645000Y-165220000D02*
X201645000Y-163866667D01*
X201525000Y-165220000D02*
X201525000Y-163866667D01*
X201405000Y-161160000D02*
X201405000Y-165220000D01*
X202675000Y-161160000D02*
X201405000Y-161160000D01*
X202675000Y-165220000D02*
X202675000Y-161160000D01*
X201405000Y-165220000D02*
X202675000Y-165220000D01*
X198865000Y-163866667D02*
X200135000Y-163866667D01*
X200065000Y-165220000D02*
X200065000Y-163866667D01*
X199945000Y-165220000D02*
X199945000Y-163866667D01*
X199825000Y-165220000D02*
X199825000Y-163866667D01*
X199705000Y-165220000D02*
X199705000Y-163866667D01*
X199585000Y-165220000D02*
X199585000Y-163866667D01*
X199465000Y-165220000D02*
X199465000Y-163866667D01*
X199345000Y-165220000D02*
X199345000Y-163866667D01*
X199225000Y-165220000D02*
X199225000Y-163866667D01*
X199105000Y-165220000D02*
X199105000Y-163866667D01*
X198985000Y-165220000D02*
X198985000Y-163866667D01*
X198865000Y-161160000D02*
X198865000Y-165220000D01*
X200135000Y-161160000D02*
X198865000Y-161160000D01*
X200135000Y-165220000D02*
X200135000Y-161160000D01*
X198865000Y-165220000D02*
X200135000Y-165220000D01*
X196840000Y-168380000D02*
X198223000Y-168380000D01*
X196840000Y-168380000D02*
X196840000Y-166996000D01*
X197080000Y-158240000D02*
X209540000Y-158240000D01*
X197080000Y-168140000D02*
X209540000Y-168140000D01*
X209540000Y-168140000D02*
X209540000Y-158240000D01*
X197080000Y-168140000D02*
X197080000Y-158240000D01*
X189492075Y-153145137D02*
G75*
G02*
X189136000Y-154687000I-3270075J-56863D01*
G01*
X187707202Y-156115387D02*
G75*
G02*
X184738000Y-156116000I-1485202J2913387D01*
G01*
X183308171Y-154685968D02*
G75*
G02*
X185158000Y-150110000I2913829J1483968D01*
G01*
X187286608Y-150110154D02*
G75*
G02*
X189492000Y-153202000I-1064608J-3091846D01*
G01*
X135600000Y-120788000D02*
X133000000Y-120788000D01*
X135600000Y-106088000D02*
X135600000Y-120788000D01*
X126400000Y-120788000D02*
X126400000Y-118888000D01*
X129100000Y-120788000D02*
X126400000Y-120788000D01*
X126400000Y-106088000D02*
X135600000Y-106088000D01*
X126400000Y-114888000D02*
X126400000Y-106088000D01*
X135800000Y-119938000D02*
X135800000Y-120988000D01*
X134750000Y-120988000D02*
X135800000Y-120988000D01*
X140290000Y-121920000D02*
X140290000Y-121764000D01*
X140290000Y-124236000D02*
X140290000Y-124080000D01*
X137688870Y-121920163D02*
G75*
G02*
X139770961Y-121920000I1041130J-1079837D01*
G01*
X137688870Y-124079837D02*
G75*
G03*
X139770961Y-124080000I1041130J1079837D01*
G01*
X137057665Y-121921392D02*
G75*
G02*
X140290000Y-121764484I1672335J-1078608D01*
G01*
X137057665Y-124078608D02*
G75*
G03*
X140290000Y-124235516I1672335J1078608D01*
G01*
X147290000Y-121920000D02*
X147290000Y-121764000D01*
X147290000Y-124236000D02*
X147290000Y-124080000D01*
X144688870Y-121920163D02*
G75*
G02*
X146770961Y-121920000I1041130J-1079837D01*
G01*
X144688870Y-124079837D02*
G75*
G03*
X146770961Y-124080000I1041130J1079837D01*
G01*
X144057665Y-121921392D02*
G75*
G02*
X147290000Y-121764484I1672335J-1078608D01*
G01*
X144057665Y-124078608D02*
G75*
G03*
X147290000Y-124235516I1672335J1078608D01*
G01*
D10*
X220400571Y-141437142D02*
X220448190Y-141294285D01*
X220495809Y-141246666D01*
X220591047Y-141199047D01*
X220733904Y-141199047D01*
X220829142Y-141246666D01*
X220876761Y-141294285D01*
X220924380Y-141389523D01*
X220924380Y-141770476D01*
X219924380Y-141770476D01*
X219924380Y-141437142D01*
X219972000Y-141341904D01*
X220019619Y-141294285D01*
X220114857Y-141246666D01*
X220210095Y-141246666D01*
X220305333Y-141294285D01*
X220352952Y-141341904D01*
X220400571Y-141437142D01*
X220400571Y-141770476D01*
X219924380Y-140770476D02*
X220733904Y-140770476D01*
X220829142Y-140722857D01*
X220876761Y-140675238D01*
X220924380Y-140580000D01*
X220924380Y-140389523D01*
X220876761Y-140294285D01*
X220829142Y-140246666D01*
X220733904Y-140199047D01*
X219924380Y-140199047D01*
X219924380Y-139818095D02*
X219924380Y-139151428D01*
X220924380Y-139818095D01*
X220924380Y-139151428D01*
X219924380Y-138865714D02*
X219924380Y-138199047D01*
X220924380Y-138865714D01*
X220924380Y-138199047D01*
X220400571Y-137818095D02*
X220400571Y-137484761D01*
X220924380Y-137341904D02*
X220924380Y-137818095D01*
X219924380Y-137818095D01*
X219924380Y-137341904D01*
X220924380Y-136341904D02*
X220448190Y-136675238D01*
X220924380Y-136913333D02*
X219924380Y-136913333D01*
X219924380Y-136532380D01*
X219972000Y-136437142D01*
X220019619Y-136389523D01*
X220114857Y-136341904D01*
X220257714Y-136341904D01*
X220352952Y-136389523D01*
X220400571Y-136437142D01*
X220448190Y-136532380D01*
X220448190Y-136913333D01*
X220797380Y-153359333D02*
X220321190Y-153692666D01*
X220797380Y-153930761D02*
X219797380Y-153930761D01*
X219797380Y-153549809D01*
X219845000Y-153454571D01*
X219892619Y-153406952D01*
X219987857Y-153359333D01*
X220130714Y-153359333D01*
X220225952Y-153406952D01*
X220273571Y-153454571D01*
X220321190Y-153549809D01*
X220321190Y-153930761D01*
X220749761Y-152978380D02*
X220797380Y-152835523D01*
X220797380Y-152597428D01*
X220749761Y-152502190D01*
X220702142Y-152454571D01*
X220606904Y-152406952D01*
X220511666Y-152406952D01*
X220416428Y-152454571D01*
X220368809Y-152502190D01*
X220321190Y-152597428D01*
X220273571Y-152787904D01*
X220225952Y-152883142D01*
X220178333Y-152930761D01*
X220083095Y-152978380D01*
X219987857Y-152978380D01*
X219892619Y-152930761D01*
X219845000Y-152883142D01*
X219797380Y-152787904D01*
X219797380Y-152549809D01*
X219845000Y-152406952D01*
X219797380Y-152121238D02*
X219797380Y-151549809D01*
X220797380Y-151835523D02*
X219797380Y-151835523D01*
X220892619Y-151454571D02*
X220892619Y-150692666D01*
X220511666Y-150502190D02*
X220511666Y-150026000D01*
X220797380Y-150597428D02*
X219797380Y-150264095D01*
X220797380Y-149930761D01*
X219797380Y-149121238D02*
X219797380Y-149597428D01*
X220273571Y-149645047D01*
X220225952Y-149597428D01*
X220178333Y-149502190D01*
X220178333Y-149264095D01*
X220225952Y-149168857D01*
X220273571Y-149121238D01*
X220368809Y-149073619D01*
X220606904Y-149073619D01*
X220702142Y-149121238D01*
X220749761Y-149168857D01*
X220797380Y-149264095D01*
X220797380Y-149502190D01*
X220749761Y-149597428D01*
X220702142Y-149645047D01*
X141986095Y-141565380D02*
X141986095Y-142374904D01*
X142033714Y-142470142D01*
X142081333Y-142517761D01*
X142176571Y-142565380D01*
X142367047Y-142565380D01*
X142462285Y-142517761D01*
X142509904Y-142470142D01*
X142557523Y-142374904D01*
X142557523Y-141565380D01*
X143557523Y-142565380D02*
X142986095Y-142565380D01*
X143271809Y-142565380D02*
X143271809Y-141565380D01*
X143176571Y-141708238D01*
X143081333Y-141803476D01*
X142986095Y-141851095D01*
X131613047Y-144946666D02*
X132089238Y-144946666D01*
X131517809Y-145232380D02*
X131851142Y-144232380D01*
X132184476Y-145232380D01*
X132517809Y-145232380D02*
X132517809Y-144565714D01*
X132517809Y-144756190D02*
X132565428Y-144660952D01*
X132613047Y-144613333D01*
X132708285Y-144565714D01*
X132803523Y-144565714D01*
X133565428Y-145232380D02*
X133565428Y-144232380D01*
X133565428Y-145184761D02*
X133470190Y-145232380D01*
X133279714Y-145232380D01*
X133184476Y-145184761D01*
X133136857Y-145137142D01*
X133089238Y-145041904D01*
X133089238Y-144756190D01*
X133136857Y-144660952D01*
X133184476Y-144613333D01*
X133279714Y-144565714D01*
X133470190Y-144565714D01*
X133565428Y-144613333D01*
X134470190Y-144565714D02*
X134470190Y-145232380D01*
X134041619Y-144565714D02*
X134041619Y-145089523D01*
X134089238Y-145184761D01*
X134184476Y-145232380D01*
X134327333Y-145232380D01*
X134422571Y-145184761D01*
X134470190Y-145137142D01*
X134946380Y-145232380D02*
X134946380Y-144565714D01*
X134946380Y-144232380D02*
X134898761Y-144280000D01*
X134946380Y-144327619D01*
X134994000Y-144280000D01*
X134946380Y-144232380D01*
X134946380Y-144327619D01*
X135422571Y-144565714D02*
X135422571Y-145232380D01*
X135422571Y-144660952D02*
X135470190Y-144613333D01*
X135565428Y-144565714D01*
X135708285Y-144565714D01*
X135803523Y-144613333D01*
X135851142Y-144708571D01*
X135851142Y-145232380D01*
X136470190Y-145232380D02*
X136374952Y-145184761D01*
X136327333Y-145137142D01*
X136279714Y-145041904D01*
X136279714Y-144756190D01*
X136327333Y-144660952D01*
X136374952Y-144613333D01*
X136470190Y-144565714D01*
X136613047Y-144565714D01*
X136708285Y-144613333D01*
X136755904Y-144660952D01*
X136803523Y-144756190D01*
X136803523Y-145041904D01*
X136755904Y-145137142D01*
X136708285Y-145184761D01*
X136613047Y-145232380D01*
X136470190Y-145232380D01*
X136994000Y-145327619D02*
X137755904Y-145327619D01*
X137994000Y-145232380D02*
X137994000Y-144232380D01*
X138327333Y-144946666D01*
X138660666Y-144232380D01*
X138660666Y-145232380D01*
X139517809Y-145184761D02*
X139422571Y-145232380D01*
X139232095Y-145232380D01*
X139136857Y-145184761D01*
X139089238Y-145089523D01*
X139089238Y-144708571D01*
X139136857Y-144613333D01*
X139232095Y-144565714D01*
X139422571Y-144565714D01*
X139517809Y-144613333D01*
X139565428Y-144708571D01*
X139565428Y-144803809D01*
X139089238Y-144899047D01*
X140422571Y-144565714D02*
X140422571Y-145375238D01*
X140374952Y-145470476D01*
X140327333Y-145518095D01*
X140232095Y-145565714D01*
X140089238Y-145565714D01*
X139994000Y-145518095D01*
X140422571Y-145184761D02*
X140327333Y-145232380D01*
X140136857Y-145232380D01*
X140041619Y-145184761D01*
X139994000Y-145137142D01*
X139946380Y-145041904D01*
X139946380Y-144756190D01*
X139994000Y-144660952D01*
X140041619Y-144613333D01*
X140136857Y-144565714D01*
X140327333Y-144565714D01*
X140422571Y-144613333D01*
X141327333Y-145232380D02*
X141327333Y-144708571D01*
X141279714Y-144613333D01*
X141184476Y-144565714D01*
X140994000Y-144565714D01*
X140898761Y-144613333D01*
X141327333Y-145184761D02*
X141232095Y-145232380D01*
X140994000Y-145232380D01*
X140898761Y-145184761D01*
X140851142Y-145089523D01*
X140851142Y-144994285D01*
X140898761Y-144899047D01*
X140994000Y-144851428D01*
X141232095Y-144851428D01*
X141327333Y-144803809D01*
X141755904Y-144327619D02*
X141803523Y-144280000D01*
X141898761Y-144232380D01*
X142136857Y-144232380D01*
X142232095Y-144280000D01*
X142279714Y-144327619D01*
X142327333Y-144422857D01*
X142327333Y-144518095D01*
X142279714Y-144660952D01*
X141708285Y-145232380D01*
X142327333Y-145232380D01*
X143232095Y-144232380D02*
X142755904Y-144232380D01*
X142708285Y-144708571D01*
X142755904Y-144660952D01*
X142851142Y-144613333D01*
X143089238Y-144613333D01*
X143184476Y-144660952D01*
X143232095Y-144708571D01*
X143279714Y-144803809D01*
X143279714Y-145041904D01*
X143232095Y-145137142D01*
X143184476Y-145184761D01*
X143089238Y-145232380D01*
X142851142Y-145232380D01*
X142755904Y-145184761D01*
X142708285Y-145137142D01*
X144136857Y-144232380D02*
X143946380Y-144232380D01*
X143851142Y-144280000D01*
X143803523Y-144327619D01*
X143708285Y-144470476D01*
X143660666Y-144660952D01*
X143660666Y-145041904D01*
X143708285Y-145137142D01*
X143755904Y-145184761D01*
X143851142Y-145232380D01*
X144041619Y-145232380D01*
X144136857Y-145184761D01*
X144184476Y-145137142D01*
X144232095Y-145041904D01*
X144232095Y-144803809D01*
X144184476Y-144708571D01*
X144136857Y-144660952D01*
X144041619Y-144613333D01*
X143851142Y-144613333D01*
X143755904Y-144660952D01*
X143708285Y-144708571D01*
X143660666Y-144803809D01*
X144851142Y-144232380D02*
X144946380Y-144232380D01*
X145041619Y-144280000D01*
X145089238Y-144327619D01*
X145136857Y-144422857D01*
X145184476Y-144613333D01*
X145184476Y-144851428D01*
X145136857Y-145041904D01*
X145089238Y-145137142D01*
X145041619Y-145184761D01*
X144946380Y-145232380D01*
X144851142Y-145232380D01*
X144755904Y-145184761D01*
X144708285Y-145137142D01*
X144660666Y-145041904D01*
X144613047Y-144851428D01*
X144613047Y-144613333D01*
X144660666Y-144422857D01*
X144708285Y-144327619D01*
X144755904Y-144280000D01*
X144851142Y-144232380D01*
X145613047Y-145232380D02*
X145613047Y-144232380D01*
X145994000Y-144232380D01*
X146089238Y-144280000D01*
X146136857Y-144327619D01*
X146184476Y-144422857D01*
X146184476Y-144565714D01*
X146136857Y-144660952D01*
X146089238Y-144708571D01*
X145994000Y-144756190D01*
X145613047Y-144756190D01*
X146613047Y-145232380D02*
X146613047Y-144565714D01*
X146613047Y-144756190D02*
X146660666Y-144660952D01*
X146708285Y-144613333D01*
X146803523Y-144565714D01*
X146898761Y-144565714D01*
X147374952Y-145232380D02*
X147279714Y-145184761D01*
X147232095Y-145137142D01*
X147184476Y-145041904D01*
X147184476Y-144756190D01*
X147232095Y-144660952D01*
X147279714Y-144613333D01*
X147374952Y-144565714D01*
X147517809Y-144565714D01*
X147613047Y-144613333D01*
X147660666Y-144660952D01*
X147708285Y-144756190D01*
X147708285Y-145041904D01*
X147660666Y-145137142D01*
X147613047Y-145184761D01*
X147517809Y-145232380D01*
X147374952Y-145232380D01*
X147898761Y-145327619D02*
X148660666Y-145327619D01*
X148898761Y-144708571D02*
X149232095Y-144708571D01*
X149374952Y-145232380D02*
X148898761Y-145232380D01*
X148898761Y-144232380D01*
X149374952Y-144232380D01*
X149803523Y-145232380D02*
X149803523Y-144565714D01*
X149803523Y-144660952D02*
X149851142Y-144613333D01*
X149946380Y-144565714D01*
X150089238Y-144565714D01*
X150184476Y-144613333D01*
X150232095Y-144708571D01*
X150232095Y-145232380D01*
X150232095Y-144708571D02*
X150279714Y-144613333D01*
X150374952Y-144565714D01*
X150517809Y-144565714D01*
X150613047Y-144613333D01*
X150660666Y-144708571D01*
X150660666Y-145232380D01*
X151136857Y-145232380D02*
X151136857Y-144232380D01*
X151136857Y-144613333D02*
X151232095Y-144565714D01*
X151422571Y-144565714D01*
X151517809Y-144613333D01*
X151565428Y-144660952D01*
X151613047Y-144756190D01*
X151613047Y-145041904D01*
X151565428Y-145137142D01*
X151517809Y-145184761D01*
X151422571Y-145232380D01*
X151232095Y-145232380D01*
X151136857Y-145184761D01*
X152422571Y-145184761D02*
X152327333Y-145232380D01*
X152136857Y-145232380D01*
X152041619Y-145184761D01*
X151994000Y-145089523D01*
X151994000Y-144708571D01*
X152041619Y-144613333D01*
X152136857Y-144565714D01*
X152327333Y-144565714D01*
X152422571Y-144613333D01*
X152470190Y-144708571D01*
X152470190Y-144803809D01*
X151994000Y-144899047D01*
X153327333Y-145232380D02*
X153327333Y-144232380D01*
X153327333Y-145184761D02*
X153232095Y-145232380D01*
X153041619Y-145232380D01*
X152946380Y-145184761D01*
X152898761Y-145137142D01*
X152851142Y-145041904D01*
X152851142Y-144756190D01*
X152898761Y-144660952D01*
X152946380Y-144613333D01*
X153041619Y-144565714D01*
X153232095Y-144565714D01*
X153327333Y-144613333D01*
X157956476Y-126023666D02*
X158432666Y-126023666D01*
X157861238Y-126309380D02*
X158194571Y-125309380D01*
X158527904Y-126309380D01*
X158861238Y-126309380D02*
X158861238Y-125309380D01*
X159194571Y-126023666D01*
X159527904Y-125309380D01*
X159527904Y-126309380D01*
X160004095Y-126309380D02*
X160004095Y-125309380D01*
X160385047Y-125309380D01*
X160480285Y-125357000D01*
X160527904Y-125404619D01*
X160575523Y-125499857D01*
X160575523Y-125642714D01*
X160527904Y-125737952D01*
X160480285Y-125785571D01*
X160385047Y-125833190D01*
X160004095Y-125833190D01*
X161337428Y-125785571D02*
X161480285Y-125833190D01*
X161527904Y-125880809D01*
X161575523Y-125976047D01*
X161575523Y-126118904D01*
X161527904Y-126214142D01*
X161480285Y-126261761D01*
X161385047Y-126309380D01*
X161004095Y-126309380D01*
X161004095Y-125309380D01*
X161337428Y-125309380D01*
X161432666Y-125357000D01*
X161480285Y-125404619D01*
X161527904Y-125499857D01*
X161527904Y-125595095D01*
X161480285Y-125690333D01*
X161432666Y-125737952D01*
X161337428Y-125785571D01*
X161004095Y-125785571D01*
X130198761Y-174515333D02*
X130246380Y-174372476D01*
X130246380Y-174134380D01*
X130198761Y-174039142D01*
X130151142Y-173991523D01*
X130055904Y-173943904D01*
X129960666Y-173943904D01*
X129865428Y-173991523D01*
X129817809Y-174039142D01*
X129770190Y-174134380D01*
X129722571Y-174324857D01*
X129674952Y-174420095D01*
X129627333Y-174467714D01*
X129532095Y-174515333D01*
X129436857Y-174515333D01*
X129341619Y-174467714D01*
X129294000Y-174420095D01*
X129246380Y-174324857D01*
X129246380Y-174086761D01*
X129294000Y-173943904D01*
X129246380Y-173610571D02*
X130246380Y-173372476D01*
X129532095Y-173182000D01*
X130246380Y-172991523D01*
X129246380Y-172753428D01*
X130246380Y-171848666D02*
X130246380Y-172420095D01*
X130246380Y-172134380D02*
X129246380Y-172134380D01*
X129389238Y-172229619D01*
X129484476Y-172324857D01*
X129532095Y-172420095D01*
X134596285Y-168300380D02*
X134596285Y-169109904D01*
X134643904Y-169205142D01*
X134691523Y-169252761D01*
X134786761Y-169300380D01*
X134977238Y-169300380D01*
X135072476Y-169252761D01*
X135120095Y-169205142D01*
X135167714Y-169109904D01*
X135167714Y-168300380D01*
X135643904Y-169300380D02*
X135643904Y-168300380D01*
X136024857Y-168300380D01*
X136120095Y-168348000D01*
X136167714Y-168395619D01*
X136215333Y-168490857D01*
X136215333Y-168633714D01*
X136167714Y-168728952D01*
X136120095Y-168776571D01*
X136024857Y-168824190D01*
X135643904Y-168824190D01*
X222444666Y-123530761D02*
X222587523Y-123578380D01*
X222825619Y-123578380D01*
X222920857Y-123530761D01*
X222968476Y-123483142D01*
X223016095Y-123387904D01*
X223016095Y-123292666D01*
X222968476Y-123197428D01*
X222920857Y-123149809D01*
X222825619Y-123102190D01*
X222635142Y-123054571D01*
X222539904Y-123006952D01*
X222492285Y-122959333D01*
X222444666Y-122864095D01*
X222444666Y-122768857D01*
X222492285Y-122673619D01*
X222539904Y-122626000D01*
X222635142Y-122578380D01*
X222873238Y-122578380D01*
X223016095Y-122626000D01*
X223349428Y-122578380D02*
X223587523Y-123578380D01*
X223778000Y-122864095D01*
X223968476Y-123578380D01*
X224206571Y-122578380D01*
X224635142Y-123578380D02*
X224825619Y-123578380D01*
X224920857Y-123530761D01*
X224968476Y-123483142D01*
X225063714Y-123340285D01*
X225111333Y-123149809D01*
X225111333Y-122768857D01*
X225063714Y-122673619D01*
X225016095Y-122626000D01*
X224920857Y-122578380D01*
X224730380Y-122578380D01*
X224635142Y-122626000D01*
X224587523Y-122673619D01*
X224539904Y-122768857D01*
X224539904Y-123006952D01*
X224587523Y-123102190D01*
X224635142Y-123149809D01*
X224730380Y-123197428D01*
X224920857Y-123197428D01*
X225016095Y-123149809D01*
X225063714Y-123102190D01*
X225111333Y-123006952D01*
X220388666Y-132960000D02*
X220388666Y-132483809D01*
X220674380Y-133055238D02*
X219674380Y-132721904D01*
X220674380Y-132388571D01*
X220674380Y-132055238D02*
X219674380Y-132055238D01*
X220388666Y-131721904D01*
X219674380Y-131388571D01*
X220674380Y-131388571D01*
X220674380Y-130912380D02*
X219674380Y-130912380D01*
X219674380Y-130531428D01*
X219722000Y-130436190D01*
X219769619Y-130388571D01*
X219864857Y-130340952D01*
X220007714Y-130340952D01*
X220102952Y-130388571D01*
X220150571Y-130436190D01*
X220198190Y-130531428D01*
X220198190Y-130912380D01*
X220769619Y-130150476D02*
X220769619Y-129388571D01*
X219674380Y-128960000D02*
X219674380Y-128769523D01*
X219722000Y-128674285D01*
X219817238Y-128579047D01*
X220007714Y-128531428D01*
X220341047Y-128531428D01*
X220531523Y-128579047D01*
X220626761Y-128674285D01*
X220674380Y-128769523D01*
X220674380Y-128960000D01*
X220626761Y-129055238D01*
X220531523Y-129150476D01*
X220341047Y-129198095D01*
X220007714Y-129198095D01*
X219817238Y-129150476D01*
X219722000Y-129055238D01*
X219674380Y-128960000D01*
X220674380Y-128102857D02*
X219674380Y-128102857D01*
X220674380Y-127531428D01*
X219674380Y-127531428D01*
X220769619Y-127293333D02*
X220769619Y-126531428D01*
X219674380Y-126102857D02*
X219674380Y-125912380D01*
X219722000Y-125817142D01*
X219817238Y-125721904D01*
X220007714Y-125674285D01*
X220341047Y-125674285D01*
X220531523Y-125721904D01*
X220626761Y-125817142D01*
X220674380Y-125912380D01*
X220674380Y-126102857D01*
X220626761Y-126198095D01*
X220531523Y-126293333D01*
X220341047Y-126340952D01*
X220007714Y-126340952D01*
X219817238Y-126293333D01*
X219722000Y-126198095D01*
X219674380Y-126102857D01*
X220150571Y-124912380D02*
X220150571Y-125245714D01*
X220674380Y-125245714D02*
X219674380Y-125245714D01*
X219674380Y-124769523D01*
X220150571Y-124055238D02*
X220150571Y-124388571D01*
X220674380Y-124388571D02*
X219674380Y-124388571D01*
X219674380Y-123912380D01*
X205128761Y-174245333D02*
X205176380Y-174102476D01*
X205176380Y-173864380D01*
X205128761Y-173769142D01*
X205081142Y-173721523D01*
X204985904Y-173673904D01*
X204890666Y-173673904D01*
X204795428Y-173721523D01*
X204747809Y-173769142D01*
X204700190Y-173864380D01*
X204652571Y-174054857D01*
X204604952Y-174150095D01*
X204557333Y-174197714D01*
X204462095Y-174245333D01*
X204366857Y-174245333D01*
X204271619Y-174197714D01*
X204224000Y-174150095D01*
X204176380Y-174054857D01*
X204176380Y-173816761D01*
X204224000Y-173673904D01*
X204176380Y-173340571D02*
X205176380Y-173102476D01*
X204462095Y-172912000D01*
X205176380Y-172721523D01*
X204176380Y-172483428D01*
X204176380Y-171673904D02*
X204176380Y-171864380D01*
X204224000Y-171959619D01*
X204271619Y-172007238D01*
X204414476Y-172102476D01*
X204604952Y-172150095D01*
X204985904Y-172150095D01*
X205081142Y-172102476D01*
X205128761Y-172054857D01*
X205176380Y-171959619D01*
X205176380Y-171769142D01*
X205128761Y-171673904D01*
X205081142Y-171626285D01*
X204985904Y-171578666D01*
X204747809Y-171578666D01*
X204652571Y-171626285D01*
X204604952Y-171673904D01*
X204557333Y-171769142D01*
X204557333Y-171959619D01*
X204604952Y-172054857D01*
X204652571Y-172102476D01*
X204747809Y-172150095D01*
X216352380Y-174999333D02*
X215876190Y-175332666D01*
X216352380Y-175570761D02*
X215352380Y-175570761D01*
X215352380Y-175189809D01*
X215400000Y-175094571D01*
X215447619Y-175046952D01*
X215542857Y-174999333D01*
X215685714Y-174999333D01*
X215780952Y-175046952D01*
X215828571Y-175094571D01*
X215876190Y-175189809D01*
X215876190Y-175570761D01*
X216304761Y-174618380D02*
X216352380Y-174475523D01*
X216352380Y-174237428D01*
X216304761Y-174142190D01*
X216257142Y-174094571D01*
X216161904Y-174046952D01*
X216066666Y-174046952D01*
X215971428Y-174094571D01*
X215923809Y-174142190D01*
X215876190Y-174237428D01*
X215828571Y-174427904D01*
X215780952Y-174523142D01*
X215733333Y-174570761D01*
X215638095Y-174618380D01*
X215542857Y-174618380D01*
X215447619Y-174570761D01*
X215400000Y-174523142D01*
X215352380Y-174427904D01*
X215352380Y-174189809D01*
X215400000Y-174046952D01*
X215352380Y-173761238D02*
X215352380Y-173189809D01*
X216352380Y-173475523D02*
X215352380Y-173475523D01*
X216447619Y-173094571D02*
X216447619Y-172332666D01*
X216066666Y-172142190D02*
X216066666Y-171666000D01*
X216352380Y-172237428D02*
X215352380Y-171904095D01*
X216352380Y-171570761D01*
X215352380Y-170761238D02*
X215352380Y-171237428D01*
X215828571Y-171285047D01*
X215780952Y-171237428D01*
X215733333Y-171142190D01*
X215733333Y-170904095D01*
X215780952Y-170808857D01*
X215828571Y-170761238D01*
X215923809Y-170713619D01*
X216161904Y-170713619D01*
X216257142Y-170761238D01*
X216304761Y-170808857D01*
X216352380Y-170904095D01*
X216352380Y-171142190D01*
X216304761Y-171237428D01*
X216257142Y-171285047D01*
X190142761Y-174245333D02*
X190190380Y-174102476D01*
X190190380Y-173864380D01*
X190142761Y-173769142D01*
X190095142Y-173721523D01*
X189999904Y-173673904D01*
X189904666Y-173673904D01*
X189809428Y-173721523D01*
X189761809Y-173769142D01*
X189714190Y-173864380D01*
X189666571Y-174054857D01*
X189618952Y-174150095D01*
X189571333Y-174197714D01*
X189476095Y-174245333D01*
X189380857Y-174245333D01*
X189285619Y-174197714D01*
X189238000Y-174150095D01*
X189190380Y-174054857D01*
X189190380Y-173816761D01*
X189238000Y-173673904D01*
X189190380Y-173340571D02*
X190190380Y-173102476D01*
X189476095Y-172912000D01*
X190190380Y-172721523D01*
X189190380Y-172483428D01*
X189190380Y-171626285D02*
X189190380Y-172102476D01*
X189666571Y-172150095D01*
X189618952Y-172102476D01*
X189571333Y-172007238D01*
X189571333Y-171769142D01*
X189618952Y-171673904D01*
X189666571Y-171626285D01*
X189761809Y-171578666D01*
X189999904Y-171578666D01*
X190095142Y-171626285D01*
X190142761Y-171673904D01*
X190190380Y-171769142D01*
X190190380Y-172007238D01*
X190142761Y-172102476D01*
X190095142Y-172150095D01*
X201366380Y-174745333D02*
X200366380Y-174745333D01*
X201080666Y-174412000D01*
X200366380Y-174078666D01*
X201366380Y-174078666D01*
X200842571Y-173602476D02*
X200842571Y-173269142D01*
X201366380Y-173126285D02*
X201366380Y-173602476D01*
X200366380Y-173602476D01*
X200366380Y-173126285D01*
X201366380Y-172697714D02*
X200366380Y-172697714D01*
X201366380Y-172126285D01*
X200366380Y-172126285D01*
X200366380Y-171650095D02*
X201175904Y-171650095D01*
X201271142Y-171602476D01*
X201318761Y-171554857D01*
X201366380Y-171459619D01*
X201366380Y-171269142D01*
X201318761Y-171173904D01*
X201271142Y-171126285D01*
X201175904Y-171078666D01*
X200366380Y-171078666D01*
X175283761Y-174561333D02*
X175331380Y-174418476D01*
X175331380Y-174180380D01*
X175283761Y-174085142D01*
X175236142Y-174037523D01*
X175140904Y-173989904D01*
X175045666Y-173989904D01*
X174950428Y-174037523D01*
X174902809Y-174085142D01*
X174855190Y-174180380D01*
X174807571Y-174370857D01*
X174759952Y-174466095D01*
X174712333Y-174513714D01*
X174617095Y-174561333D01*
X174521857Y-174561333D01*
X174426619Y-174513714D01*
X174379000Y-174466095D01*
X174331380Y-174370857D01*
X174331380Y-174132761D01*
X174379000Y-173989904D01*
X174331380Y-173656571D02*
X175331380Y-173418476D01*
X174617095Y-173228000D01*
X175331380Y-173037523D01*
X174331380Y-172799428D01*
X174664714Y-171989904D02*
X175331380Y-171989904D01*
X174283761Y-172228000D02*
X174998047Y-172466095D01*
X174998047Y-171847047D01*
X186205761Y-174918476D02*
X186253380Y-174775619D01*
X186253380Y-174537523D01*
X186205761Y-174442285D01*
X186158142Y-174394666D01*
X186062904Y-174347047D01*
X185967666Y-174347047D01*
X185872428Y-174394666D01*
X185824809Y-174442285D01*
X185777190Y-174537523D01*
X185729571Y-174728000D01*
X185681952Y-174823238D01*
X185634333Y-174870857D01*
X185539095Y-174918476D01*
X185443857Y-174918476D01*
X185348619Y-174870857D01*
X185301000Y-174823238D01*
X185253380Y-174728000D01*
X185253380Y-174489904D01*
X185301000Y-174347047D01*
X185253380Y-174061333D02*
X185253380Y-173489904D01*
X186253380Y-173775619D02*
X185253380Y-173775619D01*
X185253380Y-172966095D02*
X185253380Y-172775619D01*
X185301000Y-172680380D01*
X185396238Y-172585142D01*
X185586714Y-172537523D01*
X185920047Y-172537523D01*
X186110523Y-172585142D01*
X186205761Y-172680380D01*
X186253380Y-172775619D01*
X186253380Y-172966095D01*
X186205761Y-173061333D01*
X186110523Y-173156571D01*
X185920047Y-173204190D01*
X185586714Y-173204190D01*
X185396238Y-173156571D01*
X185301000Y-173061333D01*
X185253380Y-172966095D01*
X186253380Y-172108952D02*
X185253380Y-172108952D01*
X185253380Y-171728000D01*
X185301000Y-171632761D01*
X185348619Y-171585142D01*
X185443857Y-171537523D01*
X185586714Y-171537523D01*
X185681952Y-171585142D01*
X185729571Y-171632761D01*
X185777190Y-171728000D01*
X185777190Y-172108952D01*
X160170761Y-174245333D02*
X160218380Y-174102476D01*
X160218380Y-173864380D01*
X160170761Y-173769142D01*
X160123142Y-173721523D01*
X160027904Y-173673904D01*
X159932666Y-173673904D01*
X159837428Y-173721523D01*
X159789809Y-173769142D01*
X159742190Y-173864380D01*
X159694571Y-174054857D01*
X159646952Y-174150095D01*
X159599333Y-174197714D01*
X159504095Y-174245333D01*
X159408857Y-174245333D01*
X159313619Y-174197714D01*
X159266000Y-174150095D01*
X159218380Y-174054857D01*
X159218380Y-173816761D01*
X159266000Y-173673904D01*
X159218380Y-173340571D02*
X160218380Y-173102476D01*
X159504095Y-172912000D01*
X160218380Y-172721523D01*
X159218380Y-172483428D01*
X159218380Y-172197714D02*
X159218380Y-171578666D01*
X159599333Y-171912000D01*
X159599333Y-171769142D01*
X159646952Y-171673904D01*
X159694571Y-171626285D01*
X159789809Y-171578666D01*
X160027904Y-171578666D01*
X160123142Y-171626285D01*
X160170761Y-171673904D01*
X160218380Y-171769142D01*
X160218380Y-172054857D01*
X160170761Y-172150095D01*
X160123142Y-172197714D01*
X160925428Y-169300380D02*
X160925428Y-168300380D01*
X161306380Y-168300380D01*
X161401619Y-168348000D01*
X161449238Y-168395619D01*
X161496857Y-168490857D01*
X161496857Y-168633714D01*
X161449238Y-168728952D01*
X161401619Y-168776571D01*
X161306380Y-168824190D01*
X160925428Y-168824190D01*
X162401619Y-169300380D02*
X161925428Y-169300380D01*
X161925428Y-168300380D01*
X162687333Y-169014666D02*
X163163523Y-169014666D01*
X162592095Y-169300380D02*
X162925428Y-168300380D01*
X163258761Y-169300380D01*
X163782571Y-168824190D02*
X163782571Y-169300380D01*
X163449238Y-168300380D02*
X163782571Y-168824190D01*
X164115904Y-168300380D01*
X165163523Y-168252761D02*
X164306380Y-169538476D01*
X165496857Y-169300380D02*
X165496857Y-168300380D01*
X165877809Y-168300380D01*
X165973047Y-168348000D01*
X166020666Y-168395619D01*
X166068285Y-168490857D01*
X166068285Y-168633714D01*
X166020666Y-168728952D01*
X165973047Y-168776571D01*
X165877809Y-168824190D01*
X165496857Y-168824190D01*
X166449238Y-169014666D02*
X166925428Y-169014666D01*
X166354000Y-169300380D02*
X166687333Y-168300380D01*
X167020666Y-169300380D01*
X167354000Y-168300380D02*
X167354000Y-169109904D01*
X167401619Y-169205142D01*
X167449238Y-169252761D01*
X167544476Y-169300380D01*
X167734952Y-169300380D01*
X167830190Y-169252761D01*
X167877809Y-169205142D01*
X167925428Y-169109904D01*
X167925428Y-168300380D01*
X168354000Y-169252761D02*
X168496857Y-169300380D01*
X168734952Y-169300380D01*
X168830190Y-169252761D01*
X168877809Y-169205142D01*
X168925428Y-169109904D01*
X168925428Y-169014666D01*
X168877809Y-168919428D01*
X168830190Y-168871809D01*
X168734952Y-168824190D01*
X168544476Y-168776571D01*
X168449238Y-168728952D01*
X168401619Y-168681333D01*
X168354000Y-168586095D01*
X168354000Y-168490857D01*
X168401619Y-168395619D01*
X168449238Y-168348000D01*
X168544476Y-168300380D01*
X168782571Y-168300380D01*
X168925428Y-168348000D01*
X169354000Y-168776571D02*
X169687333Y-168776571D01*
X169830190Y-169300380D02*
X169354000Y-169300380D01*
X169354000Y-168300380D01*
X169830190Y-168300380D01*
X145184761Y-174499333D02*
X145232380Y-174356476D01*
X145232380Y-174118380D01*
X145184761Y-174023142D01*
X145137142Y-173975523D01*
X145041904Y-173927904D01*
X144946666Y-173927904D01*
X144851428Y-173975523D01*
X144803809Y-174023142D01*
X144756190Y-174118380D01*
X144708571Y-174308857D01*
X144660952Y-174404095D01*
X144613333Y-174451714D01*
X144518095Y-174499333D01*
X144422857Y-174499333D01*
X144327619Y-174451714D01*
X144280000Y-174404095D01*
X144232380Y-174308857D01*
X144232380Y-174070761D01*
X144280000Y-173927904D01*
X144232380Y-173594571D02*
X145232380Y-173356476D01*
X144518095Y-173166000D01*
X145232380Y-172975523D01*
X144232380Y-172737428D01*
X144327619Y-172404095D02*
X144280000Y-172356476D01*
X144232380Y-172261238D01*
X144232380Y-172023142D01*
X144280000Y-171927904D01*
X144327619Y-171880285D01*
X144422857Y-171832666D01*
X144518095Y-171832666D01*
X144660952Y-171880285D01*
X145232380Y-172451714D01*
X145232380Y-171832666D01*
X148487047Y-169300380D02*
X148487047Y-168300380D01*
X148725142Y-168300380D01*
X148868000Y-168348000D01*
X148963238Y-168443238D01*
X149010857Y-168538476D01*
X149058476Y-168728952D01*
X149058476Y-168871809D01*
X149010857Y-169062285D01*
X148963238Y-169157523D01*
X148868000Y-169252761D01*
X148725142Y-169300380D01*
X148487047Y-169300380D01*
X149677523Y-168300380D02*
X149868000Y-168300380D01*
X149963238Y-168348000D01*
X150058476Y-168443238D01*
X150106095Y-168633714D01*
X150106095Y-168967047D01*
X150058476Y-169157523D01*
X149963238Y-169252761D01*
X149868000Y-169300380D01*
X149677523Y-169300380D01*
X149582285Y-169252761D01*
X149487047Y-169157523D01*
X149439428Y-168967047D01*
X149439428Y-168633714D01*
X149487047Y-168443238D01*
X149582285Y-168348000D01*
X149677523Y-168300380D01*
X150439428Y-168300380D02*
X150677523Y-169300380D01*
X150868000Y-168586095D01*
X151058476Y-169300380D01*
X151296571Y-168300380D01*
X151677523Y-169300380D02*
X151677523Y-168300380D01*
X152248952Y-169300380D01*
X152248952Y-168300380D01*
X171624666Y-110196380D02*
X171624666Y-110910666D01*
X171577047Y-111053523D01*
X171481809Y-111148761D01*
X171338952Y-111196380D01*
X171243714Y-111196380D01*
X172053238Y-110291619D02*
X172100857Y-110244000D01*
X172196095Y-110196380D01*
X172434190Y-110196380D01*
X172529428Y-110244000D01*
X172577047Y-110291619D01*
X172624666Y-110386857D01*
X172624666Y-110482095D01*
X172577047Y-110624952D01*
X172005619Y-111196380D01*
X172624666Y-111196380D01*
X169108380Y-112664571D02*
X168632190Y-112997904D01*
X169108380Y-113236000D02*
X168108380Y-113236000D01*
X168108380Y-112855047D01*
X168156000Y-112759809D01*
X168203619Y-112712190D01*
X168298857Y-112664571D01*
X168441714Y-112664571D01*
X168536952Y-112712190D01*
X168584571Y-112759809D01*
X168632190Y-112855047D01*
X168632190Y-113236000D01*
X169060761Y-111855047D02*
X169108380Y-111950285D01*
X169108380Y-112140761D01*
X169060761Y-112236000D01*
X168965523Y-112283619D01*
X168584571Y-112283619D01*
X168489333Y-112236000D01*
X168441714Y-112140761D01*
X168441714Y-111950285D01*
X168489333Y-111855047D01*
X168584571Y-111807428D01*
X168679809Y-111807428D01*
X168775047Y-112283619D01*
X169108380Y-111378857D02*
X168441714Y-111378857D01*
X168536952Y-111378857D02*
X168489333Y-111331238D01*
X168441714Y-111236000D01*
X168441714Y-111093142D01*
X168489333Y-110997904D01*
X168584571Y-110950285D01*
X169108380Y-110950285D01*
X168584571Y-110950285D02*
X168489333Y-110902666D01*
X168441714Y-110807428D01*
X168441714Y-110664571D01*
X168489333Y-110569333D01*
X168584571Y-110521714D01*
X169108380Y-110521714D01*
X169108380Y-109902666D02*
X169060761Y-109997904D01*
X169013142Y-110045523D01*
X168917904Y-110093142D01*
X168632190Y-110093142D01*
X168536952Y-110045523D01*
X168489333Y-109997904D01*
X168441714Y-109902666D01*
X168441714Y-109759809D01*
X168489333Y-109664571D01*
X168536952Y-109616952D01*
X168632190Y-109569333D01*
X168917904Y-109569333D01*
X169013142Y-109616952D01*
X169060761Y-109664571D01*
X169108380Y-109759809D01*
X169108380Y-109902666D01*
X168441714Y-109283619D02*
X168441714Y-108902666D01*
X168108380Y-109140761D02*
X168965523Y-109140761D01*
X169060761Y-109093142D01*
X169108380Y-108997904D01*
X169108380Y-108902666D01*
X169060761Y-108188380D02*
X169108380Y-108283619D01*
X169108380Y-108474095D01*
X169060761Y-108569333D01*
X168965523Y-108616952D01*
X168584571Y-108616952D01*
X168489333Y-108569333D01*
X168441714Y-108474095D01*
X168441714Y-108283619D01*
X168489333Y-108188380D01*
X168584571Y-108140761D01*
X168679809Y-108140761D01*
X168775047Y-108616952D01*
X168203619Y-107759809D02*
X168156000Y-107712190D01*
X168108380Y-107616952D01*
X168108380Y-107378857D01*
X168156000Y-107283619D01*
X168203619Y-107236000D01*
X168298857Y-107188380D01*
X168394095Y-107188380D01*
X168536952Y-107236000D01*
X169108380Y-107807428D01*
X169108380Y-107188380D01*
X165393857Y-125785571D02*
X165536714Y-125833190D01*
X165584333Y-125880809D01*
X165631952Y-125976047D01*
X165631952Y-126118904D01*
X165584333Y-126214142D01*
X165536714Y-126261761D01*
X165441476Y-126309380D01*
X165060523Y-126309380D01*
X165060523Y-125309380D01*
X165393857Y-125309380D01*
X165489095Y-125357000D01*
X165536714Y-125404619D01*
X165584333Y-125499857D01*
X165584333Y-125595095D01*
X165536714Y-125690333D01*
X165489095Y-125737952D01*
X165393857Y-125785571D01*
X165060523Y-125785571D01*
X166060523Y-125309380D02*
X166060523Y-126118904D01*
X166108142Y-126214142D01*
X166155761Y-126261761D01*
X166251000Y-126309380D01*
X166441476Y-126309380D01*
X166536714Y-126261761D01*
X166584333Y-126214142D01*
X166631952Y-126118904D01*
X166631952Y-125309380D01*
X167012904Y-125309380D02*
X167679571Y-125309380D01*
X167012904Y-126309380D01*
X167679571Y-126309380D01*
X168251000Y-125833190D02*
X168251000Y-126309380D01*
X167917666Y-125309380D02*
X168251000Y-125833190D01*
X168584333Y-125309380D01*
X151169904Y-126023666D02*
X151646095Y-126023666D01*
X151074666Y-126309380D02*
X151408000Y-125309380D01*
X151741333Y-126309380D01*
X152074666Y-126309380D02*
X152074666Y-125309380D01*
X152408000Y-126023666D01*
X152741333Y-125309380D01*
X152741333Y-126309380D01*
X153217523Y-126309380D02*
X153217523Y-125309380D01*
X153598476Y-125309380D01*
X153693714Y-125357000D01*
X153741333Y-125404619D01*
X153788952Y-125499857D01*
X153788952Y-125642714D01*
X153741333Y-125737952D01*
X153693714Y-125785571D01*
X153598476Y-125833190D01*
X153217523Y-125833190D01*
X154408000Y-125833190D02*
X154408000Y-126309380D01*
X154074666Y-125309380D02*
X154408000Y-125833190D01*
X154741333Y-125309380D01*
X173398380Y-142319333D02*
X174112666Y-142319333D01*
X174255523Y-142366952D01*
X174350761Y-142462190D01*
X174398380Y-142605047D01*
X174398380Y-142700285D01*
X173731714Y-141414571D02*
X174398380Y-141414571D01*
X173350761Y-141652666D02*
X174065047Y-141890761D01*
X174065047Y-141271714D01*
X198426000Y-144628857D02*
X198378380Y-144724095D01*
X198378380Y-144866952D01*
X198426000Y-145009809D01*
X198521238Y-145105047D01*
X198616476Y-145152666D01*
X198806952Y-145200285D01*
X198949809Y-145200285D01*
X199140285Y-145152666D01*
X199235523Y-145105047D01*
X199330761Y-145009809D01*
X199378380Y-144866952D01*
X199378380Y-144771714D01*
X199330761Y-144628857D01*
X199283142Y-144581238D01*
X198949809Y-144581238D01*
X198949809Y-144771714D01*
X199092666Y-144200285D02*
X199092666Y-143724095D01*
X199378380Y-144295523D02*
X198378380Y-143962190D01*
X199378380Y-143628857D01*
X199378380Y-143295523D02*
X198378380Y-143295523D01*
X199378380Y-142819333D02*
X198378380Y-142819333D01*
X199378380Y-142247904D01*
X198378380Y-142247904D01*
X199473619Y-142009809D02*
X199473619Y-141247904D01*
X199330761Y-141057428D02*
X199378380Y-140914571D01*
X199378380Y-140676476D01*
X199330761Y-140581238D01*
X199283142Y-140533619D01*
X199187904Y-140486000D01*
X199092666Y-140486000D01*
X198997428Y-140533619D01*
X198949809Y-140581238D01*
X198902190Y-140676476D01*
X198854571Y-140866952D01*
X198806952Y-140962190D01*
X198759333Y-141009809D01*
X198664095Y-141057428D01*
X198568857Y-141057428D01*
X198473619Y-141009809D01*
X198426000Y-140962190D01*
X198378380Y-140866952D01*
X198378380Y-140628857D01*
X198426000Y-140486000D01*
X198854571Y-140057428D02*
X198854571Y-139724095D01*
X199378380Y-139581238D02*
X199378380Y-140057428D01*
X198378380Y-140057428D01*
X198378380Y-139581238D01*
X199378380Y-138676476D02*
X199378380Y-139152666D01*
X198378380Y-139152666D01*
X157412666Y-109434380D02*
X157412666Y-110148666D01*
X157365047Y-110291523D01*
X157269809Y-110386761D01*
X157126952Y-110434380D01*
X157031714Y-110434380D01*
X158031714Y-109862952D02*
X157936476Y-109815333D01*
X157888857Y-109767714D01*
X157841238Y-109672476D01*
X157841238Y-109624857D01*
X157888857Y-109529619D01*
X157936476Y-109482000D01*
X158031714Y-109434380D01*
X158222190Y-109434380D01*
X158317428Y-109482000D01*
X158365047Y-109529619D01*
X158412666Y-109624857D01*
X158412666Y-109672476D01*
X158365047Y-109767714D01*
X158317428Y-109815333D01*
X158222190Y-109862952D01*
X158031714Y-109862952D01*
X157936476Y-109910571D01*
X157888857Y-109958190D01*
X157841238Y-110053428D01*
X157841238Y-110243904D01*
X157888857Y-110339142D01*
X157936476Y-110386761D01*
X158031714Y-110434380D01*
X158222190Y-110434380D01*
X158317428Y-110386761D01*
X158365047Y-110339142D01*
X158412666Y-110243904D01*
X158412666Y-110053428D01*
X158365047Y-109958190D01*
X158317428Y-109910571D01*
X158222190Y-109862952D01*
X165552380Y-119046380D02*
X165076190Y-119379714D01*
X165552380Y-119617809D02*
X164552380Y-119617809D01*
X164552380Y-119236857D01*
X164600000Y-119141619D01*
X164647619Y-119094000D01*
X164742857Y-119046380D01*
X164885714Y-119046380D01*
X164980952Y-119094000D01*
X165028571Y-119141619D01*
X165076190Y-119236857D01*
X165076190Y-119617809D01*
X165504761Y-118236857D02*
X165552380Y-118332095D01*
X165552380Y-118522571D01*
X165504761Y-118617809D01*
X165409523Y-118665428D01*
X165028571Y-118665428D01*
X164933333Y-118617809D01*
X164885714Y-118522571D01*
X164885714Y-118332095D01*
X164933333Y-118236857D01*
X165028571Y-118189238D01*
X165123809Y-118189238D01*
X165219047Y-118665428D01*
X165552380Y-117760666D02*
X164885714Y-117760666D01*
X164980952Y-117760666D02*
X164933333Y-117713047D01*
X164885714Y-117617809D01*
X164885714Y-117474952D01*
X164933333Y-117379714D01*
X165028571Y-117332095D01*
X165552380Y-117332095D01*
X165028571Y-117332095D02*
X164933333Y-117284476D01*
X164885714Y-117189238D01*
X164885714Y-117046380D01*
X164933333Y-116951142D01*
X165028571Y-116903523D01*
X165552380Y-116903523D01*
X165552380Y-116284476D02*
X165504761Y-116379714D01*
X165457142Y-116427333D01*
X165361904Y-116474952D01*
X165076190Y-116474952D01*
X164980952Y-116427333D01*
X164933333Y-116379714D01*
X164885714Y-116284476D01*
X164885714Y-116141619D01*
X164933333Y-116046380D01*
X164980952Y-115998761D01*
X165076190Y-115951142D01*
X165361904Y-115951142D01*
X165457142Y-115998761D01*
X165504761Y-116046380D01*
X165552380Y-116141619D01*
X165552380Y-116284476D01*
X164885714Y-115665428D02*
X164885714Y-115284476D01*
X164552380Y-115522571D02*
X165409523Y-115522571D01*
X165504761Y-115474952D01*
X165552380Y-115379714D01*
X165552380Y-115284476D01*
X165504761Y-114570190D02*
X165552380Y-114665428D01*
X165552380Y-114855904D01*
X165504761Y-114951142D01*
X165409523Y-114998761D01*
X165028571Y-114998761D01*
X164933333Y-114951142D01*
X164885714Y-114855904D01*
X164885714Y-114665428D01*
X164933333Y-114570190D01*
X165028571Y-114522571D01*
X165123809Y-114522571D01*
X165219047Y-114998761D01*
X183935619Y-122348666D02*
X183221333Y-122348666D01*
X183078476Y-122301047D01*
X182983238Y-122205809D01*
X182935619Y-122062952D01*
X182935619Y-121967714D01*
X183935619Y-123301047D02*
X183935619Y-122824857D01*
X183459428Y-122777238D01*
X183507047Y-122824857D01*
X183554666Y-122920095D01*
X183554666Y-123158190D01*
X183507047Y-123253428D01*
X183459428Y-123301047D01*
X183364190Y-123348666D01*
X183126095Y-123348666D01*
X183030857Y-123301047D01*
X182983238Y-123253428D01*
X182935619Y-123158190D01*
X182935619Y-122920095D01*
X182983238Y-122824857D01*
X183030857Y-122777238D01*
X188015619Y-107839238D02*
X188015619Y-107363047D01*
X189015619Y-107363047D01*
X188539428Y-108172571D02*
X188539428Y-108505904D01*
X188015619Y-108648761D02*
X188015619Y-108172571D01*
X189015619Y-108172571D01*
X189015619Y-108648761D01*
X188015619Y-109077333D02*
X189015619Y-109077333D01*
X189015619Y-109315428D01*
X188968000Y-109458285D01*
X188872761Y-109553523D01*
X188777523Y-109601142D01*
X188587047Y-109648761D01*
X188444190Y-109648761D01*
X188253714Y-109601142D01*
X188158476Y-109553523D01*
X188063238Y-109458285D01*
X188015619Y-109315428D01*
X188015619Y-109077333D01*
X187920380Y-109839238D02*
X187920380Y-110601142D01*
X189015619Y-111029714D02*
X189015619Y-111220190D01*
X188968000Y-111315428D01*
X188872761Y-111410666D01*
X188682285Y-111458285D01*
X188348952Y-111458285D01*
X188158476Y-111410666D01*
X188063238Y-111315428D01*
X188015619Y-111220190D01*
X188015619Y-111029714D01*
X188063238Y-110934476D01*
X188158476Y-110839238D01*
X188348952Y-110791619D01*
X188682285Y-110791619D01*
X188872761Y-110839238D01*
X188968000Y-110934476D01*
X189015619Y-111029714D01*
X188015619Y-112363047D02*
X188015619Y-111886857D01*
X189015619Y-111886857D01*
X188539428Y-112696380D02*
X188539428Y-113029714D01*
X188015619Y-113172571D02*
X188015619Y-112696380D01*
X189015619Y-112696380D01*
X189015619Y-113172571D01*
X188015619Y-113601142D02*
X189015619Y-113601142D01*
X189015619Y-113839238D01*
X188968000Y-113982095D01*
X188872761Y-114077333D01*
X188777523Y-114124952D01*
X188587047Y-114172571D01*
X188444190Y-114172571D01*
X188253714Y-114124952D01*
X188158476Y-114077333D01*
X188063238Y-113982095D01*
X188015619Y-113839238D01*
X188015619Y-113601142D01*
X143666666Y-109434380D02*
X143666666Y-110148666D01*
X143619047Y-110291523D01*
X143523809Y-110386761D01*
X143380952Y-110434380D01*
X143285714Y-110434380D01*
X144047619Y-109434380D02*
X144714285Y-109434380D01*
X144285714Y-110434380D01*
X151042666Y-117434857D02*
X151042666Y-116958666D01*
X151328380Y-117530095D02*
X150328380Y-117196761D01*
X151328380Y-116863428D01*
X150661714Y-116101523D02*
X151328380Y-116101523D01*
X150661714Y-116530095D02*
X151185523Y-116530095D01*
X151280761Y-116482476D01*
X151328380Y-116387238D01*
X151328380Y-116244380D01*
X151280761Y-116149142D01*
X151233142Y-116101523D01*
X151328380Y-115196761D02*
X150328380Y-115196761D01*
X151280761Y-115196761D02*
X151328380Y-115292000D01*
X151328380Y-115482476D01*
X151280761Y-115577714D01*
X151233142Y-115625333D01*
X151137904Y-115672952D01*
X150852190Y-115672952D01*
X150756952Y-115625333D01*
X150709333Y-115577714D01*
X150661714Y-115482476D01*
X150661714Y-115292000D01*
X150709333Y-115196761D01*
X151328380Y-114720571D02*
X150661714Y-114720571D01*
X150328380Y-114720571D02*
X150376000Y-114768190D01*
X150423619Y-114720571D01*
X150376000Y-114672952D01*
X150328380Y-114720571D01*
X150423619Y-114720571D01*
X151328380Y-114101523D02*
X151280761Y-114196761D01*
X151233142Y-114244380D01*
X151137904Y-114292000D01*
X150852190Y-114292000D01*
X150756952Y-114244380D01*
X150709333Y-114196761D01*
X150661714Y-114101523D01*
X150661714Y-113958666D01*
X150709333Y-113863428D01*
X150756952Y-113815809D01*
X150852190Y-113768190D01*
X151137904Y-113768190D01*
X151233142Y-113815809D01*
X151280761Y-113863428D01*
X151328380Y-113958666D01*
X151328380Y-114101523D01*
X151423619Y-113577714D02*
X151423619Y-112815809D01*
X150328380Y-112387238D02*
X150328380Y-112196761D01*
X150376000Y-112101523D01*
X150471238Y-112006285D01*
X150661714Y-111958666D01*
X150995047Y-111958666D01*
X151185523Y-112006285D01*
X151280761Y-112101523D01*
X151328380Y-112196761D01*
X151328380Y-112387238D01*
X151280761Y-112482476D01*
X151185523Y-112577714D01*
X150995047Y-112625333D01*
X150661714Y-112625333D01*
X150471238Y-112577714D01*
X150376000Y-112482476D01*
X150328380Y-112387238D01*
X150328380Y-111530095D02*
X151137904Y-111530095D01*
X151233142Y-111482476D01*
X151280761Y-111434857D01*
X151328380Y-111339619D01*
X151328380Y-111149142D01*
X151280761Y-111053904D01*
X151233142Y-111006285D01*
X151137904Y-110958666D01*
X150328380Y-110958666D01*
X150328380Y-110625333D02*
X150328380Y-110053904D01*
X151328380Y-110339619D02*
X150328380Y-110339619D01*
X210428476Y-157752761D02*
X210571333Y-157800380D01*
X210809428Y-157800380D01*
X210904666Y-157752761D01*
X210952285Y-157705142D01*
X210999904Y-157609904D01*
X210999904Y-157514666D01*
X210952285Y-157419428D01*
X210904666Y-157371809D01*
X210809428Y-157324190D01*
X210618952Y-157276571D01*
X210523714Y-157228952D01*
X210476095Y-157181333D01*
X210428476Y-157086095D01*
X210428476Y-156990857D01*
X210476095Y-156895619D01*
X210523714Y-156848000D01*
X210618952Y-156800380D01*
X210857047Y-156800380D01*
X210999904Y-156848000D01*
X211333238Y-156800380D02*
X211571333Y-157800380D01*
X211761809Y-157086095D01*
X211952285Y-157800380D01*
X212190380Y-156800380D01*
X213095142Y-157800380D02*
X212523714Y-157800380D01*
X212809428Y-157800380D02*
X212809428Y-156800380D01*
X212714190Y-156943238D01*
X212618952Y-157038476D01*
X212523714Y-157086095D01*
X214047523Y-157800380D02*
X213476095Y-157800380D01*
X213761809Y-157800380D02*
X213761809Y-156800380D01*
X213666571Y-156943238D01*
X213571333Y-157038476D01*
X213476095Y-157086095D01*
X212119523Y-169436761D02*
X212262380Y-169484380D01*
X212500476Y-169484380D01*
X212595714Y-169436761D01*
X212643333Y-169389142D01*
X212690952Y-169293904D01*
X212690952Y-169198666D01*
X212643333Y-169103428D01*
X212595714Y-169055809D01*
X212500476Y-169008190D01*
X212310000Y-168960571D01*
X212214761Y-168912952D01*
X212167142Y-168865333D01*
X212119523Y-168770095D01*
X212119523Y-168674857D01*
X212167142Y-168579619D01*
X212214761Y-168532000D01*
X212310000Y-168484380D01*
X212548095Y-168484380D01*
X212690952Y-168532000D01*
X213119523Y-168960571D02*
X213452857Y-168960571D01*
X213595714Y-169484380D02*
X213119523Y-169484380D01*
X213119523Y-168484380D01*
X213595714Y-168484380D01*
X214500476Y-169484380D02*
X214024285Y-169484380D01*
X214024285Y-168484380D01*
X214595714Y-169579619D02*
X215357619Y-169579619D01*
X215548095Y-169436761D02*
X215690952Y-169484380D01*
X215929047Y-169484380D01*
X216024285Y-169436761D01*
X216071904Y-169389142D01*
X216119523Y-169293904D01*
X216119523Y-169198666D01*
X216071904Y-169103428D01*
X216024285Y-169055809D01*
X215929047Y-169008190D01*
X215738571Y-168960571D01*
X215643333Y-168912952D01*
X215595714Y-168865333D01*
X215548095Y-168770095D01*
X215548095Y-168674857D01*
X215595714Y-168579619D01*
X215643333Y-168532000D01*
X215738571Y-168484380D01*
X215976666Y-168484380D01*
X216119523Y-168532000D01*
X217119523Y-169389142D02*
X217071904Y-169436761D01*
X216929047Y-169484380D01*
X216833809Y-169484380D01*
X216690952Y-169436761D01*
X216595714Y-169341523D01*
X216548095Y-169246285D01*
X216500476Y-169055809D01*
X216500476Y-168912952D01*
X216548095Y-168722476D01*
X216595714Y-168627238D01*
X216690952Y-168532000D01*
X216833809Y-168484380D01*
X216929047Y-168484380D01*
X217071904Y-168532000D01*
X217119523Y-168579619D01*
X218024285Y-169484380D02*
X217548095Y-169484380D01*
X217548095Y-168484380D01*
X218119523Y-169579619D02*
X218881428Y-169579619D01*
X219071904Y-169436761D02*
X219214761Y-169484380D01*
X219452857Y-169484380D01*
X219548095Y-169436761D01*
X219595714Y-169389142D01*
X219643333Y-169293904D01*
X219643333Y-169198666D01*
X219595714Y-169103428D01*
X219548095Y-169055809D01*
X219452857Y-169008190D01*
X219262380Y-168960571D01*
X219167142Y-168912952D01*
X219119523Y-168865333D01*
X219071904Y-168770095D01*
X219071904Y-168674857D01*
X219119523Y-168579619D01*
X219167142Y-168532000D01*
X219262380Y-168484380D01*
X219500476Y-168484380D01*
X219643333Y-168532000D01*
X220071904Y-169484380D02*
X220071904Y-168484380D01*
X220310000Y-168484380D01*
X220452857Y-168532000D01*
X220548095Y-168627238D01*
X220595714Y-168722476D01*
X220643333Y-168912952D01*
X220643333Y-169055809D01*
X220595714Y-169246285D01*
X220548095Y-169341523D01*
X220452857Y-169436761D01*
X220310000Y-169484380D01*
X220071904Y-169484380D01*
X221024285Y-169198666D02*
X221500476Y-169198666D01*
X220929047Y-169484380D02*
X221262380Y-168484380D01*
X221595714Y-169484380D01*
X191762142Y-147677142D02*
X191714523Y-147724761D01*
X191571666Y-147772380D01*
X191476428Y-147772380D01*
X191333571Y-147724761D01*
X191238333Y-147629523D01*
X191190714Y-147534285D01*
X191143095Y-147343809D01*
X191143095Y-147200952D01*
X191190714Y-147010476D01*
X191238333Y-146915238D01*
X191333571Y-146820000D01*
X191476428Y-146772380D01*
X191571666Y-146772380D01*
X191714523Y-146820000D01*
X191762142Y-146867619D01*
X192714523Y-147772380D02*
X192143095Y-147772380D01*
X192428809Y-147772380D02*
X192428809Y-146772380D01*
X192333571Y-146915238D01*
X192238333Y-147010476D01*
X192143095Y-147058095D01*
X193333571Y-146772380D02*
X193428809Y-146772380D01*
X193524047Y-146820000D01*
X193571666Y-146867619D01*
X193619285Y-146962857D01*
X193666904Y-147153333D01*
X193666904Y-147391428D01*
X193619285Y-147581904D01*
X193571666Y-147677142D01*
X193524047Y-147724761D01*
X193428809Y-147772380D01*
X193333571Y-147772380D01*
X193238333Y-147724761D01*
X193190714Y-147677142D01*
X193143095Y-147581904D01*
X193095476Y-147391428D01*
X193095476Y-147153333D01*
X193143095Y-146962857D01*
X193190714Y-146867619D01*
X193238333Y-146820000D01*
X193333571Y-146772380D01*
X190682619Y-153503047D02*
X190635000Y-153455428D01*
X190587380Y-153360190D01*
X190587380Y-153122095D01*
X190635000Y-153026857D01*
X190682619Y-152979238D01*
X190777857Y-152931619D01*
X190873095Y-152931619D01*
X191015952Y-152979238D01*
X191587380Y-153550666D01*
X191587380Y-152931619D01*
X190682619Y-152550666D02*
X190635000Y-152503047D01*
X190587380Y-152407809D01*
X190587380Y-152169714D01*
X190635000Y-152074476D01*
X190682619Y-152026857D01*
X190777857Y-151979238D01*
X190873095Y-151979238D01*
X191015952Y-152026857D01*
X191587380Y-152598285D01*
X191587380Y-151979238D01*
X190587380Y-151360190D02*
X190587380Y-151264952D01*
X190635000Y-151169714D01*
X190682619Y-151122095D01*
X190777857Y-151074476D01*
X190968333Y-151026857D01*
X191206428Y-151026857D01*
X191396904Y-151074476D01*
X191492142Y-151122095D01*
X191539761Y-151169714D01*
X191587380Y-151264952D01*
X191587380Y-151360190D01*
X191539761Y-151455428D01*
X191492142Y-151503047D01*
X191396904Y-151550666D01*
X191206428Y-151598285D01*
X190968333Y-151598285D01*
X190777857Y-151550666D01*
X190682619Y-151503047D01*
X190635000Y-151455428D01*
X190587380Y-151360190D01*
X190920714Y-150169714D02*
X191587380Y-150169714D01*
X190920714Y-150598285D02*
X191444523Y-150598285D01*
X191539761Y-150550666D01*
X191587380Y-150455428D01*
X191587380Y-150312571D01*
X191539761Y-150217333D01*
X191492142Y-150169714D01*
X191063571Y-149360190D02*
X191063571Y-149693523D01*
X191587380Y-149693523D02*
X190587380Y-149693523D01*
X190587380Y-149217333D01*
X207240142Y-155868666D02*
X207287761Y-155916285D01*
X207335380Y-156059142D01*
X207335380Y-156154380D01*
X207287761Y-156297238D01*
X207192523Y-156392476D01*
X207097285Y-156440095D01*
X206906809Y-156487714D01*
X206763952Y-156487714D01*
X206573476Y-156440095D01*
X206478238Y-156392476D01*
X206383000Y-156297238D01*
X206335380Y-156154380D01*
X206335380Y-156059142D01*
X206383000Y-155916285D01*
X206430619Y-155868666D01*
X206668714Y-155011523D02*
X207335380Y-155011523D01*
X206287761Y-155249619D02*
X207002047Y-155487714D01*
X207002047Y-154868666D01*
X207224619Y-153757047D02*
X207177000Y-153709428D01*
X207129380Y-153614190D01*
X207129380Y-153376095D01*
X207177000Y-153280857D01*
X207224619Y-153233238D01*
X207319857Y-153185619D01*
X207415095Y-153185619D01*
X207557952Y-153233238D01*
X208129380Y-153804666D01*
X208129380Y-153185619D01*
X207224619Y-152804666D02*
X207177000Y-152757047D01*
X207129380Y-152661809D01*
X207129380Y-152423714D01*
X207177000Y-152328476D01*
X207224619Y-152280857D01*
X207319857Y-152233238D01*
X207415095Y-152233238D01*
X207557952Y-152280857D01*
X208129380Y-152852285D01*
X208129380Y-152233238D01*
X207129380Y-151614190D02*
X207129380Y-151518952D01*
X207177000Y-151423714D01*
X207224619Y-151376095D01*
X207319857Y-151328476D01*
X207510333Y-151280857D01*
X207748428Y-151280857D01*
X207938904Y-151328476D01*
X208034142Y-151376095D01*
X208081761Y-151423714D01*
X208129380Y-151518952D01*
X208129380Y-151614190D01*
X208081761Y-151709428D01*
X208034142Y-151757047D01*
X207938904Y-151804666D01*
X207748428Y-151852285D01*
X207510333Y-151852285D01*
X207319857Y-151804666D01*
X207224619Y-151757047D01*
X207177000Y-151709428D01*
X207129380Y-151614190D01*
X207462714Y-150423714D02*
X208129380Y-150423714D01*
X207462714Y-150852285D02*
X207986523Y-150852285D01*
X208081761Y-150804666D01*
X208129380Y-150709428D01*
X208129380Y-150566571D01*
X208081761Y-150471333D01*
X208034142Y-150423714D01*
X207605571Y-149614190D02*
X207605571Y-149947523D01*
X208129380Y-149947523D02*
X207129380Y-149947523D01*
X207129380Y-149471333D01*
X204012095Y-119310380D02*
X204012095Y-120119904D01*
X204059714Y-120215142D01*
X204107333Y-120262761D01*
X204202571Y-120310380D01*
X204393047Y-120310380D01*
X204488285Y-120262761D01*
X204535904Y-120215142D01*
X204583523Y-120119904D01*
X204583523Y-119310380D01*
X205012095Y-119405619D02*
X205059714Y-119358000D01*
X205154952Y-119310380D01*
X205393047Y-119310380D01*
X205488285Y-119358000D01*
X205535904Y-119405619D01*
X205583523Y-119500857D01*
X205583523Y-119596095D01*
X205535904Y-119738952D01*
X204964476Y-120310380D01*
X205583523Y-120310380D01*
X201893047Y-124762761D02*
X202035904Y-124810380D01*
X202274000Y-124810380D01*
X202369238Y-124762761D01*
X202416857Y-124715142D01*
X202464476Y-124619904D01*
X202464476Y-124524666D01*
X202416857Y-124429428D01*
X202369238Y-124381809D01*
X202274000Y-124334190D01*
X202083523Y-124286571D01*
X201988285Y-124238952D01*
X201940666Y-124191333D01*
X201893047Y-124096095D01*
X201893047Y-124000857D01*
X201940666Y-123905619D01*
X201988285Y-123858000D01*
X202083523Y-123810380D01*
X202321619Y-123810380D01*
X202464476Y-123858000D01*
X202893047Y-124810380D02*
X202893047Y-123810380D01*
X203131142Y-123810380D01*
X203274000Y-123858000D01*
X203369238Y-123953238D01*
X203416857Y-124048476D01*
X203464476Y-124238952D01*
X203464476Y-124381809D01*
X203416857Y-124572285D01*
X203369238Y-124667523D01*
X203274000Y-124762761D01*
X203131142Y-124810380D01*
X202893047Y-124810380D01*
X203654952Y-124905619D02*
X204416857Y-124905619D01*
X205226380Y-124715142D02*
X205178761Y-124762761D01*
X205035904Y-124810380D01*
X204940666Y-124810380D01*
X204797809Y-124762761D01*
X204702571Y-124667523D01*
X204654952Y-124572285D01*
X204607333Y-124381809D01*
X204607333Y-124238952D01*
X204654952Y-124048476D01*
X204702571Y-123953238D01*
X204797809Y-123858000D01*
X204940666Y-123810380D01*
X205035904Y-123810380D01*
X205178761Y-123858000D01*
X205226380Y-123905619D01*
X206083523Y-124810380D02*
X206083523Y-124286571D01*
X206035904Y-124191333D01*
X205940666Y-124143714D01*
X205750190Y-124143714D01*
X205654952Y-124191333D01*
X206083523Y-124762761D02*
X205988285Y-124810380D01*
X205750190Y-124810380D01*
X205654952Y-124762761D01*
X205607333Y-124667523D01*
X205607333Y-124572285D01*
X205654952Y-124477047D01*
X205750190Y-124429428D01*
X205988285Y-124429428D01*
X206083523Y-124381809D01*
X206559714Y-124810380D02*
X206559714Y-124143714D01*
X206559714Y-124334190D02*
X206607333Y-124238952D01*
X206654952Y-124191333D01*
X206750190Y-124143714D01*
X206845428Y-124143714D01*
X207607333Y-124810380D02*
X207607333Y-123810380D01*
X207607333Y-124762761D02*
X207512095Y-124810380D01*
X207321619Y-124810380D01*
X207226380Y-124762761D01*
X207178761Y-124715142D01*
X207131142Y-124619904D01*
X207131142Y-124334190D01*
X207178761Y-124238952D01*
X207226380Y-124191333D01*
X207321619Y-124143714D01*
X207512095Y-124143714D01*
X207607333Y-124191333D01*
X178548095Y-160222380D02*
X178548095Y-161031904D01*
X178595714Y-161127142D01*
X178643333Y-161174761D01*
X178738571Y-161222380D01*
X178929047Y-161222380D01*
X179024285Y-161174761D01*
X179071904Y-161127142D01*
X179119523Y-161031904D01*
X179119523Y-160222380D01*
X180024285Y-160555714D02*
X180024285Y-161222380D01*
X179786190Y-160174761D02*
X179548095Y-160889047D01*
X180167142Y-160889047D01*
X179762380Y-166778476D02*
X179762380Y-167254666D01*
X178762380Y-167254666D01*
X179762380Y-166445142D02*
X178762380Y-166445142D01*
X179476666Y-166111809D01*
X178762380Y-165778476D01*
X179762380Y-165778476D01*
X178762380Y-165397523D02*
X178762380Y-164778476D01*
X179143333Y-165111809D01*
X179143333Y-164968952D01*
X179190952Y-164873714D01*
X179238571Y-164826095D01*
X179333809Y-164778476D01*
X179571904Y-164778476D01*
X179667142Y-164826095D01*
X179714761Y-164873714D01*
X179762380Y-164968952D01*
X179762380Y-165254666D01*
X179714761Y-165349904D01*
X179667142Y-165397523D01*
X179190952Y-164207047D02*
X179143333Y-164302285D01*
X179095714Y-164349904D01*
X179000476Y-164397523D01*
X178952857Y-164397523D01*
X178857619Y-164349904D01*
X178810000Y-164302285D01*
X178762380Y-164207047D01*
X178762380Y-164016571D01*
X178810000Y-163921333D01*
X178857619Y-163873714D01*
X178952857Y-163826095D01*
X179000476Y-163826095D01*
X179095714Y-163873714D01*
X179143333Y-163921333D01*
X179190952Y-164016571D01*
X179190952Y-164207047D01*
X179238571Y-164302285D01*
X179286190Y-164349904D01*
X179381428Y-164397523D01*
X179571904Y-164397523D01*
X179667142Y-164349904D01*
X179714761Y-164302285D01*
X179762380Y-164207047D01*
X179762380Y-164016571D01*
X179714761Y-163921333D01*
X179667142Y-163873714D01*
X179571904Y-163826095D01*
X179381428Y-163826095D01*
X179286190Y-163873714D01*
X179238571Y-163921333D01*
X179190952Y-164016571D01*
X178762380Y-162968952D02*
X178762380Y-163159428D01*
X178810000Y-163254666D01*
X178857619Y-163302285D01*
X179000476Y-163397523D01*
X179190952Y-163445142D01*
X179571904Y-163445142D01*
X179667142Y-163397523D01*
X179714761Y-163349904D01*
X179762380Y-163254666D01*
X179762380Y-163064190D01*
X179714761Y-162968952D01*
X179667142Y-162921333D01*
X179571904Y-162873714D01*
X179333809Y-162873714D01*
X179238571Y-162921333D01*
X179190952Y-162968952D01*
X179143333Y-163064190D01*
X179143333Y-163254666D01*
X179190952Y-163349904D01*
X179238571Y-163397523D01*
X179333809Y-163445142D01*
X174276190Y-149296380D02*
X174276190Y-148296380D01*
X174657142Y-148296380D01*
X174752380Y-148344000D01*
X174800000Y-148391619D01*
X174847619Y-148486857D01*
X174847619Y-148629714D01*
X174800000Y-148724952D01*
X174752380Y-148772571D01*
X174657142Y-148820190D01*
X174276190Y-148820190D01*
X175466666Y-148296380D02*
X175657142Y-148296380D01*
X175752380Y-148344000D01*
X175847619Y-148439238D01*
X175895238Y-148629714D01*
X175895238Y-148963047D01*
X175847619Y-149153523D01*
X175752380Y-149248761D01*
X175657142Y-149296380D01*
X175466666Y-149296380D01*
X175371428Y-149248761D01*
X175276190Y-149153523D01*
X175228571Y-148963047D01*
X175228571Y-148629714D01*
X175276190Y-148439238D01*
X175371428Y-148344000D01*
X175466666Y-148296380D01*
X176180952Y-148296380D02*
X176752380Y-148296380D01*
X176466666Y-149296380D02*
X176466666Y-148296380D01*
X176847619Y-149391619D02*
X177609523Y-149391619D01*
X178180952Y-148772571D02*
X178323809Y-148820190D01*
X178371428Y-148867809D01*
X178419047Y-148963047D01*
X178419047Y-149105904D01*
X178371428Y-149201142D01*
X178323809Y-149248761D01*
X178228571Y-149296380D01*
X177847619Y-149296380D01*
X177847619Y-148296380D01*
X178180952Y-148296380D01*
X178276190Y-148344000D01*
X178323809Y-148391619D01*
X178371428Y-148486857D01*
X178371428Y-148582095D01*
X178323809Y-148677333D01*
X178276190Y-148724952D01*
X178180952Y-148772571D01*
X177847619Y-148772571D01*
X178847619Y-148296380D02*
X178847619Y-149105904D01*
X178895238Y-149201142D01*
X178942857Y-149248761D01*
X179038095Y-149296380D01*
X179228571Y-149296380D01*
X179323809Y-149248761D01*
X179371428Y-149201142D01*
X179419047Y-149105904D01*
X179419047Y-148296380D01*
X179800000Y-148296380D02*
X180466666Y-148296380D01*
X179800000Y-149296380D01*
X180466666Y-149296380D01*
X181371428Y-149296380D02*
X180800000Y-149296380D01*
X181085714Y-149296380D02*
X181085714Y-148296380D01*
X180990476Y-148439238D01*
X180895238Y-148534476D01*
X180800000Y-148582095D01*
X177109523Y-153614380D02*
X176538095Y-153614380D01*
X176823809Y-153614380D02*
X176823809Y-152614380D01*
X176728571Y-152757238D01*
X176633333Y-152852476D01*
X176538095Y-152900095D01*
X177728571Y-152614380D02*
X177823809Y-152614380D01*
X177919047Y-152662000D01*
X177966666Y-152709619D01*
X178014285Y-152804857D01*
X178061904Y-152995333D01*
X178061904Y-153233428D01*
X178014285Y-153423904D01*
X177966666Y-153519142D01*
X177919047Y-153566761D01*
X177823809Y-153614380D01*
X177728571Y-153614380D01*
X177633333Y-153566761D01*
X177585714Y-153519142D01*
X177538095Y-153423904D01*
X177490476Y-153233428D01*
X177490476Y-152995333D01*
X177538095Y-152804857D01*
X177585714Y-152709619D01*
X177633333Y-152662000D01*
X177728571Y-152614380D01*
X178490476Y-153614380D02*
X178490476Y-152614380D01*
X179061904Y-153614380D02*
X178633333Y-153042952D01*
X179061904Y-152614380D02*
X178490476Y-153185809D01*
X212309047Y-148484571D02*
X212451904Y-148532190D01*
X212499523Y-148579809D01*
X212547142Y-148675047D01*
X212547142Y-148817904D01*
X212499523Y-148913142D01*
X212451904Y-148960761D01*
X212356666Y-149008380D01*
X211975714Y-149008380D01*
X211975714Y-148008380D01*
X212309047Y-148008380D01*
X212404285Y-148056000D01*
X212451904Y-148103619D01*
X212499523Y-148198857D01*
X212499523Y-148294095D01*
X212451904Y-148389333D01*
X212404285Y-148436952D01*
X212309047Y-148484571D01*
X211975714Y-148484571D01*
X212880476Y-148008380D02*
X213547142Y-148008380D01*
X212880476Y-149008380D01*
X213547142Y-149008380D01*
X214451904Y-149008380D02*
X213880476Y-149008380D01*
X214166190Y-149008380D02*
X214166190Y-148008380D01*
X214070952Y-148151238D01*
X213975714Y-148246476D01*
X213880476Y-148294095D01*
X215876428Y-151566571D02*
X216019285Y-151614190D01*
X216066904Y-151661809D01*
X216114523Y-151757047D01*
X216114523Y-151899904D01*
X216066904Y-151995142D01*
X216019285Y-152042761D01*
X215924047Y-152090380D01*
X215543095Y-152090380D01*
X215543095Y-151090380D01*
X215876428Y-151090380D01*
X215971666Y-151138000D01*
X216019285Y-151185619D01*
X216066904Y-151280857D01*
X216066904Y-151376095D01*
X216019285Y-151471333D01*
X215971666Y-151518952D01*
X215876428Y-151566571D01*
X215543095Y-151566571D01*
X216971666Y-151423714D02*
X216971666Y-152090380D01*
X216543095Y-151423714D02*
X216543095Y-151947523D01*
X216590714Y-152042761D01*
X216685952Y-152090380D01*
X216828809Y-152090380D01*
X216924047Y-152042761D01*
X216971666Y-151995142D01*
X217352619Y-151423714D02*
X217876428Y-151423714D01*
X217352619Y-152090380D01*
X217876428Y-152090380D01*
X218162142Y-151423714D02*
X218685952Y-151423714D01*
X218162142Y-152090380D01*
X218685952Y-152090380D01*
X219447857Y-152042761D02*
X219352619Y-152090380D01*
X219162142Y-152090380D01*
X219066904Y-152042761D01*
X219019285Y-151947523D01*
X219019285Y-151566571D01*
X219066904Y-151471333D01*
X219162142Y-151423714D01*
X219352619Y-151423714D01*
X219447857Y-151471333D01*
X219495476Y-151566571D01*
X219495476Y-151661809D01*
X219019285Y-151757047D01*
X219924047Y-152090380D02*
X219924047Y-151423714D01*
X219924047Y-151614190D02*
X219971666Y-151518952D01*
X220019285Y-151471333D01*
X220114523Y-151423714D01*
X220209761Y-151423714D01*
X216629047Y-147611428D02*
X217390952Y-147611428D01*
X217010000Y-147992380D02*
X217010000Y-147230476D01*
X189802095Y-160222380D02*
X189802095Y-161031904D01*
X189849714Y-161127142D01*
X189897333Y-161174761D01*
X189992571Y-161222380D01*
X190183047Y-161222380D01*
X190278285Y-161174761D01*
X190325904Y-161127142D01*
X190373523Y-161031904D01*
X190373523Y-160222380D01*
X190754476Y-160222380D02*
X191373523Y-160222380D01*
X191040190Y-160603333D01*
X191183047Y-160603333D01*
X191278285Y-160650952D01*
X191325904Y-160698571D01*
X191373523Y-160793809D01*
X191373523Y-161031904D01*
X191325904Y-161127142D01*
X191278285Y-161174761D01*
X191183047Y-161222380D01*
X190897333Y-161222380D01*
X190802095Y-161174761D01*
X190754476Y-161127142D01*
X191016380Y-166016476D02*
X191016380Y-166492666D01*
X190016380Y-166492666D01*
X191016380Y-165683142D02*
X190016380Y-165683142D01*
X190730666Y-165349809D01*
X190016380Y-165016476D01*
X191016380Y-165016476D01*
X190016380Y-164635523D02*
X190016380Y-164016476D01*
X190397333Y-164349809D01*
X190397333Y-164206952D01*
X190444952Y-164111714D01*
X190492571Y-164064095D01*
X190587809Y-164016476D01*
X190825904Y-164016476D01*
X190921142Y-164064095D01*
X190968761Y-164111714D01*
X191016380Y-164206952D01*
X191016380Y-164492666D01*
X190968761Y-164587904D01*
X190921142Y-164635523D01*
X190444952Y-163445047D02*
X190397333Y-163540285D01*
X190349714Y-163587904D01*
X190254476Y-163635523D01*
X190206857Y-163635523D01*
X190111619Y-163587904D01*
X190064000Y-163540285D01*
X190016380Y-163445047D01*
X190016380Y-163254571D01*
X190064000Y-163159333D01*
X190111619Y-163111714D01*
X190206857Y-163064095D01*
X190254476Y-163064095D01*
X190349714Y-163111714D01*
X190397333Y-163159333D01*
X190444952Y-163254571D01*
X190444952Y-163445047D01*
X190492571Y-163540285D01*
X190540190Y-163587904D01*
X190635428Y-163635523D01*
X190825904Y-163635523D01*
X190921142Y-163587904D01*
X190968761Y-163540285D01*
X191016380Y-163445047D01*
X191016380Y-163254571D01*
X190968761Y-163159333D01*
X190921142Y-163111714D01*
X190825904Y-163064095D01*
X190635428Y-163064095D01*
X190540190Y-163111714D01*
X190492571Y-163159333D01*
X190444952Y-163254571D01*
X190016380Y-162206952D02*
X190016380Y-162397428D01*
X190064000Y-162492666D01*
X190111619Y-162540285D01*
X190254476Y-162635523D01*
X190444952Y-162683142D01*
X190825904Y-162683142D01*
X190921142Y-162635523D01*
X190968761Y-162587904D01*
X191016380Y-162492666D01*
X191016380Y-162302190D01*
X190968761Y-162206952D01*
X190921142Y-162159333D01*
X190825904Y-162111714D01*
X190587809Y-162111714D01*
X190492571Y-162159333D01*
X190444952Y-162206952D01*
X190397333Y-162302190D01*
X190397333Y-162492666D01*
X190444952Y-162587904D01*
X190492571Y-162635523D01*
X190587809Y-162683142D01*
X197182476Y-157752761D02*
X197325333Y-157800380D01*
X197563428Y-157800380D01*
X197658666Y-157752761D01*
X197706285Y-157705142D01*
X197753904Y-157609904D01*
X197753904Y-157514666D01*
X197706285Y-157419428D01*
X197658666Y-157371809D01*
X197563428Y-157324190D01*
X197372952Y-157276571D01*
X197277714Y-157228952D01*
X197230095Y-157181333D01*
X197182476Y-157086095D01*
X197182476Y-156990857D01*
X197230095Y-156895619D01*
X197277714Y-156848000D01*
X197372952Y-156800380D01*
X197611047Y-156800380D01*
X197753904Y-156848000D01*
X198087238Y-156800380D02*
X198325333Y-157800380D01*
X198515809Y-157086095D01*
X198706285Y-157800380D01*
X198944380Y-156800380D01*
X199849142Y-157800380D02*
X199277714Y-157800380D01*
X199563428Y-157800380D02*
X199563428Y-156800380D01*
X199468190Y-156943238D01*
X199372952Y-157038476D01*
X199277714Y-157086095D01*
X200468190Y-156800380D02*
X200563428Y-156800380D01*
X200658666Y-156848000D01*
X200706285Y-156895619D01*
X200753904Y-156990857D01*
X200801523Y-157181333D01*
X200801523Y-157419428D01*
X200753904Y-157609904D01*
X200706285Y-157705142D01*
X200658666Y-157752761D01*
X200563428Y-157800380D01*
X200468190Y-157800380D01*
X200372952Y-157752761D01*
X200325333Y-157705142D01*
X200277714Y-157609904D01*
X200230095Y-157419428D01*
X200230095Y-157181333D01*
X200277714Y-156990857D01*
X200325333Y-156895619D01*
X200372952Y-156848000D01*
X200468190Y-156800380D01*
X198866666Y-169433761D02*
X199009523Y-169481380D01*
X199247619Y-169481380D01*
X199342857Y-169433761D01*
X199390476Y-169386142D01*
X199438095Y-169290904D01*
X199438095Y-169195666D01*
X199390476Y-169100428D01*
X199342857Y-169052809D01*
X199247619Y-169005190D01*
X199057142Y-168957571D01*
X198961904Y-168909952D01*
X198914285Y-168862333D01*
X198866666Y-168767095D01*
X198866666Y-168671857D01*
X198914285Y-168576619D01*
X198961904Y-168529000D01*
X199057142Y-168481380D01*
X199295238Y-168481380D01*
X199438095Y-168529000D01*
X199866666Y-168957571D02*
X200200000Y-168957571D01*
X200342857Y-169481380D02*
X199866666Y-169481380D01*
X199866666Y-168481380D01*
X200342857Y-168481380D01*
X201247619Y-169481380D02*
X200771428Y-169481380D01*
X200771428Y-168481380D01*
X201342857Y-169576619D02*
X202104761Y-169576619D01*
X202819047Y-168481380D02*
X202342857Y-168481380D01*
X202295238Y-168957571D01*
X202342857Y-168909952D01*
X202438095Y-168862333D01*
X202676190Y-168862333D01*
X202771428Y-168909952D01*
X202819047Y-168957571D01*
X202866666Y-169052809D01*
X202866666Y-169290904D01*
X202819047Y-169386142D01*
X202771428Y-169433761D01*
X202676190Y-169481380D01*
X202438095Y-169481380D01*
X202342857Y-169433761D01*
X202295238Y-169386142D01*
X203152380Y-168481380D02*
X203485714Y-169481380D01*
X203819047Y-168481380D01*
X203914285Y-169576619D02*
X204676190Y-169576619D01*
X205438095Y-168529000D02*
X205342857Y-168481380D01*
X205200000Y-168481380D01*
X205057142Y-168529000D01*
X204961904Y-168624238D01*
X204914285Y-168719476D01*
X204866666Y-168909952D01*
X204866666Y-169052809D01*
X204914285Y-169243285D01*
X204961904Y-169338523D01*
X205057142Y-169433761D01*
X205200000Y-169481380D01*
X205295238Y-169481380D01*
X205438095Y-169433761D01*
X205485714Y-169386142D01*
X205485714Y-169052809D01*
X205295238Y-169052809D01*
X205914285Y-169481380D02*
X205914285Y-168481380D01*
X206485714Y-169481380D01*
X206485714Y-168481380D01*
X206961904Y-169481380D02*
X206961904Y-168481380D01*
X207200000Y-168481380D01*
X207342857Y-168529000D01*
X207438095Y-168624238D01*
X207485714Y-168719476D01*
X207533333Y-168909952D01*
X207533333Y-169052809D01*
X207485714Y-169243285D01*
X207438095Y-169338523D01*
X207342857Y-169433761D01*
X207200000Y-169481380D01*
X206961904Y-169481380D01*
X182801047Y-149296380D02*
X182801047Y-148296380D01*
X183182000Y-148296380D01*
X183277238Y-148344000D01*
X183324857Y-148391619D01*
X183372476Y-148486857D01*
X183372476Y-148629714D01*
X183324857Y-148724952D01*
X183277238Y-148772571D01*
X183182000Y-148820190D01*
X182801047Y-148820190D01*
X183991523Y-148296380D02*
X184182000Y-148296380D01*
X184277238Y-148344000D01*
X184372476Y-148439238D01*
X184420095Y-148629714D01*
X184420095Y-148963047D01*
X184372476Y-149153523D01*
X184277238Y-149248761D01*
X184182000Y-149296380D01*
X183991523Y-149296380D01*
X183896285Y-149248761D01*
X183801047Y-149153523D01*
X183753428Y-148963047D01*
X183753428Y-148629714D01*
X183801047Y-148439238D01*
X183896285Y-148344000D01*
X183991523Y-148296380D01*
X184705809Y-148296380D02*
X185277238Y-148296380D01*
X184991523Y-149296380D02*
X184991523Y-148296380D01*
X185372476Y-149391619D02*
X186134380Y-149391619D01*
X186229619Y-148296380D02*
X186562952Y-149296380D01*
X186896285Y-148296380D01*
X187420095Y-148296380D02*
X187610571Y-148296380D01*
X187705809Y-148344000D01*
X187801047Y-148439238D01*
X187848666Y-148629714D01*
X187848666Y-148963047D01*
X187801047Y-149153523D01*
X187705809Y-149248761D01*
X187610571Y-149296380D01*
X187420095Y-149296380D01*
X187324857Y-149248761D01*
X187229619Y-149153523D01*
X187182000Y-148963047D01*
X187182000Y-148629714D01*
X187229619Y-148439238D01*
X187324857Y-148344000D01*
X187420095Y-148296380D01*
X188753428Y-149296380D02*
X188277238Y-149296380D01*
X188277238Y-148296380D01*
X189610571Y-149296380D02*
X189039142Y-149296380D01*
X189324857Y-149296380D02*
X189324857Y-148296380D01*
X189229619Y-148439238D01*
X189134380Y-148534476D01*
X189039142Y-148582095D01*
X185491523Y-153614380D02*
X184920095Y-153614380D01*
X185205809Y-153614380D02*
X185205809Y-152614380D01*
X185110571Y-152757238D01*
X185015333Y-152852476D01*
X184920095Y-152900095D01*
X186110571Y-152614380D02*
X186205809Y-152614380D01*
X186301047Y-152662000D01*
X186348666Y-152709619D01*
X186396285Y-152804857D01*
X186443904Y-152995333D01*
X186443904Y-153233428D01*
X186396285Y-153423904D01*
X186348666Y-153519142D01*
X186301047Y-153566761D01*
X186205809Y-153614380D01*
X186110571Y-153614380D01*
X186015333Y-153566761D01*
X185967714Y-153519142D01*
X185920095Y-153423904D01*
X185872476Y-153233428D01*
X185872476Y-152995333D01*
X185920095Y-152804857D01*
X185967714Y-152709619D01*
X186015333Y-152662000D01*
X186110571Y-152614380D01*
X186872476Y-153614380D02*
X186872476Y-152614380D01*
X187443904Y-153614380D02*
X187015333Y-153042952D01*
X187443904Y-152614380D02*
X186872476Y-153185809D01*
X130412666Y-107910380D02*
X130412666Y-108624666D01*
X130365047Y-108767523D01*
X130269809Y-108862761D01*
X130126952Y-108910380D01*
X130031714Y-108910380D01*
X131412666Y-108910380D02*
X130841238Y-108910380D01*
X131126952Y-108910380D02*
X131126952Y-107910380D01*
X131031714Y-108053238D01*
X130936476Y-108148476D01*
X130841238Y-108196095D01*
X136428571Y-119092761D02*
X136428571Y-118759428D01*
X136952380Y-118616571D02*
X136952380Y-119092761D01*
X135952380Y-119092761D01*
X135952380Y-118616571D01*
X136952380Y-118283238D02*
X136285714Y-117759428D01*
X136285714Y-118283238D02*
X136952380Y-117759428D01*
X136285714Y-117521333D02*
X136285714Y-117140380D01*
X135952380Y-117378476D02*
X136809523Y-117378476D01*
X136904761Y-117330857D01*
X136952380Y-117235619D01*
X136952380Y-117140380D01*
X136904761Y-116426095D02*
X136952380Y-116521333D01*
X136952380Y-116711809D01*
X136904761Y-116807047D01*
X136809523Y-116854666D01*
X136428571Y-116854666D01*
X136333333Y-116807047D01*
X136285714Y-116711809D01*
X136285714Y-116521333D01*
X136333333Y-116426095D01*
X136428571Y-116378476D01*
X136523809Y-116378476D01*
X136619047Y-116854666D01*
X136952380Y-115949904D02*
X136285714Y-115949904D01*
X136476190Y-115949904D02*
X136380952Y-115902285D01*
X136333333Y-115854666D01*
X136285714Y-115759428D01*
X136285714Y-115664190D01*
X136285714Y-115330857D02*
X136952380Y-115330857D01*
X136380952Y-115330857D02*
X136333333Y-115283238D01*
X136285714Y-115188000D01*
X136285714Y-115045142D01*
X136333333Y-114949904D01*
X136428571Y-114902285D01*
X136952380Y-114902285D01*
X136952380Y-113997523D02*
X136428571Y-113997523D01*
X136333333Y-114045142D01*
X136285714Y-114140380D01*
X136285714Y-114330857D01*
X136333333Y-114426095D01*
X136904761Y-113997523D02*
X136952380Y-114092761D01*
X136952380Y-114330857D01*
X136904761Y-114426095D01*
X136809523Y-114473714D01*
X136714285Y-114473714D01*
X136619047Y-114426095D01*
X136571428Y-114330857D01*
X136571428Y-114092761D01*
X136523809Y-113997523D01*
X136952380Y-113378476D02*
X136904761Y-113473714D01*
X136809523Y-113521333D01*
X135952380Y-113521333D01*
X136952380Y-112235619D02*
X135952380Y-112235619D01*
X135952380Y-111854666D01*
X136000000Y-111759428D01*
X136047619Y-111711809D01*
X136142857Y-111664190D01*
X136285714Y-111664190D01*
X136380952Y-111711809D01*
X136428571Y-111759428D01*
X136476190Y-111854666D01*
X136476190Y-112235619D01*
X136952380Y-111092761D02*
X136904761Y-111188000D01*
X136857142Y-111235619D01*
X136761904Y-111283238D01*
X136476190Y-111283238D01*
X136380952Y-111235619D01*
X136333333Y-111188000D01*
X136285714Y-111092761D01*
X136285714Y-110949904D01*
X136333333Y-110854666D01*
X136380952Y-110807047D01*
X136476190Y-110759428D01*
X136761904Y-110759428D01*
X136857142Y-110807047D01*
X136904761Y-110854666D01*
X136952380Y-110949904D01*
X136952380Y-111092761D01*
X136285714Y-110426095D02*
X136952380Y-110235619D01*
X136476190Y-110045142D01*
X136952380Y-109854666D01*
X136285714Y-109664190D01*
X136904761Y-108902285D02*
X136952380Y-108997523D01*
X136952380Y-109188000D01*
X136904761Y-109283238D01*
X136809523Y-109330857D01*
X136428571Y-109330857D01*
X136333333Y-109283238D01*
X136285714Y-109188000D01*
X136285714Y-108997523D01*
X136333333Y-108902285D01*
X136428571Y-108854666D01*
X136523809Y-108854666D01*
X136619047Y-109330857D01*
X136952380Y-108426095D02*
X136285714Y-108426095D01*
X136476190Y-108426095D02*
X136380952Y-108378476D01*
X136333333Y-108330857D01*
X136285714Y-108235619D01*
X136285714Y-108140380D01*
X137025285Y-125785571D02*
X137358619Y-125785571D01*
X137501476Y-126309380D02*
X137025285Y-126309380D01*
X137025285Y-125309380D01*
X137501476Y-125309380D01*
X137930047Y-126309380D02*
X137930047Y-125309380D01*
X138311000Y-125309380D01*
X138406238Y-125357000D01*
X138453857Y-125404619D01*
X138501476Y-125499857D01*
X138501476Y-125642714D01*
X138453857Y-125737952D01*
X138406238Y-125785571D01*
X138311000Y-125833190D01*
X137930047Y-125833190D01*
X138834809Y-125309380D02*
X139072904Y-126309380D01*
X139263380Y-125595095D01*
X139453857Y-126309380D01*
X139691952Y-125309380D01*
X140644333Y-126309380D02*
X140311000Y-125833190D01*
X140072904Y-126309380D02*
X140072904Y-125309380D01*
X140453857Y-125309380D01*
X140549095Y-125357000D01*
X140596714Y-125404619D01*
X140644333Y-125499857D01*
X140644333Y-125642714D01*
X140596714Y-125737952D01*
X140549095Y-125785571D01*
X140453857Y-125833190D01*
X140072904Y-125833190D01*
X145105523Y-125309380D02*
X144629333Y-125309380D01*
X144581714Y-125785571D01*
X144629333Y-125737952D01*
X144724571Y-125690333D01*
X144962666Y-125690333D01*
X145057904Y-125737952D01*
X145105523Y-125785571D01*
X145153142Y-125880809D01*
X145153142Y-126118904D01*
X145105523Y-126214142D01*
X145057904Y-126261761D01*
X144962666Y-126309380D01*
X144724571Y-126309380D01*
X144629333Y-126261761D01*
X144581714Y-126214142D01*
X145438857Y-125309380D02*
X145772190Y-126309380D01*
X146105523Y-125309380D01*
X146962666Y-125357000D02*
X146867428Y-125309380D01*
X146724571Y-125309380D01*
X146581714Y-125357000D01*
X146486476Y-125452238D01*
X146438857Y-125547476D01*
X146391238Y-125737952D01*
X146391238Y-125880809D01*
X146438857Y-126071285D01*
X146486476Y-126166523D01*
X146581714Y-126261761D01*
X146724571Y-126309380D01*
X146819809Y-126309380D01*
X146962666Y-126261761D01*
X147010285Y-126214142D01*
X147010285Y-125880809D01*
X146819809Y-125880809D01*
M02*
