G04 #@! TF.GenerationSoftware,KiCad,Pcbnew,(5.1.6)-1*
G04 #@! TF.CreationDate,2021-01-09T08:19:16+02:00*
G04 #@! TF.ProjectId,MegaDuino_PM_1_3_Buzz,4d656761-4475-4696-9e6f-5f504d5f315f,rev?*
G04 #@! TF.SameCoordinates,Original*
G04 #@! TF.FileFunction,Paste,Top*
G04 #@! TF.FilePolarity,Positive*
%FSLAX46Y46*%
G04 Gerber Fmt 4.6, Leading zero omitted, Abs format (unit mm)*
G04 Created by KiCad (PCBNEW (5.1.6)-1) date 2021-01-09 08:19:16*
%MOMM*%
%LPD*%
G01*
G04 APERTURE LIST*
G04 APERTURE END LIST*
G36*
G01*
X196003000Y-150688000D02*
X194903000Y-150688000D01*
G75*
G02*
X194653000Y-150438000I0J250000D01*
G01*
X194653000Y-147438000D01*
G75*
G02*
X194903000Y-147188000I250000J0D01*
G01*
X196003000Y-147188000D01*
G75*
G02*
X196253000Y-147438000I0J-250000D01*
G01*
X196253000Y-150438000D01*
G75*
G02*
X196003000Y-150688000I-250000J0D01*
G01*
G37*
G36*
G01*
X196003000Y-156088000D02*
X194903000Y-156088000D01*
G75*
G02*
X194653000Y-155838000I0J250000D01*
G01*
X194653000Y-152838000D01*
G75*
G02*
X194903000Y-152588000I250000J0D01*
G01*
X196003000Y-152588000D01*
G75*
G02*
X196253000Y-152838000I0J-250000D01*
G01*
X196253000Y-155838000D01*
G75*
G02*
X196003000Y-156088000I-250000J0D01*
G01*
G37*
G36*
G01*
X203877000Y-150688000D02*
X202777000Y-150688000D01*
G75*
G02*
X202527000Y-150438000I0J250000D01*
G01*
X202527000Y-147438000D01*
G75*
G02*
X202777000Y-147188000I250000J0D01*
G01*
X203877000Y-147188000D01*
G75*
G02*
X204127000Y-147438000I0J-250000D01*
G01*
X204127000Y-150438000D01*
G75*
G02*
X203877000Y-150688000I-250000J0D01*
G01*
G37*
G36*
G01*
X203877000Y-156088000D02*
X202777000Y-156088000D01*
G75*
G02*
X202527000Y-155838000I0J250000D01*
G01*
X202527000Y-152838000D01*
G75*
G02*
X202777000Y-152588000I250000J0D01*
G01*
X203877000Y-152588000D01*
G75*
G02*
X204127000Y-152838000I0J-250000D01*
G01*
X204127000Y-155838000D01*
G75*
G02*
X203877000Y-156088000I-250000J0D01*
G01*
G37*
G36*
G01*
X189774000Y-116307800D02*
X189774000Y-114408200D01*
G75*
G02*
X190024200Y-114158000I250200J0D01*
G01*
X191323800Y-114158000D01*
G75*
G02*
X191574000Y-114408200I0J-250200D01*
G01*
X191574000Y-116307800D01*
G75*
G02*
X191323800Y-116558000I-250200J0D01*
G01*
X190024200Y-116558000D01*
G75*
G02*
X189774000Y-116307800I0J250200D01*
G01*
G37*
G36*
G01*
X217174000Y-115108100D02*
X217174000Y-113207900D01*
G75*
G02*
X217423900Y-112958000I249900J0D01*
G01*
X218624100Y-112958000D01*
G75*
G02*
X218874000Y-113207900I0J-249900D01*
G01*
X218874000Y-115108100D01*
G75*
G02*
X218624100Y-115358000I-249900J0D01*
G01*
X217423900Y-115358000D01*
G75*
G02*
X217174000Y-115108100I0J249900D01*
G01*
G37*
G36*
G01*
X217664000Y-137308100D02*
X217664000Y-135807900D01*
G75*
G02*
X217913900Y-135558000I249900J0D01*
G01*
X218114100Y-135558000D01*
G75*
G02*
X218364000Y-135807900I0J-249900D01*
G01*
X218364000Y-137308100D01*
G75*
G02*
X218114100Y-137558000I-249900J0D01*
G01*
X217913900Y-137558000D01*
G75*
G02*
X217664000Y-137308100I0J249900D01*
G01*
G37*
G36*
G01*
X214124000Y-137307600D02*
X214124000Y-135808400D01*
G75*
G02*
X214374400Y-135558000I250400J0D01*
G01*
X214673600Y-135558000D01*
G75*
G02*
X214924000Y-135808400I0J-250400D01*
G01*
X214924000Y-137307600D01*
G75*
G02*
X214673600Y-137558000I-250400J0D01*
G01*
X214374400Y-137558000D01*
G75*
G02*
X214124000Y-137307600I0J250400D01*
G01*
G37*
G36*
G01*
X212424000Y-137307600D02*
X212424000Y-135808400D01*
G75*
G02*
X212674400Y-135558000I250400J0D01*
G01*
X212973600Y-135558000D01*
G75*
G02*
X213224000Y-135808400I0J-250400D01*
G01*
X213224000Y-137307600D01*
G75*
G02*
X212973600Y-137558000I-250400J0D01*
G01*
X212674400Y-137558000D01*
G75*
G02*
X212424000Y-137307600I0J250400D01*
G01*
G37*
G36*
G01*
X209994000Y-137307600D02*
X209994000Y-135808400D01*
G75*
G02*
X210244400Y-135558000I250400J0D01*
G01*
X210543600Y-135558000D01*
G75*
G02*
X210794000Y-135808400I0J-250400D01*
G01*
X210794000Y-137307600D01*
G75*
G02*
X210543600Y-137558000I-250400J0D01*
G01*
X210244400Y-137558000D01*
G75*
G02*
X209994000Y-137307600I0J250400D01*
G01*
G37*
G36*
G01*
X207494000Y-137307600D02*
X207494000Y-135808400D01*
G75*
G02*
X207744400Y-135558000I250400J0D01*
G01*
X208043600Y-135558000D01*
G75*
G02*
X208294000Y-135808400I0J-250400D01*
G01*
X208294000Y-137307600D01*
G75*
G02*
X208043600Y-137558000I-250400J0D01*
G01*
X207744400Y-137558000D01*
G75*
G02*
X207494000Y-137307600I0J250400D01*
G01*
G37*
G36*
G01*
X204994000Y-137307600D02*
X204994000Y-135808400D01*
G75*
G02*
X205244400Y-135558000I250400J0D01*
G01*
X205543600Y-135558000D01*
G75*
G02*
X205794000Y-135808400I0J-250400D01*
G01*
X205794000Y-137307600D01*
G75*
G02*
X205543600Y-137558000I-250400J0D01*
G01*
X205244400Y-137558000D01*
G75*
G02*
X204994000Y-137307600I0J250400D01*
G01*
G37*
G36*
G01*
X203294000Y-137307600D02*
X203294000Y-135808400D01*
G75*
G02*
X203544400Y-135558000I250400J0D01*
G01*
X203843600Y-135558000D01*
G75*
G02*
X204094000Y-135808400I0J-250400D01*
G01*
X204094000Y-137307600D01*
G75*
G02*
X203843600Y-137558000I-250400J0D01*
G01*
X203544400Y-137558000D01*
G75*
G02*
X203294000Y-137307600I0J250400D01*
G01*
G37*
G36*
G01*
X201694000Y-137307600D02*
X201694000Y-135808400D01*
G75*
G02*
X201944400Y-135558000I250400J0D01*
G01*
X202243600Y-135558000D01*
G75*
G02*
X202494000Y-135808400I0J-250400D01*
G01*
X202494000Y-137307600D01*
G75*
G02*
X202243600Y-137558000I-250400J0D01*
G01*
X201944400Y-137558000D01*
G75*
G02*
X201694000Y-137307600I0J250400D01*
G01*
G37*
G36*
G01*
X199994000Y-137307600D02*
X199994000Y-135808400D01*
G75*
G02*
X200244400Y-135558000I250400J0D01*
G01*
X200543600Y-135558000D01*
G75*
G02*
X200794000Y-135808400I0J-250400D01*
G01*
X200794000Y-137307600D01*
G75*
G02*
X200543600Y-137558000I-250400J0D01*
G01*
X200244400Y-137558000D01*
G75*
G02*
X199994000Y-137307600I0J250400D01*
G01*
G37*
G36*
G01*
X197494000Y-137307600D02*
X197494000Y-135808400D01*
G75*
G02*
X197744400Y-135558000I250400J0D01*
G01*
X198043600Y-135558000D01*
G75*
G02*
X198294000Y-135808400I0J-250400D01*
G01*
X198294000Y-137307600D01*
G75*
G02*
X198043600Y-137558000I-250400J0D01*
G01*
X197744400Y-137558000D01*
G75*
G02*
X197494000Y-137307600I0J250400D01*
G01*
G37*
G36*
G01*
X194994000Y-137307600D02*
X194994000Y-135808400D01*
G75*
G02*
X195244400Y-135558000I250400J0D01*
G01*
X195543600Y-135558000D01*
G75*
G02*
X195794000Y-135808400I0J-250400D01*
G01*
X195794000Y-137307600D01*
G75*
G02*
X195543600Y-137558000I-250400J0D01*
G01*
X195244400Y-137558000D01*
G75*
G02*
X194994000Y-137307600I0J250400D01*
G01*
G37*
M02*
