G04 #@! TF.GenerationSoftware,KiCad,Pcbnew,(5.1.6)-1*
G04 #@! TF.CreationDate,2021-01-09T08:19:16+02:00*
G04 #@! TF.ProjectId,MegaDuino_PM_1_3_Buzz,4d656761-4475-4696-9e6f-5f504d5f315f,rev?*
G04 #@! TF.SameCoordinates,Original*
G04 #@! TF.FileFunction,Soldermask,Bot*
G04 #@! TF.FilePolarity,Negative*
%FSLAX46Y46*%
G04 Gerber Fmt 4.6, Leading zero omitted, Abs format (unit mm)*
G04 Created by KiCad (PCBNEW (5.1.6)-1) date 2021-01-09 08:19:16*
%MOMM*%
%LPD*%
G01*
G04 APERTURE LIST*
%ADD10O,3.500000X2.200000*%
%ADD11O,2.500000X1.500000*%
%ADD12R,2.500000X1.500000*%
%ADD13O,1.700000X1.700000*%
%ADD14C,1.700000*%
%ADD15C,1.800000*%
%ADD16R,1.800000X1.800000*%
%ADD17C,2.000000*%
%ADD18C,1.400000*%
%ADD19R,1.400000X1.400000*%
%ADD20O,1.600000X2.500000*%
%ADD21O,2.500000X1.600000*%
%ADD22R,1.700000X1.700000*%
%ADD23R,3.500000X2.500000*%
%ADD24O,1.750000X3.500000*%
%ADD25O,1.600000X1.600000*%
%ADD26R,1.600000X1.600000*%
%ADD27C,1.500000*%
%ADD28O,2.400000X1.600000*%
%ADD29R,2.400000X1.600000*%
%ADD30C,1.620000*%
%ADD31R,2.000000X2.000000*%
%ADD32C,0.800000*%
%ADD33C,6.400000*%
%ADD34R,3.500000X3.500000*%
G04 APERTURE END LIST*
D10*
X223800000Y-135400000D03*
X223800000Y-143600000D03*
D11*
X223800000Y-137500000D03*
X223800000Y-139500000D03*
D12*
X223800000Y-141500000D03*
D10*
X223800000Y-147400000D03*
X223800000Y-155600000D03*
D11*
X223800000Y-149500000D03*
X223800000Y-151500000D03*
D12*
X223800000Y-153500000D03*
G36*
G01*
X200038000Y-163820000D02*
X200038000Y-162570000D01*
G75*
G02*
X200288000Y-162320000I250000J0D01*
G01*
X201213000Y-162320000D01*
G75*
G02*
X201463000Y-162570000I0J-250000D01*
G01*
X201463000Y-163820000D01*
G75*
G02*
X201213000Y-164070000I-250000J0D01*
G01*
X200288000Y-164070000D01*
G75*
G02*
X200038000Y-163820000I0J250000D01*
G01*
G37*
G36*
G01*
X197063000Y-163820000D02*
X197063000Y-162570000D01*
G75*
G02*
X197313000Y-162320000I250000J0D01*
G01*
X198238000Y-162320000D01*
G75*
G02*
X198488000Y-162570000I0J-250000D01*
G01*
X198488000Y-163820000D01*
G75*
G02*
X198238000Y-164070000I-250000J0D01*
G01*
X197313000Y-164070000D01*
G75*
G02*
X197063000Y-163820000I0J250000D01*
G01*
G37*
G36*
G01*
X203083000Y-143269000D02*
X204333000Y-143269000D01*
G75*
G02*
X204583000Y-143519000I0J-250000D01*
G01*
X204583000Y-144444000D01*
G75*
G02*
X204333000Y-144694000I-250000J0D01*
G01*
X203083000Y-144694000D01*
G75*
G02*
X202833000Y-144444000I0J250000D01*
G01*
X202833000Y-143519000D01*
G75*
G02*
X203083000Y-143269000I250000J0D01*
G01*
G37*
G36*
G01*
X203083000Y-140294000D02*
X204333000Y-140294000D01*
G75*
G02*
X204583000Y-140544000I0J-250000D01*
G01*
X204583000Y-141469000D01*
G75*
G02*
X204333000Y-141719000I-250000J0D01*
G01*
X203083000Y-141719000D01*
G75*
G02*
X202833000Y-141469000I0J250000D01*
G01*
X202833000Y-140544000D01*
G75*
G02*
X203083000Y-140294000I250000J0D01*
G01*
G37*
G36*
G01*
X123838000Y-131943000D02*
X123838000Y-130693000D01*
G75*
G02*
X124088000Y-130443000I250000J0D01*
G01*
X125013000Y-130443000D01*
G75*
G02*
X125263000Y-130693000I0J-250000D01*
G01*
X125263000Y-131943000D01*
G75*
G02*
X125013000Y-132193000I-250000J0D01*
G01*
X124088000Y-132193000D01*
G75*
G02*
X123838000Y-131943000I0J250000D01*
G01*
G37*
G36*
G01*
X120863000Y-131943000D02*
X120863000Y-130693000D01*
G75*
G02*
X121113000Y-130443000I250000J0D01*
G01*
X122038000Y-130443000D01*
G75*
G02*
X122288000Y-130693000I0J-250000D01*
G01*
X122288000Y-131943000D01*
G75*
G02*
X122038000Y-132193000I-250000J0D01*
G01*
X121113000Y-132193000D01*
G75*
G02*
X120863000Y-131943000I0J250000D01*
G01*
G37*
G36*
G01*
X128641000Y-125209000D02*
X127391000Y-125209000D01*
G75*
G02*
X127141000Y-124959000I0J250000D01*
G01*
X127141000Y-124034000D01*
G75*
G02*
X127391000Y-123784000I250000J0D01*
G01*
X128641000Y-123784000D01*
G75*
G02*
X128891000Y-124034000I0J-250000D01*
G01*
X128891000Y-124959000D01*
G75*
G02*
X128641000Y-125209000I-250000J0D01*
G01*
G37*
G36*
G01*
X128641000Y-128184000D02*
X127391000Y-128184000D01*
G75*
G02*
X127141000Y-127934000I0J250000D01*
G01*
X127141000Y-127009000D01*
G75*
G02*
X127391000Y-126759000I250000J0D01*
G01*
X128641000Y-126759000D01*
G75*
G02*
X128891000Y-127009000I0J-250000D01*
G01*
X128891000Y-127934000D01*
G75*
G02*
X128641000Y-128184000I-250000J0D01*
G01*
G37*
G36*
G01*
X123838000Y-128387000D02*
X123838000Y-127137000D01*
G75*
G02*
X124088000Y-126887000I250000J0D01*
G01*
X125013000Y-126887000D01*
G75*
G02*
X125263000Y-127137000I0J-250000D01*
G01*
X125263000Y-128387000D01*
G75*
G02*
X125013000Y-128637000I-250000J0D01*
G01*
X124088000Y-128637000D01*
G75*
G02*
X123838000Y-128387000I0J250000D01*
G01*
G37*
G36*
G01*
X120863000Y-128387000D02*
X120863000Y-127137000D01*
G75*
G02*
X121113000Y-126887000I250000J0D01*
G01*
X122038000Y-126887000D01*
G75*
G02*
X122288000Y-127137000I0J-250000D01*
G01*
X122288000Y-128387000D01*
G75*
G02*
X122038000Y-128637000I-250000J0D01*
G01*
X121113000Y-128637000D01*
G75*
G02*
X120863000Y-128387000I0J250000D01*
G01*
G37*
G36*
G01*
X207909000Y-155588000D02*
X209159000Y-155588000D01*
G75*
G02*
X209409000Y-155838000I0J-250000D01*
G01*
X209409000Y-156763000D01*
G75*
G02*
X209159000Y-157013000I-250000J0D01*
G01*
X207909000Y-157013000D01*
G75*
G02*
X207659000Y-156763000I0J250000D01*
G01*
X207659000Y-155838000D01*
G75*
G02*
X207909000Y-155588000I250000J0D01*
G01*
G37*
G36*
G01*
X207909000Y-152613000D02*
X209159000Y-152613000D01*
G75*
G02*
X209409000Y-152863000I0J-250000D01*
G01*
X209409000Y-153788000D01*
G75*
G02*
X209159000Y-154038000I-250000J0D01*
G01*
X207909000Y-154038000D01*
G75*
G02*
X207659000Y-153788000I0J250000D01*
G01*
X207659000Y-152863000D01*
G75*
G02*
X207909000Y-152613000I250000J0D01*
G01*
G37*
G36*
G01*
X195775000Y-147625000D02*
X195775000Y-146375000D01*
G75*
G02*
X196025000Y-146125000I250000J0D01*
G01*
X196950000Y-146125000D01*
G75*
G02*
X197200000Y-146375000I0J-250000D01*
G01*
X197200000Y-147625000D01*
G75*
G02*
X196950000Y-147875000I-250000J0D01*
G01*
X196025000Y-147875000D01*
G75*
G02*
X195775000Y-147625000I0J250000D01*
G01*
G37*
G36*
G01*
X192800000Y-147625000D02*
X192800000Y-146375000D01*
G75*
G02*
X193050000Y-146125000I250000J0D01*
G01*
X193975000Y-146125000D01*
G75*
G02*
X194225000Y-146375000I0J-250000D01*
G01*
X194225000Y-147625000D01*
G75*
G02*
X193975000Y-147875000I-250000J0D01*
G01*
X193050000Y-147875000D01*
G75*
G02*
X192800000Y-147625000I0J250000D01*
G01*
G37*
G36*
G01*
X199527000Y-143396000D02*
X200777000Y-143396000D01*
G75*
G02*
X201027000Y-143646000I0J-250000D01*
G01*
X201027000Y-144571000D01*
G75*
G02*
X200777000Y-144821000I-250000J0D01*
G01*
X199527000Y-144821000D01*
G75*
G02*
X199277000Y-144571000I0J250000D01*
G01*
X199277000Y-143646000D01*
G75*
G02*
X199527000Y-143396000I250000J0D01*
G01*
G37*
G36*
G01*
X199527000Y-140421000D02*
X200777000Y-140421000D01*
G75*
G02*
X201027000Y-140671000I0J-250000D01*
G01*
X201027000Y-141596000D01*
G75*
G02*
X200777000Y-141846000I-250000J0D01*
G01*
X199527000Y-141846000D01*
G75*
G02*
X199277000Y-141596000I0J250000D01*
G01*
X199277000Y-140671000D01*
G75*
G02*
X199527000Y-140421000I250000J0D01*
G01*
G37*
G36*
G01*
X182225000Y-146375000D02*
X182225000Y-147625000D01*
G75*
G02*
X181975000Y-147875000I-250000J0D01*
G01*
X181050000Y-147875000D01*
G75*
G02*
X180800000Y-147625000I0J250000D01*
G01*
X180800000Y-146375000D01*
G75*
G02*
X181050000Y-146125000I250000J0D01*
G01*
X181975000Y-146125000D01*
G75*
G02*
X182225000Y-146375000I0J-250000D01*
G01*
G37*
G36*
G01*
X185200000Y-146375000D02*
X185200000Y-147625000D01*
G75*
G02*
X184950000Y-147875000I-250000J0D01*
G01*
X184025000Y-147875000D01*
G75*
G02*
X183775000Y-147625000I0J250000D01*
G01*
X183775000Y-146375000D01*
G75*
G02*
X184025000Y-146125000I250000J0D01*
G01*
X184950000Y-146125000D01*
G75*
G02*
X185200000Y-146375000I0J-250000D01*
G01*
G37*
G36*
G01*
X183121000Y-136662000D02*
X183121000Y-137912000D01*
G75*
G02*
X182871000Y-138162000I-250000J0D01*
G01*
X181946000Y-138162000D01*
G75*
G02*
X181696000Y-137912000I0J250000D01*
G01*
X181696000Y-136662000D01*
G75*
G02*
X181946000Y-136412000I250000J0D01*
G01*
X182871000Y-136412000D01*
G75*
G02*
X183121000Y-136662000I0J-250000D01*
G01*
G37*
G36*
G01*
X186096000Y-136662000D02*
X186096000Y-137912000D01*
G75*
G02*
X185846000Y-138162000I-250000J0D01*
G01*
X184921000Y-138162000D01*
G75*
G02*
X184671000Y-137912000I0J250000D01*
G01*
X184671000Y-136662000D01*
G75*
G02*
X184921000Y-136412000I250000J0D01*
G01*
X185846000Y-136412000D01*
G75*
G02*
X186096000Y-136662000I0J-250000D01*
G01*
G37*
G36*
G01*
X123838000Y-124831000D02*
X123838000Y-123581000D01*
G75*
G02*
X124088000Y-123331000I250000J0D01*
G01*
X125013000Y-123331000D01*
G75*
G02*
X125263000Y-123581000I0J-250000D01*
G01*
X125263000Y-124831000D01*
G75*
G02*
X125013000Y-125081000I-250000J0D01*
G01*
X124088000Y-125081000D01*
G75*
G02*
X123838000Y-124831000I0J250000D01*
G01*
G37*
G36*
G01*
X120863000Y-124831000D02*
X120863000Y-123581000D01*
G75*
G02*
X121113000Y-123331000I250000J0D01*
G01*
X122038000Y-123331000D01*
G75*
G02*
X122288000Y-123581000I0J-250000D01*
G01*
X122288000Y-124831000D01*
G75*
G02*
X122038000Y-125081000I-250000J0D01*
G01*
X121113000Y-125081000D01*
G75*
G02*
X120863000Y-124831000I0J250000D01*
G01*
G37*
G36*
G01*
X123838000Y-121275000D02*
X123838000Y-120025000D01*
G75*
G02*
X124088000Y-119775000I250000J0D01*
G01*
X125013000Y-119775000D01*
G75*
G02*
X125263000Y-120025000I0J-250000D01*
G01*
X125263000Y-121275000D01*
G75*
G02*
X125013000Y-121525000I-250000J0D01*
G01*
X124088000Y-121525000D01*
G75*
G02*
X123838000Y-121275000I0J250000D01*
G01*
G37*
G36*
G01*
X120863000Y-121275000D02*
X120863000Y-120025000D01*
G75*
G02*
X121113000Y-119775000I250000J0D01*
G01*
X122038000Y-119775000D01*
G75*
G02*
X122288000Y-120025000I0J-250000D01*
G01*
X122288000Y-121275000D01*
G75*
G02*
X122038000Y-121525000I-250000J0D01*
G01*
X121113000Y-121525000D01*
G75*
G02*
X120863000Y-121275000I0J250000D01*
G01*
G37*
G36*
G01*
X163713000Y-147841000D02*
X164963000Y-147841000D01*
G75*
G02*
X165213000Y-148091000I0J-250000D01*
G01*
X165213000Y-149016000D01*
G75*
G02*
X164963000Y-149266000I-250000J0D01*
G01*
X163713000Y-149266000D01*
G75*
G02*
X163463000Y-149016000I0J250000D01*
G01*
X163463000Y-148091000D01*
G75*
G02*
X163713000Y-147841000I250000J0D01*
G01*
G37*
G36*
G01*
X163713000Y-144866000D02*
X164963000Y-144866000D01*
G75*
G02*
X165213000Y-145116000I0J-250000D01*
G01*
X165213000Y-146041000D01*
G75*
G02*
X164963000Y-146291000I-250000J0D01*
G01*
X163713000Y-146291000D01*
G75*
G02*
X163463000Y-146041000I0J250000D01*
G01*
X163463000Y-145116000D01*
G75*
G02*
X163713000Y-144866000I250000J0D01*
G01*
G37*
G36*
G01*
X164963000Y-140068000D02*
X163713000Y-140068000D01*
G75*
G02*
X163463000Y-139818000I0J250000D01*
G01*
X163463000Y-138893000D01*
G75*
G02*
X163713000Y-138643000I250000J0D01*
G01*
X164963000Y-138643000D01*
G75*
G02*
X165213000Y-138893000I0J-250000D01*
G01*
X165213000Y-139818000D01*
G75*
G02*
X164963000Y-140068000I-250000J0D01*
G01*
G37*
G36*
G01*
X164963000Y-143043000D02*
X163713000Y-143043000D01*
G75*
G02*
X163463000Y-142793000I0J250000D01*
G01*
X163463000Y-141868000D01*
G75*
G02*
X163713000Y-141618000I250000J0D01*
G01*
X164963000Y-141618000D01*
G75*
G02*
X165213000Y-141868000I0J-250000D01*
G01*
X165213000Y-142793000D01*
G75*
G02*
X164963000Y-143043000I-250000J0D01*
G01*
G37*
G36*
G01*
X160157000Y-147841000D02*
X161407000Y-147841000D01*
G75*
G02*
X161657000Y-148091000I0J-250000D01*
G01*
X161657000Y-149016000D01*
G75*
G02*
X161407000Y-149266000I-250000J0D01*
G01*
X160157000Y-149266000D01*
G75*
G02*
X159907000Y-149016000I0J250000D01*
G01*
X159907000Y-148091000D01*
G75*
G02*
X160157000Y-147841000I250000J0D01*
G01*
G37*
G36*
G01*
X160157000Y-144866000D02*
X161407000Y-144866000D01*
G75*
G02*
X161657000Y-145116000I0J-250000D01*
G01*
X161657000Y-146041000D01*
G75*
G02*
X161407000Y-146291000I-250000J0D01*
G01*
X160157000Y-146291000D01*
G75*
G02*
X159907000Y-146041000I0J250000D01*
G01*
X159907000Y-145116000D01*
G75*
G02*
X160157000Y-144866000I250000J0D01*
G01*
G37*
G36*
G01*
X161407000Y-140068000D02*
X160157000Y-140068000D01*
G75*
G02*
X159907000Y-139818000I0J250000D01*
G01*
X159907000Y-138893000D01*
G75*
G02*
X160157000Y-138643000I250000J0D01*
G01*
X161407000Y-138643000D01*
G75*
G02*
X161657000Y-138893000I0J-250000D01*
G01*
X161657000Y-139818000D01*
G75*
G02*
X161407000Y-140068000I-250000J0D01*
G01*
G37*
G36*
G01*
X161407000Y-143043000D02*
X160157000Y-143043000D01*
G75*
G02*
X159907000Y-142793000I0J250000D01*
G01*
X159907000Y-141868000D01*
G75*
G02*
X160157000Y-141618000I250000J0D01*
G01*
X161407000Y-141618000D01*
G75*
G02*
X161657000Y-141868000I0J-250000D01*
G01*
X161657000Y-142793000D01*
G75*
G02*
X161407000Y-143043000I-250000J0D01*
G01*
G37*
G36*
G01*
X156601000Y-147841000D02*
X157851000Y-147841000D01*
G75*
G02*
X158101000Y-148091000I0J-250000D01*
G01*
X158101000Y-149016000D01*
G75*
G02*
X157851000Y-149266000I-250000J0D01*
G01*
X156601000Y-149266000D01*
G75*
G02*
X156351000Y-149016000I0J250000D01*
G01*
X156351000Y-148091000D01*
G75*
G02*
X156601000Y-147841000I250000J0D01*
G01*
G37*
G36*
G01*
X156601000Y-144866000D02*
X157851000Y-144866000D01*
G75*
G02*
X158101000Y-145116000I0J-250000D01*
G01*
X158101000Y-146041000D01*
G75*
G02*
X157851000Y-146291000I-250000J0D01*
G01*
X156601000Y-146291000D01*
G75*
G02*
X156351000Y-146041000I0J250000D01*
G01*
X156351000Y-145116000D01*
G75*
G02*
X156601000Y-144866000I250000J0D01*
G01*
G37*
G36*
G01*
X157851000Y-140068000D02*
X156601000Y-140068000D01*
G75*
G02*
X156351000Y-139818000I0J250000D01*
G01*
X156351000Y-138893000D01*
G75*
G02*
X156601000Y-138643000I250000J0D01*
G01*
X157851000Y-138643000D01*
G75*
G02*
X158101000Y-138893000I0J-250000D01*
G01*
X158101000Y-139818000D01*
G75*
G02*
X157851000Y-140068000I-250000J0D01*
G01*
G37*
G36*
G01*
X157851000Y-143043000D02*
X156601000Y-143043000D01*
G75*
G02*
X156351000Y-142793000I0J250000D01*
G01*
X156351000Y-141868000D01*
G75*
G02*
X156601000Y-141618000I250000J0D01*
G01*
X157851000Y-141618000D01*
G75*
G02*
X158101000Y-141868000I0J-250000D01*
G01*
X158101000Y-142793000D01*
G75*
G02*
X157851000Y-143043000I-250000J0D01*
G01*
G37*
G36*
G01*
X177025000Y-136662000D02*
X177025000Y-137912000D01*
G75*
G02*
X176775000Y-138162000I-250000J0D01*
G01*
X175850000Y-138162000D01*
G75*
G02*
X175600000Y-137912000I0J250000D01*
G01*
X175600000Y-136662000D01*
G75*
G02*
X175850000Y-136412000I250000J0D01*
G01*
X176775000Y-136412000D01*
G75*
G02*
X177025000Y-136662000I0J-250000D01*
G01*
G37*
G36*
G01*
X180000000Y-136662000D02*
X180000000Y-137912000D01*
G75*
G02*
X179750000Y-138162000I-250000J0D01*
G01*
X178825000Y-138162000D01*
G75*
G02*
X178575000Y-137912000I0J250000D01*
G01*
X178575000Y-136662000D01*
G75*
G02*
X178825000Y-136412000I250000J0D01*
G01*
X179750000Y-136412000D01*
G75*
G02*
X180000000Y-136662000I0J-250000D01*
G01*
G37*
G36*
G01*
X212715000Y-154038000D02*
X211465000Y-154038000D01*
G75*
G02*
X211215000Y-153788000I0J250000D01*
G01*
X211215000Y-152863000D01*
G75*
G02*
X211465000Y-152613000I250000J0D01*
G01*
X212715000Y-152613000D01*
G75*
G02*
X212965000Y-152863000I0J-250000D01*
G01*
X212965000Y-153788000D01*
G75*
G02*
X212715000Y-154038000I-250000J0D01*
G01*
G37*
G36*
G01*
X212715000Y-157013000D02*
X211465000Y-157013000D01*
G75*
G02*
X211215000Y-156763000I0J250000D01*
G01*
X211215000Y-155838000D01*
G75*
G02*
X211465000Y-155588000I250000J0D01*
G01*
X212715000Y-155588000D01*
G75*
G02*
X212965000Y-155838000I0J-250000D01*
G01*
X212965000Y-156763000D01*
G75*
G02*
X212715000Y-157013000I-250000J0D01*
G01*
G37*
G36*
G01*
X196736000Y-137658000D02*
X196736000Y-136408000D01*
G75*
G02*
X196986000Y-136158000I250000J0D01*
G01*
X197911000Y-136158000D01*
G75*
G02*
X198161000Y-136408000I0J-250000D01*
G01*
X198161000Y-137658000D01*
G75*
G02*
X197911000Y-137908000I-250000J0D01*
G01*
X196986000Y-137908000D01*
G75*
G02*
X196736000Y-137658000I0J250000D01*
G01*
G37*
G36*
G01*
X193761000Y-137658000D02*
X193761000Y-136408000D01*
G75*
G02*
X194011000Y-136158000I250000J0D01*
G01*
X194936000Y-136158000D01*
G75*
G02*
X195186000Y-136408000I0J-250000D01*
G01*
X195186000Y-137658000D01*
G75*
G02*
X194936000Y-137908000I-250000J0D01*
G01*
X194011000Y-137908000D01*
G75*
G02*
X193761000Y-137658000I0J250000D01*
G01*
G37*
G36*
G01*
X193053000Y-151120000D02*
X193053000Y-149870000D01*
G75*
G02*
X193303000Y-149620000I250000J0D01*
G01*
X194228000Y-149620000D01*
G75*
G02*
X194478000Y-149870000I0J-250000D01*
G01*
X194478000Y-151120000D01*
G75*
G02*
X194228000Y-151370000I-250000J0D01*
G01*
X193303000Y-151370000D01*
G75*
G02*
X193053000Y-151120000I0J250000D01*
G01*
G37*
G36*
G01*
X190078000Y-151120000D02*
X190078000Y-149870000D01*
G75*
G02*
X190328000Y-149620000I250000J0D01*
G01*
X191253000Y-149620000D01*
G75*
G02*
X191503000Y-149870000I0J-250000D01*
G01*
X191503000Y-151120000D01*
G75*
G02*
X191253000Y-151370000I-250000J0D01*
G01*
X190328000Y-151370000D01*
G75*
G02*
X190078000Y-151120000I0J250000D01*
G01*
G37*
G36*
G01*
X180076000Y-165214000D02*
X178826000Y-165214000D01*
G75*
G02*
X178576000Y-164964000I0J250000D01*
G01*
X178576000Y-164039000D01*
G75*
G02*
X178826000Y-163789000I250000J0D01*
G01*
X180076000Y-163789000D01*
G75*
G02*
X180326000Y-164039000I0J-250000D01*
G01*
X180326000Y-164964000D01*
G75*
G02*
X180076000Y-165214000I-250000J0D01*
G01*
G37*
G36*
G01*
X180076000Y-168189000D02*
X178826000Y-168189000D01*
G75*
G02*
X178576000Y-167939000I0J250000D01*
G01*
X178576000Y-167014000D01*
G75*
G02*
X178826000Y-166764000I250000J0D01*
G01*
X180076000Y-166764000D01*
G75*
G02*
X180326000Y-167014000I0J-250000D01*
G01*
X180326000Y-167939000D01*
G75*
G02*
X180076000Y-168189000I-250000J0D01*
G01*
G37*
G36*
G01*
X206261000Y-163820000D02*
X206261000Y-162570000D01*
G75*
G02*
X206511000Y-162320000I250000J0D01*
G01*
X207436000Y-162320000D01*
G75*
G02*
X207686000Y-162570000I0J-250000D01*
G01*
X207686000Y-163820000D01*
G75*
G02*
X207436000Y-164070000I-250000J0D01*
G01*
X206511000Y-164070000D01*
G75*
G02*
X206261000Y-163820000I0J250000D01*
G01*
G37*
G36*
G01*
X203286000Y-163820000D02*
X203286000Y-162570000D01*
G75*
G02*
X203536000Y-162320000I250000J0D01*
G01*
X204461000Y-162320000D01*
G75*
G02*
X204711000Y-162570000I0J-250000D01*
G01*
X204711000Y-163820000D01*
G75*
G02*
X204461000Y-164070000I-250000J0D01*
G01*
X203536000Y-164070000D01*
G75*
G02*
X203286000Y-163820000I0J250000D01*
G01*
G37*
G36*
G01*
X189775000Y-147625000D02*
X189775000Y-146375000D01*
G75*
G02*
X190025000Y-146125000I250000J0D01*
G01*
X190950000Y-146125000D01*
G75*
G02*
X191200000Y-146375000I0J-250000D01*
G01*
X191200000Y-147625000D01*
G75*
G02*
X190950000Y-147875000I-250000J0D01*
G01*
X190025000Y-147875000D01*
G75*
G02*
X189775000Y-147625000I0J250000D01*
G01*
G37*
G36*
G01*
X186800000Y-147625000D02*
X186800000Y-146375000D01*
G75*
G02*
X187050000Y-146125000I250000J0D01*
G01*
X187975000Y-146125000D01*
G75*
G02*
X188225000Y-146375000I0J-250000D01*
G01*
X188225000Y-147625000D01*
G75*
G02*
X187975000Y-147875000I-250000J0D01*
G01*
X187050000Y-147875000D01*
G75*
G02*
X186800000Y-147625000I0J250000D01*
G01*
G37*
G36*
G01*
X176225000Y-146375000D02*
X176225000Y-147625000D01*
G75*
G02*
X175975000Y-147875000I-250000J0D01*
G01*
X175050000Y-147875000D01*
G75*
G02*
X174800000Y-147625000I0J250000D01*
G01*
X174800000Y-146375000D01*
G75*
G02*
X175050000Y-146125000I250000J0D01*
G01*
X175975000Y-146125000D01*
G75*
G02*
X176225000Y-146375000I0J-250000D01*
G01*
G37*
G36*
G01*
X179200000Y-146375000D02*
X179200000Y-147625000D01*
G75*
G02*
X178950000Y-147875000I-250000J0D01*
G01*
X178025000Y-147875000D01*
G75*
G02*
X177775000Y-147625000I0J250000D01*
G01*
X177775000Y-146375000D01*
G75*
G02*
X178025000Y-146125000I250000J0D01*
G01*
X178950000Y-146125000D01*
G75*
G02*
X179200000Y-146375000I0J-250000D01*
G01*
G37*
G36*
G01*
X189748000Y-166764000D02*
X190998000Y-166764000D01*
G75*
G02*
X191248000Y-167014000I0J-250000D01*
G01*
X191248000Y-167939000D01*
G75*
G02*
X190998000Y-168189000I-250000J0D01*
G01*
X189748000Y-168189000D01*
G75*
G02*
X189498000Y-167939000I0J250000D01*
G01*
X189498000Y-167014000D01*
G75*
G02*
X189748000Y-166764000I250000J0D01*
G01*
G37*
G36*
G01*
X189748000Y-163789000D02*
X190998000Y-163789000D01*
G75*
G02*
X191248000Y-164039000I0J-250000D01*
G01*
X191248000Y-164964000D01*
G75*
G02*
X190998000Y-165214000I-250000J0D01*
G01*
X189748000Y-165214000D01*
G75*
G02*
X189498000Y-164964000I0J250000D01*
G01*
X189498000Y-164039000D01*
G75*
G02*
X189748000Y-163789000I250000J0D01*
G01*
G37*
G36*
G01*
X127648000Y-157089000D02*
X127648000Y-155839000D01*
G75*
G02*
X127898000Y-155589000I250000J0D01*
G01*
X128823000Y-155589000D01*
G75*
G02*
X129073000Y-155839000I0J-250000D01*
G01*
X129073000Y-157089000D01*
G75*
G02*
X128823000Y-157339000I-250000J0D01*
G01*
X127898000Y-157339000D01*
G75*
G02*
X127648000Y-157089000I0J250000D01*
G01*
G37*
G36*
G01*
X124673000Y-157089000D02*
X124673000Y-155839000D01*
G75*
G02*
X124923000Y-155589000I250000J0D01*
G01*
X125848000Y-155589000D01*
G75*
G02*
X126098000Y-155839000I0J-250000D01*
G01*
X126098000Y-157089000D01*
G75*
G02*
X125848000Y-157339000I-250000J0D01*
G01*
X124923000Y-157339000D01*
G75*
G02*
X124673000Y-157089000I0J250000D01*
G01*
G37*
D13*
X171475000Y-138155000D03*
X171475000Y-135615000D03*
X171475000Y-133075000D03*
X168935000Y-133075000D03*
X168935000Y-138155000D03*
X168935000Y-135615000D03*
X171500000Y-150880000D03*
X171500000Y-148340000D03*
X171500000Y-145800000D03*
X168960000Y-145800000D03*
X168960000Y-150880000D03*
X168960000Y-148340000D03*
X135940000Y-128045000D03*
X135940000Y-130585000D03*
X138480000Y-130585000D03*
X141020000Y-128045000D03*
X141020000Y-130585000D03*
X143560000Y-128045000D03*
X138480000Y-128045000D03*
X143560000Y-130585000D03*
X133400000Y-130585000D03*
X133400000Y-128045000D03*
X146100000Y-128045000D03*
X146100000Y-130585000D03*
X148640000Y-128045000D03*
X148640000Y-130585000D03*
X151180000Y-128045000D03*
X151180000Y-130585000D03*
X153720000Y-128045000D03*
X153720000Y-130585000D03*
X156260000Y-128045000D03*
X156260000Y-130585000D03*
X158800000Y-128045000D03*
X168960000Y-128045000D03*
X166420000Y-128045000D03*
X168960000Y-130585000D03*
X158800000Y-130585000D03*
X163880000Y-130585000D03*
X171500000Y-130585000D03*
X163880000Y-128045000D03*
X166420000Y-130585000D03*
X161340000Y-128045000D03*
X171500000Y-128045000D03*
X161340000Y-130585000D03*
X125780000Y-163600000D03*
X130860000Y-163600000D03*
X135940000Y-161060000D03*
X146100000Y-163600000D03*
X146100000Y-161060000D03*
X153720000Y-161060000D03*
X156260000Y-163600000D03*
X128320000Y-161060000D03*
X123240000Y-161060000D03*
X128320000Y-163600000D03*
X130860000Y-161060000D03*
X133400000Y-161060000D03*
X138480000Y-163600000D03*
X143560000Y-163600000D03*
X143560000Y-161060000D03*
X148640000Y-163600000D03*
D14*
X120700000Y-163600000D03*
D13*
X148640000Y-161060000D03*
X141020000Y-163600000D03*
X151180000Y-163600000D03*
X151180000Y-161060000D03*
X123240000Y-163600000D03*
X133400000Y-163600000D03*
X141020000Y-161060000D03*
X153720000Y-163600000D03*
X125780000Y-161060000D03*
X135940000Y-163600000D03*
X138480000Y-161060000D03*
X120700000Y-161060000D03*
X168960000Y-161060000D03*
X166420000Y-163600000D03*
X158800000Y-161060000D03*
X171500000Y-163600000D03*
X166420000Y-161060000D03*
X168960000Y-163600000D03*
X156260000Y-161060000D03*
X161340000Y-161060000D03*
X163880000Y-163600000D03*
X171500000Y-161060000D03*
X158800000Y-163600000D03*
X163880000Y-161060000D03*
X161340000Y-163600000D03*
D15*
X158460000Y-123000000D03*
D16*
X161000000Y-123000000D03*
D17*
X138500000Y-171000000D03*
X138500000Y-175500000D03*
X132000000Y-171000000D03*
X132000000Y-175500000D03*
D18*
X225300000Y-126000000D03*
X225300000Y-128500000D03*
X225300000Y-131000000D03*
X222000000Y-126000000D03*
X222000000Y-128500000D03*
D19*
X222000000Y-131000000D03*
D17*
X213500000Y-171000000D03*
X213500000Y-175500000D03*
X207000000Y-171000000D03*
X207000000Y-175500000D03*
X198500000Y-171000000D03*
X198500000Y-175500000D03*
X192000000Y-171000000D03*
X192000000Y-175500000D03*
X183500000Y-171000000D03*
X183500000Y-175500000D03*
X177000000Y-171000000D03*
X177000000Y-175500000D03*
X168500000Y-171000000D03*
X168500000Y-175500000D03*
X162000000Y-171000000D03*
X162000000Y-175500000D03*
X153500000Y-171000000D03*
X153500000Y-175500000D03*
X147000000Y-171000000D03*
X147000000Y-175500000D03*
D20*
X169712000Y-114830000D03*
X174212000Y-114830000D03*
D21*
X171962000Y-116830000D03*
D15*
X165460000Y-123000000D03*
D16*
X168000000Y-123000000D03*
D15*
X151460000Y-123000000D03*
D16*
X154000000Y-123000000D03*
D13*
X196596000Y-140716000D03*
X196596000Y-143256000D03*
X194056000Y-140716000D03*
X194056000Y-143256000D03*
X191516000Y-140716000D03*
X191516000Y-143256000D03*
X188976000Y-140716000D03*
X188976000Y-143256000D03*
X186436000Y-140716000D03*
X186436000Y-143256000D03*
X183896000Y-140716000D03*
X183896000Y-143256000D03*
X181356000Y-140716000D03*
X181356000Y-143256000D03*
X178816000Y-140716000D03*
X178816000Y-143256000D03*
X176276000Y-140716000D03*
D22*
X176276000Y-143256000D03*
D23*
X157950000Y-112398000D03*
D24*
X162950000Y-117404000D03*
X160450000Y-117404000D03*
X152950000Y-117404000D03*
X155450000Y-117404000D03*
D13*
X183756000Y-108756000D03*
D22*
X178676000Y-108756000D03*
D13*
X186296000Y-108756000D03*
X181216000Y-108756000D03*
D23*
X143950000Y-112398000D03*
D24*
X148950000Y-117404000D03*
X146450000Y-117404000D03*
X138950000Y-117404000D03*
X141450000Y-117404000D03*
D25*
X213000000Y-159380000D03*
X220620000Y-167000000D03*
X215540000Y-159380000D03*
X218080000Y-167000000D03*
X218080000Y-159380000D03*
X215540000Y-167000000D03*
X220620000Y-159380000D03*
D26*
X213000000Y-167000000D03*
D27*
X192674000Y-112058000D03*
X216874000Y-112058000D03*
D28*
X183120000Y-159500000D03*
X175500000Y-167120000D03*
X183120000Y-162040000D03*
X175500000Y-164580000D03*
X183120000Y-164580000D03*
X175500000Y-162040000D03*
X183120000Y-167120000D03*
D29*
X175500000Y-159500000D03*
D30*
X180340000Y-155702000D03*
X177840000Y-150702000D03*
X175340000Y-155702000D03*
D17*
X209400000Y-145000000D03*
D31*
X217000000Y-145000000D03*
D32*
X224697056Y-108302944D03*
X223000000Y-107600000D03*
X221302944Y-108302944D03*
X220600000Y-110000000D03*
X221302944Y-111697056D03*
X223000000Y-112400000D03*
X224697056Y-111697056D03*
X225400000Y-110000000D03*
D33*
X223000000Y-110000000D03*
D32*
X124197056Y-108302944D03*
X122500000Y-107600000D03*
X120802944Y-108302944D03*
X120100000Y-110000000D03*
X120802944Y-111697056D03*
X122500000Y-112400000D03*
X124197056Y-111697056D03*
X124900000Y-110000000D03*
D33*
X122500000Y-110000000D03*
D32*
X224697056Y-172302944D03*
X223000000Y-171600000D03*
X221302944Y-172302944D03*
X220600000Y-174000000D03*
X221302944Y-175697056D03*
X223000000Y-176400000D03*
X224697056Y-175697056D03*
X225400000Y-174000000D03*
D33*
X223000000Y-174000000D03*
D32*
X124197056Y-172302944D03*
X122500000Y-171600000D03*
X120802944Y-172302944D03*
X120100000Y-174000000D03*
X120802944Y-175697056D03*
X122500000Y-176400000D03*
X124197056Y-175697056D03*
X124900000Y-174000000D03*
D33*
X122500000Y-174000000D03*
D28*
X194120000Y-159500000D03*
X186500000Y-167120000D03*
X194120000Y-162040000D03*
X186500000Y-164580000D03*
X194120000Y-164580000D03*
X186500000Y-162040000D03*
X194120000Y-167120000D03*
D29*
X186500000Y-159500000D03*
D25*
X199500000Y-159380000D03*
X207120000Y-167000000D03*
X202040000Y-159380000D03*
X204580000Y-167000000D03*
X204580000Y-159380000D03*
X202040000Y-167000000D03*
X207120000Y-159380000D03*
D26*
X199500000Y-167000000D03*
D30*
X188722000Y-155702000D03*
X186222000Y-150702000D03*
X183722000Y-155702000D03*
G36*
G01*
X125425000Y-115138000D02*
X127175000Y-115138000D01*
G75*
G02*
X128050000Y-116013000I0J-875000D01*
G01*
X128050000Y-117763000D01*
G75*
G02*
X127175000Y-118638000I-875000J0D01*
G01*
X125425000Y-118638000D01*
G75*
G02*
X124550000Y-117763000I0J875000D01*
G01*
X124550000Y-116013000D01*
G75*
G02*
X125425000Y-115138000I875000J0D01*
G01*
G37*
G36*
G01*
X130000000Y-112388000D02*
X132000000Y-112388000D01*
G75*
G02*
X132750000Y-113138000I0J-750000D01*
G01*
X132750000Y-114638000D01*
G75*
G02*
X132000000Y-115388000I-750000J0D01*
G01*
X130000000Y-115388000D01*
G75*
G02*
X129250000Y-114638000I0J750000D01*
G01*
X129250000Y-113138000D01*
G75*
G02*
X130000000Y-112388000I750000J0D01*
G01*
G37*
D34*
X131000000Y-119888000D03*
D15*
X137460000Y-123000000D03*
D16*
X140000000Y-123000000D03*
D15*
X144460000Y-123000000D03*
D16*
X147000000Y-123000000D03*
M02*
