G04 #@! TF.GenerationSoftware,KiCad,Pcbnew,(5.1.6)-1*
G04 #@! TF.CreationDate,2021-01-09T08:19:16+02:00*
G04 #@! TF.ProjectId,MegaDuino_PM_1_3_Buzz,4d656761-4475-4696-9e6f-5f504d5f315f,rev?*
G04 #@! TF.SameCoordinates,Original*
G04 #@! TF.FileFunction,Paste,Bot*
G04 #@! TF.FilePolarity,Positive*
%FSLAX46Y46*%
G04 Gerber Fmt 4.6, Leading zero omitted, Abs format (unit mm)*
G04 Created by KiCad (PCBNEW (5.1.6)-1) date 2021-01-09 08:19:16*
%MOMM*%
%LPD*%
G01*
G04 APERTURE LIST*
G04 APERTURE END LIST*
G36*
G01*
X200038000Y-163820000D02*
X200038000Y-162570000D01*
G75*
G02*
X200288000Y-162320000I250000J0D01*
G01*
X201213000Y-162320000D01*
G75*
G02*
X201463000Y-162570000I0J-250000D01*
G01*
X201463000Y-163820000D01*
G75*
G02*
X201213000Y-164070000I-250000J0D01*
G01*
X200288000Y-164070000D01*
G75*
G02*
X200038000Y-163820000I0J250000D01*
G01*
G37*
G36*
G01*
X197063000Y-163820000D02*
X197063000Y-162570000D01*
G75*
G02*
X197313000Y-162320000I250000J0D01*
G01*
X198238000Y-162320000D01*
G75*
G02*
X198488000Y-162570000I0J-250000D01*
G01*
X198488000Y-163820000D01*
G75*
G02*
X198238000Y-164070000I-250000J0D01*
G01*
X197313000Y-164070000D01*
G75*
G02*
X197063000Y-163820000I0J250000D01*
G01*
G37*
G36*
G01*
X203083000Y-143269000D02*
X204333000Y-143269000D01*
G75*
G02*
X204583000Y-143519000I0J-250000D01*
G01*
X204583000Y-144444000D01*
G75*
G02*
X204333000Y-144694000I-250000J0D01*
G01*
X203083000Y-144694000D01*
G75*
G02*
X202833000Y-144444000I0J250000D01*
G01*
X202833000Y-143519000D01*
G75*
G02*
X203083000Y-143269000I250000J0D01*
G01*
G37*
G36*
G01*
X203083000Y-140294000D02*
X204333000Y-140294000D01*
G75*
G02*
X204583000Y-140544000I0J-250000D01*
G01*
X204583000Y-141469000D01*
G75*
G02*
X204333000Y-141719000I-250000J0D01*
G01*
X203083000Y-141719000D01*
G75*
G02*
X202833000Y-141469000I0J250000D01*
G01*
X202833000Y-140544000D01*
G75*
G02*
X203083000Y-140294000I250000J0D01*
G01*
G37*
G36*
G01*
X123838000Y-131943000D02*
X123838000Y-130693000D01*
G75*
G02*
X124088000Y-130443000I250000J0D01*
G01*
X125013000Y-130443000D01*
G75*
G02*
X125263000Y-130693000I0J-250000D01*
G01*
X125263000Y-131943000D01*
G75*
G02*
X125013000Y-132193000I-250000J0D01*
G01*
X124088000Y-132193000D01*
G75*
G02*
X123838000Y-131943000I0J250000D01*
G01*
G37*
G36*
G01*
X120863000Y-131943000D02*
X120863000Y-130693000D01*
G75*
G02*
X121113000Y-130443000I250000J0D01*
G01*
X122038000Y-130443000D01*
G75*
G02*
X122288000Y-130693000I0J-250000D01*
G01*
X122288000Y-131943000D01*
G75*
G02*
X122038000Y-132193000I-250000J0D01*
G01*
X121113000Y-132193000D01*
G75*
G02*
X120863000Y-131943000I0J250000D01*
G01*
G37*
G36*
G01*
X128641000Y-125209000D02*
X127391000Y-125209000D01*
G75*
G02*
X127141000Y-124959000I0J250000D01*
G01*
X127141000Y-124034000D01*
G75*
G02*
X127391000Y-123784000I250000J0D01*
G01*
X128641000Y-123784000D01*
G75*
G02*
X128891000Y-124034000I0J-250000D01*
G01*
X128891000Y-124959000D01*
G75*
G02*
X128641000Y-125209000I-250000J0D01*
G01*
G37*
G36*
G01*
X128641000Y-128184000D02*
X127391000Y-128184000D01*
G75*
G02*
X127141000Y-127934000I0J250000D01*
G01*
X127141000Y-127009000D01*
G75*
G02*
X127391000Y-126759000I250000J0D01*
G01*
X128641000Y-126759000D01*
G75*
G02*
X128891000Y-127009000I0J-250000D01*
G01*
X128891000Y-127934000D01*
G75*
G02*
X128641000Y-128184000I-250000J0D01*
G01*
G37*
G36*
G01*
X123838000Y-128387000D02*
X123838000Y-127137000D01*
G75*
G02*
X124088000Y-126887000I250000J0D01*
G01*
X125013000Y-126887000D01*
G75*
G02*
X125263000Y-127137000I0J-250000D01*
G01*
X125263000Y-128387000D01*
G75*
G02*
X125013000Y-128637000I-250000J0D01*
G01*
X124088000Y-128637000D01*
G75*
G02*
X123838000Y-128387000I0J250000D01*
G01*
G37*
G36*
G01*
X120863000Y-128387000D02*
X120863000Y-127137000D01*
G75*
G02*
X121113000Y-126887000I250000J0D01*
G01*
X122038000Y-126887000D01*
G75*
G02*
X122288000Y-127137000I0J-250000D01*
G01*
X122288000Y-128387000D01*
G75*
G02*
X122038000Y-128637000I-250000J0D01*
G01*
X121113000Y-128637000D01*
G75*
G02*
X120863000Y-128387000I0J250000D01*
G01*
G37*
G36*
G01*
X207909000Y-155588000D02*
X209159000Y-155588000D01*
G75*
G02*
X209409000Y-155838000I0J-250000D01*
G01*
X209409000Y-156763000D01*
G75*
G02*
X209159000Y-157013000I-250000J0D01*
G01*
X207909000Y-157013000D01*
G75*
G02*
X207659000Y-156763000I0J250000D01*
G01*
X207659000Y-155838000D01*
G75*
G02*
X207909000Y-155588000I250000J0D01*
G01*
G37*
G36*
G01*
X207909000Y-152613000D02*
X209159000Y-152613000D01*
G75*
G02*
X209409000Y-152863000I0J-250000D01*
G01*
X209409000Y-153788000D01*
G75*
G02*
X209159000Y-154038000I-250000J0D01*
G01*
X207909000Y-154038000D01*
G75*
G02*
X207659000Y-153788000I0J250000D01*
G01*
X207659000Y-152863000D01*
G75*
G02*
X207909000Y-152613000I250000J0D01*
G01*
G37*
G36*
G01*
X195775000Y-147625000D02*
X195775000Y-146375000D01*
G75*
G02*
X196025000Y-146125000I250000J0D01*
G01*
X196950000Y-146125000D01*
G75*
G02*
X197200000Y-146375000I0J-250000D01*
G01*
X197200000Y-147625000D01*
G75*
G02*
X196950000Y-147875000I-250000J0D01*
G01*
X196025000Y-147875000D01*
G75*
G02*
X195775000Y-147625000I0J250000D01*
G01*
G37*
G36*
G01*
X192800000Y-147625000D02*
X192800000Y-146375000D01*
G75*
G02*
X193050000Y-146125000I250000J0D01*
G01*
X193975000Y-146125000D01*
G75*
G02*
X194225000Y-146375000I0J-250000D01*
G01*
X194225000Y-147625000D01*
G75*
G02*
X193975000Y-147875000I-250000J0D01*
G01*
X193050000Y-147875000D01*
G75*
G02*
X192800000Y-147625000I0J250000D01*
G01*
G37*
G36*
G01*
X199527000Y-143396000D02*
X200777000Y-143396000D01*
G75*
G02*
X201027000Y-143646000I0J-250000D01*
G01*
X201027000Y-144571000D01*
G75*
G02*
X200777000Y-144821000I-250000J0D01*
G01*
X199527000Y-144821000D01*
G75*
G02*
X199277000Y-144571000I0J250000D01*
G01*
X199277000Y-143646000D01*
G75*
G02*
X199527000Y-143396000I250000J0D01*
G01*
G37*
G36*
G01*
X199527000Y-140421000D02*
X200777000Y-140421000D01*
G75*
G02*
X201027000Y-140671000I0J-250000D01*
G01*
X201027000Y-141596000D01*
G75*
G02*
X200777000Y-141846000I-250000J0D01*
G01*
X199527000Y-141846000D01*
G75*
G02*
X199277000Y-141596000I0J250000D01*
G01*
X199277000Y-140671000D01*
G75*
G02*
X199527000Y-140421000I250000J0D01*
G01*
G37*
G36*
G01*
X182225000Y-146375000D02*
X182225000Y-147625000D01*
G75*
G02*
X181975000Y-147875000I-250000J0D01*
G01*
X181050000Y-147875000D01*
G75*
G02*
X180800000Y-147625000I0J250000D01*
G01*
X180800000Y-146375000D01*
G75*
G02*
X181050000Y-146125000I250000J0D01*
G01*
X181975000Y-146125000D01*
G75*
G02*
X182225000Y-146375000I0J-250000D01*
G01*
G37*
G36*
G01*
X185200000Y-146375000D02*
X185200000Y-147625000D01*
G75*
G02*
X184950000Y-147875000I-250000J0D01*
G01*
X184025000Y-147875000D01*
G75*
G02*
X183775000Y-147625000I0J250000D01*
G01*
X183775000Y-146375000D01*
G75*
G02*
X184025000Y-146125000I250000J0D01*
G01*
X184950000Y-146125000D01*
G75*
G02*
X185200000Y-146375000I0J-250000D01*
G01*
G37*
G36*
G01*
X183121000Y-136662000D02*
X183121000Y-137912000D01*
G75*
G02*
X182871000Y-138162000I-250000J0D01*
G01*
X181946000Y-138162000D01*
G75*
G02*
X181696000Y-137912000I0J250000D01*
G01*
X181696000Y-136662000D01*
G75*
G02*
X181946000Y-136412000I250000J0D01*
G01*
X182871000Y-136412000D01*
G75*
G02*
X183121000Y-136662000I0J-250000D01*
G01*
G37*
G36*
G01*
X186096000Y-136662000D02*
X186096000Y-137912000D01*
G75*
G02*
X185846000Y-138162000I-250000J0D01*
G01*
X184921000Y-138162000D01*
G75*
G02*
X184671000Y-137912000I0J250000D01*
G01*
X184671000Y-136662000D01*
G75*
G02*
X184921000Y-136412000I250000J0D01*
G01*
X185846000Y-136412000D01*
G75*
G02*
X186096000Y-136662000I0J-250000D01*
G01*
G37*
G36*
G01*
X123838000Y-124831000D02*
X123838000Y-123581000D01*
G75*
G02*
X124088000Y-123331000I250000J0D01*
G01*
X125013000Y-123331000D01*
G75*
G02*
X125263000Y-123581000I0J-250000D01*
G01*
X125263000Y-124831000D01*
G75*
G02*
X125013000Y-125081000I-250000J0D01*
G01*
X124088000Y-125081000D01*
G75*
G02*
X123838000Y-124831000I0J250000D01*
G01*
G37*
G36*
G01*
X120863000Y-124831000D02*
X120863000Y-123581000D01*
G75*
G02*
X121113000Y-123331000I250000J0D01*
G01*
X122038000Y-123331000D01*
G75*
G02*
X122288000Y-123581000I0J-250000D01*
G01*
X122288000Y-124831000D01*
G75*
G02*
X122038000Y-125081000I-250000J0D01*
G01*
X121113000Y-125081000D01*
G75*
G02*
X120863000Y-124831000I0J250000D01*
G01*
G37*
G36*
G01*
X123838000Y-121275000D02*
X123838000Y-120025000D01*
G75*
G02*
X124088000Y-119775000I250000J0D01*
G01*
X125013000Y-119775000D01*
G75*
G02*
X125263000Y-120025000I0J-250000D01*
G01*
X125263000Y-121275000D01*
G75*
G02*
X125013000Y-121525000I-250000J0D01*
G01*
X124088000Y-121525000D01*
G75*
G02*
X123838000Y-121275000I0J250000D01*
G01*
G37*
G36*
G01*
X120863000Y-121275000D02*
X120863000Y-120025000D01*
G75*
G02*
X121113000Y-119775000I250000J0D01*
G01*
X122038000Y-119775000D01*
G75*
G02*
X122288000Y-120025000I0J-250000D01*
G01*
X122288000Y-121275000D01*
G75*
G02*
X122038000Y-121525000I-250000J0D01*
G01*
X121113000Y-121525000D01*
G75*
G02*
X120863000Y-121275000I0J250000D01*
G01*
G37*
G36*
G01*
X163713000Y-147841000D02*
X164963000Y-147841000D01*
G75*
G02*
X165213000Y-148091000I0J-250000D01*
G01*
X165213000Y-149016000D01*
G75*
G02*
X164963000Y-149266000I-250000J0D01*
G01*
X163713000Y-149266000D01*
G75*
G02*
X163463000Y-149016000I0J250000D01*
G01*
X163463000Y-148091000D01*
G75*
G02*
X163713000Y-147841000I250000J0D01*
G01*
G37*
G36*
G01*
X163713000Y-144866000D02*
X164963000Y-144866000D01*
G75*
G02*
X165213000Y-145116000I0J-250000D01*
G01*
X165213000Y-146041000D01*
G75*
G02*
X164963000Y-146291000I-250000J0D01*
G01*
X163713000Y-146291000D01*
G75*
G02*
X163463000Y-146041000I0J250000D01*
G01*
X163463000Y-145116000D01*
G75*
G02*
X163713000Y-144866000I250000J0D01*
G01*
G37*
G36*
G01*
X164963000Y-140068000D02*
X163713000Y-140068000D01*
G75*
G02*
X163463000Y-139818000I0J250000D01*
G01*
X163463000Y-138893000D01*
G75*
G02*
X163713000Y-138643000I250000J0D01*
G01*
X164963000Y-138643000D01*
G75*
G02*
X165213000Y-138893000I0J-250000D01*
G01*
X165213000Y-139818000D01*
G75*
G02*
X164963000Y-140068000I-250000J0D01*
G01*
G37*
G36*
G01*
X164963000Y-143043000D02*
X163713000Y-143043000D01*
G75*
G02*
X163463000Y-142793000I0J250000D01*
G01*
X163463000Y-141868000D01*
G75*
G02*
X163713000Y-141618000I250000J0D01*
G01*
X164963000Y-141618000D01*
G75*
G02*
X165213000Y-141868000I0J-250000D01*
G01*
X165213000Y-142793000D01*
G75*
G02*
X164963000Y-143043000I-250000J0D01*
G01*
G37*
G36*
G01*
X160157000Y-147841000D02*
X161407000Y-147841000D01*
G75*
G02*
X161657000Y-148091000I0J-250000D01*
G01*
X161657000Y-149016000D01*
G75*
G02*
X161407000Y-149266000I-250000J0D01*
G01*
X160157000Y-149266000D01*
G75*
G02*
X159907000Y-149016000I0J250000D01*
G01*
X159907000Y-148091000D01*
G75*
G02*
X160157000Y-147841000I250000J0D01*
G01*
G37*
G36*
G01*
X160157000Y-144866000D02*
X161407000Y-144866000D01*
G75*
G02*
X161657000Y-145116000I0J-250000D01*
G01*
X161657000Y-146041000D01*
G75*
G02*
X161407000Y-146291000I-250000J0D01*
G01*
X160157000Y-146291000D01*
G75*
G02*
X159907000Y-146041000I0J250000D01*
G01*
X159907000Y-145116000D01*
G75*
G02*
X160157000Y-144866000I250000J0D01*
G01*
G37*
G36*
G01*
X161407000Y-140068000D02*
X160157000Y-140068000D01*
G75*
G02*
X159907000Y-139818000I0J250000D01*
G01*
X159907000Y-138893000D01*
G75*
G02*
X160157000Y-138643000I250000J0D01*
G01*
X161407000Y-138643000D01*
G75*
G02*
X161657000Y-138893000I0J-250000D01*
G01*
X161657000Y-139818000D01*
G75*
G02*
X161407000Y-140068000I-250000J0D01*
G01*
G37*
G36*
G01*
X161407000Y-143043000D02*
X160157000Y-143043000D01*
G75*
G02*
X159907000Y-142793000I0J250000D01*
G01*
X159907000Y-141868000D01*
G75*
G02*
X160157000Y-141618000I250000J0D01*
G01*
X161407000Y-141618000D01*
G75*
G02*
X161657000Y-141868000I0J-250000D01*
G01*
X161657000Y-142793000D01*
G75*
G02*
X161407000Y-143043000I-250000J0D01*
G01*
G37*
G36*
G01*
X156601000Y-147841000D02*
X157851000Y-147841000D01*
G75*
G02*
X158101000Y-148091000I0J-250000D01*
G01*
X158101000Y-149016000D01*
G75*
G02*
X157851000Y-149266000I-250000J0D01*
G01*
X156601000Y-149266000D01*
G75*
G02*
X156351000Y-149016000I0J250000D01*
G01*
X156351000Y-148091000D01*
G75*
G02*
X156601000Y-147841000I250000J0D01*
G01*
G37*
G36*
G01*
X156601000Y-144866000D02*
X157851000Y-144866000D01*
G75*
G02*
X158101000Y-145116000I0J-250000D01*
G01*
X158101000Y-146041000D01*
G75*
G02*
X157851000Y-146291000I-250000J0D01*
G01*
X156601000Y-146291000D01*
G75*
G02*
X156351000Y-146041000I0J250000D01*
G01*
X156351000Y-145116000D01*
G75*
G02*
X156601000Y-144866000I250000J0D01*
G01*
G37*
G36*
G01*
X157851000Y-140068000D02*
X156601000Y-140068000D01*
G75*
G02*
X156351000Y-139818000I0J250000D01*
G01*
X156351000Y-138893000D01*
G75*
G02*
X156601000Y-138643000I250000J0D01*
G01*
X157851000Y-138643000D01*
G75*
G02*
X158101000Y-138893000I0J-250000D01*
G01*
X158101000Y-139818000D01*
G75*
G02*
X157851000Y-140068000I-250000J0D01*
G01*
G37*
G36*
G01*
X157851000Y-143043000D02*
X156601000Y-143043000D01*
G75*
G02*
X156351000Y-142793000I0J250000D01*
G01*
X156351000Y-141868000D01*
G75*
G02*
X156601000Y-141618000I250000J0D01*
G01*
X157851000Y-141618000D01*
G75*
G02*
X158101000Y-141868000I0J-250000D01*
G01*
X158101000Y-142793000D01*
G75*
G02*
X157851000Y-143043000I-250000J0D01*
G01*
G37*
G36*
G01*
X177025000Y-136662000D02*
X177025000Y-137912000D01*
G75*
G02*
X176775000Y-138162000I-250000J0D01*
G01*
X175850000Y-138162000D01*
G75*
G02*
X175600000Y-137912000I0J250000D01*
G01*
X175600000Y-136662000D01*
G75*
G02*
X175850000Y-136412000I250000J0D01*
G01*
X176775000Y-136412000D01*
G75*
G02*
X177025000Y-136662000I0J-250000D01*
G01*
G37*
G36*
G01*
X180000000Y-136662000D02*
X180000000Y-137912000D01*
G75*
G02*
X179750000Y-138162000I-250000J0D01*
G01*
X178825000Y-138162000D01*
G75*
G02*
X178575000Y-137912000I0J250000D01*
G01*
X178575000Y-136662000D01*
G75*
G02*
X178825000Y-136412000I250000J0D01*
G01*
X179750000Y-136412000D01*
G75*
G02*
X180000000Y-136662000I0J-250000D01*
G01*
G37*
G36*
G01*
X212715000Y-154038000D02*
X211465000Y-154038000D01*
G75*
G02*
X211215000Y-153788000I0J250000D01*
G01*
X211215000Y-152863000D01*
G75*
G02*
X211465000Y-152613000I250000J0D01*
G01*
X212715000Y-152613000D01*
G75*
G02*
X212965000Y-152863000I0J-250000D01*
G01*
X212965000Y-153788000D01*
G75*
G02*
X212715000Y-154038000I-250000J0D01*
G01*
G37*
G36*
G01*
X212715000Y-157013000D02*
X211465000Y-157013000D01*
G75*
G02*
X211215000Y-156763000I0J250000D01*
G01*
X211215000Y-155838000D01*
G75*
G02*
X211465000Y-155588000I250000J0D01*
G01*
X212715000Y-155588000D01*
G75*
G02*
X212965000Y-155838000I0J-250000D01*
G01*
X212965000Y-156763000D01*
G75*
G02*
X212715000Y-157013000I-250000J0D01*
G01*
G37*
G36*
G01*
X196736000Y-137658000D02*
X196736000Y-136408000D01*
G75*
G02*
X196986000Y-136158000I250000J0D01*
G01*
X197911000Y-136158000D01*
G75*
G02*
X198161000Y-136408000I0J-250000D01*
G01*
X198161000Y-137658000D01*
G75*
G02*
X197911000Y-137908000I-250000J0D01*
G01*
X196986000Y-137908000D01*
G75*
G02*
X196736000Y-137658000I0J250000D01*
G01*
G37*
G36*
G01*
X193761000Y-137658000D02*
X193761000Y-136408000D01*
G75*
G02*
X194011000Y-136158000I250000J0D01*
G01*
X194936000Y-136158000D01*
G75*
G02*
X195186000Y-136408000I0J-250000D01*
G01*
X195186000Y-137658000D01*
G75*
G02*
X194936000Y-137908000I-250000J0D01*
G01*
X194011000Y-137908000D01*
G75*
G02*
X193761000Y-137658000I0J250000D01*
G01*
G37*
G36*
G01*
X193053000Y-151120000D02*
X193053000Y-149870000D01*
G75*
G02*
X193303000Y-149620000I250000J0D01*
G01*
X194228000Y-149620000D01*
G75*
G02*
X194478000Y-149870000I0J-250000D01*
G01*
X194478000Y-151120000D01*
G75*
G02*
X194228000Y-151370000I-250000J0D01*
G01*
X193303000Y-151370000D01*
G75*
G02*
X193053000Y-151120000I0J250000D01*
G01*
G37*
G36*
G01*
X190078000Y-151120000D02*
X190078000Y-149870000D01*
G75*
G02*
X190328000Y-149620000I250000J0D01*
G01*
X191253000Y-149620000D01*
G75*
G02*
X191503000Y-149870000I0J-250000D01*
G01*
X191503000Y-151120000D01*
G75*
G02*
X191253000Y-151370000I-250000J0D01*
G01*
X190328000Y-151370000D01*
G75*
G02*
X190078000Y-151120000I0J250000D01*
G01*
G37*
G36*
G01*
X180076000Y-165214000D02*
X178826000Y-165214000D01*
G75*
G02*
X178576000Y-164964000I0J250000D01*
G01*
X178576000Y-164039000D01*
G75*
G02*
X178826000Y-163789000I250000J0D01*
G01*
X180076000Y-163789000D01*
G75*
G02*
X180326000Y-164039000I0J-250000D01*
G01*
X180326000Y-164964000D01*
G75*
G02*
X180076000Y-165214000I-250000J0D01*
G01*
G37*
G36*
G01*
X180076000Y-168189000D02*
X178826000Y-168189000D01*
G75*
G02*
X178576000Y-167939000I0J250000D01*
G01*
X178576000Y-167014000D01*
G75*
G02*
X178826000Y-166764000I250000J0D01*
G01*
X180076000Y-166764000D01*
G75*
G02*
X180326000Y-167014000I0J-250000D01*
G01*
X180326000Y-167939000D01*
G75*
G02*
X180076000Y-168189000I-250000J0D01*
G01*
G37*
G36*
G01*
X206261000Y-163820000D02*
X206261000Y-162570000D01*
G75*
G02*
X206511000Y-162320000I250000J0D01*
G01*
X207436000Y-162320000D01*
G75*
G02*
X207686000Y-162570000I0J-250000D01*
G01*
X207686000Y-163820000D01*
G75*
G02*
X207436000Y-164070000I-250000J0D01*
G01*
X206511000Y-164070000D01*
G75*
G02*
X206261000Y-163820000I0J250000D01*
G01*
G37*
G36*
G01*
X203286000Y-163820000D02*
X203286000Y-162570000D01*
G75*
G02*
X203536000Y-162320000I250000J0D01*
G01*
X204461000Y-162320000D01*
G75*
G02*
X204711000Y-162570000I0J-250000D01*
G01*
X204711000Y-163820000D01*
G75*
G02*
X204461000Y-164070000I-250000J0D01*
G01*
X203536000Y-164070000D01*
G75*
G02*
X203286000Y-163820000I0J250000D01*
G01*
G37*
G36*
G01*
X189775000Y-147625000D02*
X189775000Y-146375000D01*
G75*
G02*
X190025000Y-146125000I250000J0D01*
G01*
X190950000Y-146125000D01*
G75*
G02*
X191200000Y-146375000I0J-250000D01*
G01*
X191200000Y-147625000D01*
G75*
G02*
X190950000Y-147875000I-250000J0D01*
G01*
X190025000Y-147875000D01*
G75*
G02*
X189775000Y-147625000I0J250000D01*
G01*
G37*
G36*
G01*
X186800000Y-147625000D02*
X186800000Y-146375000D01*
G75*
G02*
X187050000Y-146125000I250000J0D01*
G01*
X187975000Y-146125000D01*
G75*
G02*
X188225000Y-146375000I0J-250000D01*
G01*
X188225000Y-147625000D01*
G75*
G02*
X187975000Y-147875000I-250000J0D01*
G01*
X187050000Y-147875000D01*
G75*
G02*
X186800000Y-147625000I0J250000D01*
G01*
G37*
G36*
G01*
X176225000Y-146375000D02*
X176225000Y-147625000D01*
G75*
G02*
X175975000Y-147875000I-250000J0D01*
G01*
X175050000Y-147875000D01*
G75*
G02*
X174800000Y-147625000I0J250000D01*
G01*
X174800000Y-146375000D01*
G75*
G02*
X175050000Y-146125000I250000J0D01*
G01*
X175975000Y-146125000D01*
G75*
G02*
X176225000Y-146375000I0J-250000D01*
G01*
G37*
G36*
G01*
X179200000Y-146375000D02*
X179200000Y-147625000D01*
G75*
G02*
X178950000Y-147875000I-250000J0D01*
G01*
X178025000Y-147875000D01*
G75*
G02*
X177775000Y-147625000I0J250000D01*
G01*
X177775000Y-146375000D01*
G75*
G02*
X178025000Y-146125000I250000J0D01*
G01*
X178950000Y-146125000D01*
G75*
G02*
X179200000Y-146375000I0J-250000D01*
G01*
G37*
G36*
G01*
X189748000Y-166764000D02*
X190998000Y-166764000D01*
G75*
G02*
X191248000Y-167014000I0J-250000D01*
G01*
X191248000Y-167939000D01*
G75*
G02*
X190998000Y-168189000I-250000J0D01*
G01*
X189748000Y-168189000D01*
G75*
G02*
X189498000Y-167939000I0J250000D01*
G01*
X189498000Y-167014000D01*
G75*
G02*
X189748000Y-166764000I250000J0D01*
G01*
G37*
G36*
G01*
X189748000Y-163789000D02*
X190998000Y-163789000D01*
G75*
G02*
X191248000Y-164039000I0J-250000D01*
G01*
X191248000Y-164964000D01*
G75*
G02*
X190998000Y-165214000I-250000J0D01*
G01*
X189748000Y-165214000D01*
G75*
G02*
X189498000Y-164964000I0J250000D01*
G01*
X189498000Y-164039000D01*
G75*
G02*
X189748000Y-163789000I250000J0D01*
G01*
G37*
G36*
G01*
X127648000Y-157089000D02*
X127648000Y-155839000D01*
G75*
G02*
X127898000Y-155589000I250000J0D01*
G01*
X128823000Y-155589000D01*
G75*
G02*
X129073000Y-155839000I0J-250000D01*
G01*
X129073000Y-157089000D01*
G75*
G02*
X128823000Y-157339000I-250000J0D01*
G01*
X127898000Y-157339000D01*
G75*
G02*
X127648000Y-157089000I0J250000D01*
G01*
G37*
G36*
G01*
X124673000Y-157089000D02*
X124673000Y-155839000D01*
G75*
G02*
X124923000Y-155589000I250000J0D01*
G01*
X125848000Y-155589000D01*
G75*
G02*
X126098000Y-155839000I0J-250000D01*
G01*
X126098000Y-157089000D01*
G75*
G02*
X125848000Y-157339000I-250000J0D01*
G01*
X124923000Y-157339000D01*
G75*
G02*
X124673000Y-157089000I0J250000D01*
G01*
G37*
M02*
